<?xml version="1.0" encoding="utf-8"?>
<!-- Generator: Adobe Illustrator 25.0.0, SVG Export Plug-In . SVG Version: 6.00 Build 0)  -->
<svg version="1.1" id="Layer_1" xmlns="http://www.w3.org/2000/svg" xmlns:xlink="http://www.w3.org/1999/xlink" x="0px" y="0px"
	 viewBox="0 0 1500 1500" style="enable-background:new 0 0 1500 1500;" xml:space="preserve">
<style type="text/css">
	.st0{fill:#284B63;}
</style>
<g>
	<path class="st0" d="M1500.05,750.23c0.25,412.29-336.33,749.23-748.98,749.77C335.69,1500.55,0.06,1164.53-0.05,748
		C-0.17,336.7,337.12-0.22,748.77,0C1164.35,0.22,1499.8,335.2,1500.05,750.23z M49.99,748.62
		c0.54,385.93,307.94,698.06,693.14,700.78c391.94,2.78,706.75-310.21,706.89-697.94c0.13-387.3-313.54-701.12-701.09-701.42
		C364.7,49.74,50.34,363.95,49.99,748.62z"/>
	<path class="st0" d="M875,922.72c-0.02,66.09,0.57,132.19-0.18,198.28c-0.79,69.44-55.46,126.91-121.22,128.92
		c-70.11,2.15-128.16-53.62-128.49-124.65c-0.48-103.04-0.23-206.09,0.02-309.13c0.02-10.33-0.52-15.63-13.9-17.52
		c-53.77-7.57-89.87-53.6-86.01-106.75c3.78-52.17,47.43-91.57,102.13-91.85c40.59-0.21,81.19-0.32,121.79,0.02
		C820.02,600.65,874.47,655,874.93,726C875.35,791.57,875.02,857.15,875,922.72z M824.97,924c0-66.11,0.26-132.23-0.1-198.34
		c-0.22-40.4-31.09-74.08-70.7-75.27c-44.21-1.32-88.51-0.86-132.74-0.02c-19.24,0.36-33.3,11.56-41.59,28.63
		c-8.11,16.69-6.69,33.36,4.09,48.76c11.02,15.74,26.28,22.41,45.47,22.34c42.77-0.16,45.62,3.02,45.62,46.21
		c0,109.32-0.13,218.64,0.07,327.96c0.08,45.63,41.93,82.56,84.41,75.1c37.32-6.55,65.2-40.24,65.39-80.16
		C825.19,1054.15,824.97,989.07,824.97,924z"/>
	<path class="st0" d="M100.07,729.57c13.6-225.17,111.13-402.74,300.38-527.71c57.26-37.81,119.95-64.09,186.52-80.98
		c19.82-5.03,33.72,1.16,37.44,16.82c3.48,14.63-5.61,25.9-24.78,31.5C368.59,236.63,223.07,386.8,164.28,620.28
		c-10.45,41.49-13.79,84.09-14.4,126.9c-0.31,21.48-18.12,33.66-35.61,25.14c-8.72-4.25-13.5-11.34-14.11-20.88
		C99.7,744.17,100.07,736.86,100.07,729.57z"/>
	<path class="st0" d="M875,425.13c-0.29,69.59-56.99,125.42-126.82,124.86c-68.47-0.55-123.8-57.49-123.2-126.77
		c0.6-68.45,57.51-123.78,126.74-123.22C819.59,300.56,875.28,357.09,875,425.13z M675.07,423.67
		c-0.76,40.3,32.82,75.26,73.22,76.23c40.89,0.98,76.22-33.3,76.66-74.4c0.43-40.21-33.78-75.1-74-75.45
		C710.51,349.7,675.83,383.34,675.07,423.67z"/>
	<path class="st0" d="M723.52,100.16c12.22,0,20.62-0.81,28.81,0.18c13.56,1.65,21.43,10.02,22.49,23.7
		c0.99,12.82-8.68,24.45-22.11,25.61c-17.56,1.51-35.22,2.4-52.84,2.34c-15.07-0.06-24.89-10.2-25.36-24.03
		c-0.49-14.26,7.7-23.6,23.44-25.72C707.69,100.93,717.58,100.62,723.52,100.16z"/>
</g>
</svg>
