<?xml version="1.0" encoding="utf-8"?>
<!-- Generator: Adobe Illustrator 25.0.0, SVG Export Plug-In . SVG Version: 6.00 Build 0)  -->
<svg version="1.1" id="Layer_1" xmlns="http://www.w3.org/2000/svg" xmlns:xlink="http://www.w3.org/1999/xlink" x="0px" y="0px"
	 viewBox="0 0 1500 1500" style="enable-background:new 0 0 1500 1500;" xml:space="preserve">
<style type="text/css">
	.st0{fill:#284B63;}
</style>
<g>
	<path class="st0" d="M1058.67,749.61c-0.38,8.37-5.78,11.22-12.12,13.5c-37.11,13.3-74.26,26.46-111.24,40.12
		c-141.58,52.29-238.4,149.42-290.56,291.01c-13.41,36.39-26.37,72.94-39.42,109.46c-2.35,6.57-4.97,12.93-13.1,13.15
		c-8.69,0.24-11.42-6.37-13.99-13.25c-19.32-51.81-35.65-105.02-58.83-155.05c-53.65-115.78-142.27-195.86-261.37-241.68
		c-39.75-15.29-80.06-29.11-120.16-43.47c-6.61-2.37-12.76-5.02-12.92-13.23c-0.16-8.29,5.95-11.06,12.55-13.49
		c48.62-17.89,98.31-33.38,145.59-54.32c122.37-54.19,206.49-145.62,253.6-270.85c14.44-38.38,27.96-77.1,41.77-115.71
		c2.38-6.65,5.12-12.67,13.37-12.68c8.31-0.01,10.95,6.18,13.34,12.75c16.51,45.41,31.2,91.6,50.05,136.02
		c56.2,132.46,154.01,220.97,289.55,268.38c34.21,11.96,68.2,24.54,102.32,36.76C1053.5,739.32,1058.7,742.41,1058.67,749.61z"/>
	<path class="st0" d="M1135.05,1024.27c3.5,4.86,6.25,7.41,7.42,10.54c6.92,18.44,13.32,37.08,20.18,55.55
		c26.38,71,75.23,119.62,146.11,146.09c18.16,6.78,36.57,12.89,54.66,19.84c3.26,1.25,5.52,5.1,8.24,7.75
		c-2.7,2.33-5.04,5.62-8.17,6.84c-25.76,10.01-52.43,18.01-77.39,29.69c-60.19,28.17-101.06,74.68-123.75,137.13
		c-6.51,17.92-12.77,35.94-19.63,53.73c-1.28,3.32-4.92,5.73-7.47,8.56c-2.5-2.93-6.02-5.47-7.32-8.87
		c-7.94-20.78-14.69-42.03-23.09-62.61c-26.91-65.93-73.88-111.6-140.56-136.76c-19.02-7.18-38.3-13.71-57.29-20.97
		c-3.06-1.17-5.24-4.64-7.82-7.04c2.51-2.47,4.58-6.07,7.6-7.22c18.7-7.14,37.7-13.49,56.44-20.54
		c69.09-26.01,117.09-73.46,143.68-142.34c7.44-19.27,14.03-38.87,21.25-58.22C1129.34,1032.21,1131.79,1029.46,1135.05,1024.27z"/>
	<path class="st0" d="M1375.05,236.55c-5.66,3.48-8.66,6.05-12.14,7.35c-19.06,7.11-38.37,13.56-57.35,20.86
		c-69.29,26.65-116.83,74.98-142.8,144.47c-6.79,18.16-12.93,36.57-19.85,54.68c-1.29,3.37-4.9,5.85-7.44,8.74
		c-2.53-2.85-6.14-5.29-7.43-8.62c-9.53-24.58-17.24-49.97-28.1-73.93c-27.29-60.21-72.8-101.73-134.52-125.31
		c-19-7.26-38.31-13.68-57.31-20.92c-3.41-1.3-5.99-4.76-8.95-7.22c3.06-2.71,5.69-6.5,9.26-7.97
		c30.51-12.59,62.47-22.33,91.54-37.59c51.83-27.22,86.65-70.73,107.24-125.48c7.16-19.04,13.68-38.32,20.98-57.3
		c1.25-3.26,5.01-5.55,7.61-8.29c2.33,2.68,5.62,4.98,6.85,8.1c10.7,27.19,19.16,55.43,31.84,81.64
		c28.16,58.21,74.24,97.47,134.89,119.65c18.21,6.66,36.53,13,54.69,19.78C1367.2,230.34,1369.8,232.96,1375.05,236.55z"/>
</g>
</svg>
