<?xml version="1.0" encoding="utf-8"?>
<!-- Generator: Adobe Illustrator 25.0.0, SVG Export Plug-In . SVG Version: 6.00 Build 0)  -->
<svg version="1.1" id="Layer_1" xmlns="http://www.w3.org/2000/svg" xmlns:xlink="http://www.w3.org/1999/xlink" x="0px" y="0px"
	 viewBox="0 0 1500 1500" style="enable-background:new 0 0 1500 1500;" xml:space="preserve">
<style type="text/css">
	.st0{fill:#284B63;}
</style>
<g>
	<path class="st0" d="M1336.86,34.95c0,12.41,0,24.14,0,35.87c0,28.45,0.14,56.89-0.12,85.33c-0.05,5.46,1.4,7.06,6.96,7.03
		c37.76-0.24,75.52-0.13,113.29-0.13c2.67,0,5.35,0,8.04,0c0.73,3.17-1.83,4.08-3.21,5.46c-51.11,51.19-102.3,102.3-153.38,153.52
		c-3.01,3.02-6.03,4.31-10.31,4.28c-24.03-0.18-48.06,0-72.09-0.17c-4.26-0.03-7.28,1.22-10.3,4.24
		c-132.74,132.9-265.54,265.74-398.44,398.47c-3.21,3.21-3.67,6.06-3.05,10.29c5.29,36.12-17.84,69.21-52.3,75.19
		c-35.44,6.15-68.41-16.12-75.97-51.3c-9.51-44.26,29.6-84.71,74.9-77.15c4.81,0.8,7.63-0.24,10.87-3.5
		c36.49-36.68,73.06-73.29,109.77-109.74c3.95-3.92,4.29-5.66-0.65-9.16c-81.42-57.61-192.15-55.6-270.23,6.28
		c-62.54,49.57-92.26,115.04-88.42,194.8c5.03,104.39,87.73,194.96,191.3,210.76c120.71,18.42,232.23-57.14,259.33-176.12
		c9.18-40.3,6.91-80.34-6.12-119.62c-1.45-4.36-0.93-7.01,2.35-10.21c13.69-13.35,27.2-26.9,40.57-40.58
		c3.61-3.7,5.34-4.54,7.91,1.14c52.38,115.93,23.74,252.79-70.95,337.62c-52.53,47.06-113.93,72.23-184.55,75.68
		c-124.69,6.09-244.08-72.67-286.89-189.94C421.7,706.85,486.45,547.25,628.7,483.38c104-46.7,204.06-34.03,296.8,32.6
		c5.65,4.06,8.46,4.45,13.62-0.79c34.41-34.95,69.14-69.57,104.02-104.05c4.56-4.51,4.14-6.68-0.58-10.6
		c-62.43-51.84-133.17-86.45-213.27-99.85c-131.02-21.92-250.57,6.75-356.38,87.26c-86.41,65.75-143.37,152.19-167.07,258.26
		c-32.94,147.4-1.17,280.94,95.39,397.32c72.7,87.63,166.71,140.7,279.3,157.49c134.47,20.06,255.44-13.71,360.65-100.04
		c75.62-62.04,125.98-141.24,150.51-235.96c26.47-102.23,18.05-202.11-24.38-298.96c-8.47-19.34-18.32-37.97-29.67-55.77
		c-2.7-4.24-2.76-6.94,1.08-10.63c12.73-12.22,25.28-24.66,37.46-37.44c4.51-4.73,6.43-3.58,9.57,1.22
		c42.61,64.97,69.89,135.74,80.63,212.73c15.56,111.49-1.33,218.02-55.19,316.83c-82.17,150.73-208.37,243.64-378.26,271.58
		c-154.86,25.46-294.73-13.6-415.7-113.48c-103.04-85.07-164.6-195.12-183.56-327.76c-15.84-110.83,1.12-217.06,54.69-315.45
		c82.35-151.23,208.77-244.73,379.34-272.39c158.1-25.64,299,16.74,421.61,119.67c4.31,3.62,6.32,3.18,9.98-0.53
		c23.28-23.54,46.76-46.87,70.3-70.14c3.02-2.98,4.36-6.01,4.31-10.29c-0.21-18.14-0.22-36.29,0.01-54.44
		c0.06-4.4-1.44-7.08-4.89-9.75C1076,138.14,971.83,91.32,855.53,73.71c-161.16-24.41-312.9,4.04-453.45,87.14
		C278.13,234.12,186.5,337.11,126.26,467.77c-32.19,69.82-51.23,143.29-58.04,219.95c-10.76,121.04,8.25,237.13,59.37,347.35
		c62.91,135.64,160.01,240.2,290.39,313.55c80.31,45.18,166.49,72.64,258.07,82.23c120.96,12.67,237.52-4.69,349.04-53.85
		c88.75-39.12,166.04-94.49,231.07-166.31c85.67-94.62,141.39-204.65,166.1-330.13c11.24-57.09,14.88-114.76,11.21-172.7
		c-6.98-110.08-39.22-212.5-95.82-307.21c-5.82-9.74-5.84-9.73,2.25-17.82c11.79-11.79,23.72-23.45,35.29-35.45
		c3.66-3.79,5.19-3.25,7.86,0.97c53.05,83.91,88.54,174.58,105.64,272.44c8.38,47.95,12.5,96.25,11.14,144.88
		c-4.87,174.22-62.07,329.21-173.44,463.38c-92.82,111.83-208.88,190.22-347.21,235.17c-63.5,20.63-128.71,31.98-195.47,34.99
		c-97.44,4.41-192.09-9.63-283.97-42.05c-87.67-30.94-166.69-77.07-237.23-137.58c-78.82-67.62-141.2-148.09-186.87-241.39
		c-35.31-72.14-58.17-148.08-68.88-227.7c-5.01-37.23-7.47-74.63-6.71-112.17c2.55-125.35,33.39-243.18,94.77-352.76
		c61.21-109.29,144.53-197.93,249.57-266c90.39-58.58,189.06-95.5,295.63-111.31c39.85-5.91,79.91-8.92,120.15-8.1
		c164.51,3.35,312.61,54.32,443.69,154.02c4.89,3.72,7.66,4.34,12.47-0.53c37.54-38.05,75.43-75.76,113.26-113.53
		C1331.43,38.26,1332.81,35.74,1336.86,34.95z"/>
</g>
</svg>
