<svg id="Layer_1" data-name="Layer 1" xmlns="http://www.w3.org/2000/svg" viewBox="0 0 1500 1500"><path d="M642.72,1502.91c-10-4.88-20.81-8.55-29.74-14.89-23.93-17-33.19-41.49-31.81-70.22.5-10.37-1.62-17.59-11.25-24.36-17-12-23.76-30.64-24-51.16q-.51-50.62,0-101.27c.25-21.62,7.74-40.53,26-53.12,8.7-6,6.7-13,5.37-20.59-8.54-48.86-28-93.82-53.71-135.46-36.75-59.42-78-116.06-114.14-175.84-83.77-138.69-84.79-279.86-7.13-421.82a63.31,63.31,0,0,1,3.76-6.29c10-14.08,26.12-18.4,39.77-10.71,13.4,7.56,18.07,23.88,10.89,39.56-11.16,24.39-25.27,47.78-33.45,73.11-35.82,111-19.07,214.65,45.87,311.45,39.2,58.42,78.13,117.13,114.18,177.5,28.13,47.11,47.32,98.51,54.14,154.4H864.87C876.81,1086,919.33,1012,966,940.08c21.82-33.62,44.91-66.42,67.65-99.44,50.58-73.46,71.74-154.28,61.24-243.11C1073.26,414.4,907.22,279.3,723.52,295a357.57,357.57,0,0,0-121,32.3c-24.3,11.25-41.12,7.26-48.87-10.39-7.82-17.8.78-32.32,25.34-43.27,119.23-53.14,238.61-54,355,5.67,121.27,62.19,194.25,162.48,216.74,297.47,18.26,109.57-8.69,208.8-70.42,300.48C1038.56,939.16,998,1002.09,961.18,1067c-17.21,30.4-24.31,66.56-35.67,100.21-3,8.92-1.58,15.91,7.45,22.47,16.91,12.28,23.6,30.78,23.79,51.29q.5,50.63,0,101.26c-.2,20.52-6.92,39.19-24,51.17-9.61,6.77-11.77,14-11.27,24.35,1.4,28.73-7.86,53.22-31.79,70.23-8.94,6.35-19.78,10-29.76,14.9Zm254-182H881.6c-23,0-46,.17-69-.05-21.23-.21-34.9-12.08-34.69-29.6s13.84-28.79,35.28-29c14.18-.16,28.37,0,42.55,0h42.36c0-5.59-.42-9.07.07-12.41,2.08-14-4.28-17.28-17.49-17.21q-129.86.77-259.73,0c-12.9-.07-17.08,3.81-16.69,16.72q1.26,41.79,0,83.63c-.44,13.37,3.48,17.73,17.3,17.64,84.12-.6,168.25-.3,252.38-.3,25.2,0,25.21,0,24-24.86C897.93,1324.48,897.49,1323.58,896.73,1320.89Zm-256.27,88.6c-1.9,30.34,2.2,34.7,31.2,34.71q81.32,0,162.62,0c25.83,0,32.42-8.57,26.53-34.7Z"/><path d="M744.9,572c73.66,1.87,133,23.25,183.11,68.45,19.88,17.93,23.67,34.55,11.09,48.9s-30.11,12.79-49.78-4.81c-42.08-37.66-91.49-55.59-147.73-53.1-47.42,2.1-89.37,19.14-125.28,50.47-2.95,2.57-5.76,5.32-8.79,7.77-16,12.93-32.87,12.63-44.2-.7-10.78-12.69-8.84-29.52,5.17-42.94,24.26-23.25,51.7-41.85,83.12-53.83a324.75,324.75,0,0,1,49-14.41C717.32,574.37,734.49,573.33,744.9,572Z"/><path d="M750.88,689.86c36.87,1.23,70,12.49,97.89,37.18,16.4,14.53,19.06,31.39,7.77,44.9s-27.92,13.65-45.35.16c-35.15-27.21-70.51-31.07-104.7-11-6.7,3.93-12.49,9.38-18.85,13.91-14.5,10.34-30.41,9.36-40.9-2.35-10.83-12.08-9.92-29.27,3.29-42C678.11,703.7,712.39,691.44,750.88,689.86Z"/><path d="M416.64,277.35c-5.57,6.86-10.27,17.5-18.14,21s-22.6,3.94-28.24-1.09c-26.15-23.33-50.9-48.38-74.66-74.19-9.57-10.4-6.18-26.2,3.83-35.87s25.47-12.37,36-2.61c25.4,23.5,49.49,48.44,73.53,73.35C412.63,261.71,413.26,268.42,416.64,277.35Z"/><path d="M1121.06,302.56c-16-.11-25.1-6.05-30-17.3-5.54-12.58-2.2-24.08,7.13-33.57,20.89-21.26,42.08-42.23,63.16-63.3a26.85,26.85,0,0,1,3.44-2.74c13.15-9.47,28-8.79,38.72,1.73s12.84,26.81,2,38.45c-22.61,24.27-46.52,47.36-70.46,70.35C1130.81,300.2,1123.85,301.34,1121.06,302.56Z"/><path d="M418.09,1003.71c-6.21,10.68-9.47,19.59-15.45,25.94-19.07,20.27-38.95,39.81-58.92,59.22-15,14.61-31.71,15.61-44.25,3.53-13-12.47-12.11-29.76,3.07-45.28q30.22-30.91,61.29-61c9.56-9.31,21.93-13.28,33.4-6C405.37,985.32,410.65,995,418.09,1003.71Z"/><path d="M1115.31,973c10.66,6.14,19.17,9.17,25.18,14.84,20.6,19.45,40.56,39.59,60.29,59.92,14.49,14.94,15.19,31.86,2.85,44.23s-29.32,11.74-44.23-2.74c-20.68-20.08-40.9-40.64-61.1-61.2-9.32-9.48-14-21.72-7-33.27C1096.51,986.23,1106.58,980.64,1115.31,973Z"/><path d="M780.66,76c0,14.66.44,29.33-.08,44-.67,18.86-13.39,31.76-29.93,31.26-16.15-.48-28.18-12.9-28.49-31.21-.51-29.79-.55-59.61.05-89.4C722.58,12.6,735.33.05,751.33,0s28.46,12.53,29.19,30.54C781.13,45.66,780.64,60.83,780.66,76Z"/><path d="M186.83,669.11c-14.65,0-29.32.39-44-.11-18.21-.64-30.84-12.5-31.3-28.49-.47-16.45,12.55-29.58,31.3-29.91,29.8-.53,59.61-.58,89.4,0,18.07.37,30.49,13.05,30.51,29.15s-12.43,28-30.51,29.29c-1,.07-2,0-2.93,0Q208.08,669.13,186.83,669.11Z"/><path d="M1315.56,669.13c-14.16,0-28.34.25-42.49-.06-20.08-.44-33.36-12.52-33.12-29.6.23-16.65,13-28.65,32.27-28.93q43.23-.62,86.46,0c19.11.26,32.14,12.32,32.45,28.82.31,17-13.13,29.06-33.07,29.76-.49,0-1,0-1.46,0Z"/><path d="M780.48,836.86c-.24,15.34-14.26,29-29.52,28.75s-29-14.26-28.75-29.52,14.26-29,29.52-28.75S780.72,821.6,780.48,836.86Z"/><path d="M486.27,344.69c15.44.17,28.84,13.72,28.79,29.13,0,15.6-13.21,28.78-28.9,28.95a28.59,28.59,0,0,1-29.26-29.63C457.29,357.56,470.75,344.52,486.27,344.69Z"/><path d="M722.44,1262.36a29.17,29.17,0,1,1-1,58.33c-15.6-.52-28.92-14.31-28.62-29.63S706.89,1262.29,722.44,1262.36Z"/></svg>