<?xml version="1.0" encoding="utf-8"?>
<!-- Generator: Adobe Illustrator 25.0.0, SVG Export Plug-In . SVG Version: 6.00 Build 0)  -->
<svg version="1.1" id="Layer_1" xmlns="http://www.w3.org/2000/svg" xmlns:xlink="http://www.w3.org/1999/xlink" x="0px" y="0px"
	 viewBox="0 0 1500 1500" style="enable-background:new 0 0 1500 1500;" xml:space="preserve">
<style type="text/css">
	.st0{fill:#284B63;}
</style>
<g>
	<path class="st0" d="M673.33,0C735.56,0,797.78,0,860,0c59.89,18.91,82.63,61.91,79.59,122.01c-0.78,15.48,1.41,31.22-0.48,46.5
		c-2.67,21.55,9.34,28.01,25.7,38.76c56,36.81,97.21,30.34,140.91-23.49c36.22-44.62,93.17-40.97,135.63-1.32
		c35.62,33.26,72.48,66.09,102.58,104.04c16.4,20.67,30.66,53.5,26.41,77.38c-5.08,28.54-26.46,58.38-48.9,78.68
		c-35.59,32.19-52.76,62.12-22.24,105.99c5.44,7.82,7.09,18.53,9.46,28.16c3.91,15.9,11.61,24.93,29.83,22.62
		c12-1.52,24.47,0.83,36.52-0.47c60.54-6.54,102.49,17.46,124.98,74.46c0,62.22,0,124.44,0,186.67
		c-18.92,60.04-62.08,82.67-122.21,79.56c-12.17-0.63-24.57,1.17-36.58-0.35c-26.52-3.35-37.4,8.55-51.52,31.82
		c-32.43,53.42-26.39,89.15,23.2,129.59c49.32,40.22,45.53,99.83,1.06,146.37c-26.05,27.27-53.52,53.18-80.31,79.74
		c-63.98,63.42-110.98,66.26-171.69-0.38c-36.15-39.68-68.49-56.89-116.33-25.2c-6.22,4.12-14.38,5.86-21.9,7.39
		c-18.54,3.77-25.42,14.42-23.03,33.07c1.4,10.92-0.77,22.27,0.43,33.24c6.62,60.58-17.35,102.64-74.44,125.16
		c-62.22,0-124.44,0-186.67,0c-63.39-26.8-79.35-51.33-79.47-122.13c-0.03-17.75,2.32-35.94-0.89-53.09
		c-1.94-10.4-10.49-21.97-19.42-28.27c-54.51-38.49-99.89-38.6-145.74,20.74c-33.46,43.3-93.25,40.43-133.79,3.21
		c-38.35-35.2-75-72.53-109.71-111.34c-35.5-39.7-32.74-89.14,3.42-128.97c8.19-9.03,16-18.98,25.84-25.84
		c38.35-26.7,49.57-58.01,21.76-99.31c-5.95-8.84-8.24-20.55-10.62-31.29c-4.06-18.38-14.33-25.47-33.02-23.03
		c-10.91,1.42-22.27-0.78-33.23,0.43C64.52,907.79,22.58,883.65,0,826.67C0,764.44,0,702.22,0,640
		c18.92-59.88,61.87-82.67,122.01-79.59c15.48,0.79,31.22-1.41,46.5,0.48c21.55,2.67,28.02-9.33,38.77-25.69
		c36.79-56,30.39-97.23-23.49-140.9c-44.68-36.21-40.95-93.65-1.5-135.52c32.67-34.67,64.44-71.05,101.63-100.29
		c21.65-17.03,54.82-32.47,79.82-28.72c28.35,4.26,58.31,26.26,78.69,48.64c32.18,35.33,61.9,53.44,105.94,22.34
		c7.77-5.48,18.47-7.45,28.14-9.46c18.66-3.89,25.08-14.68,22.8-33.11c-1.35-10.92,0.77-22.25-0.42-33.2
		C592.32,64.45,616.33,22.49,673.33,0z M886.2,155.59c0-15.55,0.17-31.11-0.03-46.66c-0.54-41.61-14.27-55.34-56.34-55.63
		c-42.21-0.29-84.43-0.47-126.64,0.07c-35.97,0.46-50.74,14.45-52.11,50.06c-1.11,28.84-0.97,57.77-0.21,86.63
		c0.61,23.19-8.06,36.28-31.46,43.57c-36.89,11.49-73.3,25.21-108.52,41.09c-21.88,9.87-37.33,7.17-53.32-9.71
		c-21.38-22.57-43.84-44.13-66.26-65.68c-28.3-27.19-46.91-28.27-74.45-2.04c-32.16,30.63-63.51,62.17-94.07,94.4
		c-24.17,25.49-23.1,46.05,2.04,72.42c19.92,20.9,39.99,41.75,61.19,61.32c17.93,16.55,17.67,32.49,6.85,53.26
		c-17.87,34.3-34.55,69.42-48.64,105.4c-8.74,22.33-21.61,30.92-44.9,30c-32.16-1.27-64.43-0.87-96.63-0.13
		c-33.51,0.76-48.71,15.75-49.25,49.14c-0.72,44.42-0.6,88.87-0.07,133.3c0.44,37.44,14.58,51.5,52.96,52.62
		c28.86,0.84,57.77,0.7,86.64,0.16c22.21-0.41,33.71,9.42,40.52,30.94c11.68,36.87,24.83,73.51,40.75,108.71
		c10.45,23.1,7.6,39.48-10.35,56.23c-23.54,21.97-45.87,45.22-68.72,67.93c-22.34,22.21-21.71,45.32-0.7,67.33
		c31.44,32.93,63.23,65.59,96.09,97.1c24.52,23.52,48.54,22.81,73.31-0.71c20.13-19.11,40.07-38.58,58.36-59.42
		c17.67-20.13,34.64-22.2,58.35-9.3c32.96,17.93,67.44,33.43,102.34,47.28c21.53,8.54,32.26,20.05,31.23,44.1
		c-1.43,33.26-1.04,66.66-0.12,99.96c0.87,31.51,16.05,46.62,47.77,47.18c45.53,0.81,91.09,0.7,136.63,0.07
		c33.75-0.47,48.95-14.84,50.38-48.32c1.28-29.94,1.03-59.99,0.32-89.96c-0.57-23.83,10.06-35.36,33-42.32
		c35.91-10.9,71.27-24.35,105.56-39.62c22.31-9.94,39.09-10.03,56.35,8.94c21.66,23.79,44.82,46.28,68.17,68.46
		c24.9,23.65,44.79,23.86,69.45,0.37c31.36-29.88,62.13-60.4,92.45-91.33c27.91-28.48,27.4-51.48-1.01-80.48
		c-19.43-19.83-39.06-39.52-59.47-58.33c-16.54-15.23-17.95-30.24-7.68-50.28c18.64-36.4,33.22-74.95,52.91-110.72
		c6.54-11.88,22.85-24.04,35.92-25.56c31.79-3.69,64.29-0.97,96.51-1.29c40.35-0.4,54.96-14.23,55.37-53.22
		c0.46-43.32,0.53-86.65-0.03-129.97c-0.46-35.76-14.62-50.53-50.27-51.87c-28.84-1.08-57.77-0.96-86.63-0.2
		c-23.26,0.61-36.15-8.29-43.42-31.64c-11.48-36.9-25.24-73.32-41.14-108.54c-9.92-21.98-6.76-37.35,9.96-53.31
		c23.29-22.23,45.73-45.39,67.87-68.77c24.1-25.45,25.24-44.64,1.78-69.48c-31.26-33.09-63.62-65.2-96.66-96.53
		c-24.64-23.37-44.89-22.94-70.06,0.31c-21.21,19.58-42.12,39.66-61.38,61.12c-18.41,20.52-36.15,20.57-58.61,6.83
		c-20.69-12.66-42.98-23-65.28-32.7C886.34,229.27,886.21,229.59,886.2,155.59z"/>
	<path class="st0" d="M567.82,1033.41c-2.9,21.99-4.97,44.5-32.91,42.27c-24.69-1.98-25.88-22.64-29.08-41.81
		c-16.15-97.03-14.97-83.12,73.81-103.84c18.91-4.41,41.52-10.18,46.95,14.34c2.93,13.2-9.85,29.88-16.75,48.17
		c57.35,49.35,176.78,56.47,258.97,17.31c138.71-66.08,201.86-225.25,144.15-367.2c-7.35-18.08-16.14-38.27,8.78-47.93
		c24.35-9.44,32.05,11.27,40.1,28.93c82.91,182-37.57,413.39-237.78,456.42C738.86,1098.38,672.72,1086.65,567.82,1033.41z"/>
	<path class="st0" d="M927.2,458.85c3.21-23.43,8.08-51.55,36.43-37.05c31.16,15.93,18.94,53.39,22.4,81.6
		c1.53,12.46-6.04,34.95-14.8,38.1c-27.76,9.99-57.87,14.51-87.44,17.68c-7.37,0.79-20.77-10.2-22.95-18.11
		c-2.17-7.89,4.78-19.76,10.59-27.84c3.69-5.13,12.58-6.52,23.33-11.56c-98.46-51.84-193.53-49.07-286.05,1.16
		c-124,67.31-172.44,193.82-130.33,329.1c3.62,11.63,11.5,23.24,10.91,34.52c-0.69,13.15-8.53,25.92-13.27,38.85
		c-11.41-6.2-29.36-9.67-33.26-19.02c-61.99-148.31-35.5-312.9,109.55-410.2C670.7,396.68,796,389.6,927.2,458.85z"/>
</g>
</svg>
