<svg id="Layer_1" data-name="Layer 1" xmlns="http://www.w3.org/2000/svg" viewBox="0 0 1500 1500"><defs><style>.cls-1{fill:#284b63;}</style></defs><path class="cls-1" d="M1393.55,587.22c-3.53,95.12,0,190.59-8.26,285.31-18.19,209.6-123,366.69-300.73,476.65-99.72,61.69-206.84,107.64-316.68,147.5-10.89,4-25.67,4.63-36.34.64-142.18-53.1-281.55-111.86-401.27-208.45-129.4-104.39-201.1-241.36-216.42-404.81-10-106.91-7.74-215-9.63-322.62-1.29-72.89,1.25-145.86-.86-218.71-1.19-41.06,13.57-65.43,51.93-82.52,189-84.16,376.76-171,565.77-255.08,15.82-7,40.26-6.75,56.17.33,189.76,84.46,378.41,171.39,568,256.24,35.25,15.77,49.62,38.64,48.85,76.86-1.67,82.82-.52,165.69-.52,248.54C1394.6,587.14,1392.51,587.18,1393.55,587.22ZM212.07,613.64h0c0,80.32.69,160.91,5.81,240.89,9.28,145,68.43,266.24,185.58,356.28,101.65,78.13,217.44,128.87,336,174.18,6.76,2.58,16.47,1,23.66-1.68,98.59-37.12,194.2-80.49,282.72-138.25,143.47-93.63,226.41-225.37,233.84-396.87,6.92-159.62,4-319.67,6.12-479.52.22-15.68-8.89-19.14-19.48-23.95-166.55-75.59-333-151.48-499.83-226.37-9.73-4.37-24.76-4.73-34.39-.4C564.5,193.17,397.45,269.64,229.94,345.08c-14.7,6.62-18.36,14.82-18.22,29.94C212.46,454.56,212.07,534.1,212.07,613.64Z"/><path class="cls-1" d="M747.13,1125.28c-67,0-134.06.34-201.09-.11-76.54-.5-120-44.55-120-120.68q0-149,.06-298.07c.1-65.31,29.88-103.21,94.29-117.15,16.34-3.54,14.33-13.35,13.8-23.68C531.62,515,538,466.84,565,422.34c49.44-81.52,146.4-120.65,240.65-95.84,89.67,23.61,155.25,107,157.52,200.25.1,4.14,0,8.28.11,12.42.22,14.05-4.42,31.33,2.12,41.19,6,9,24.3,9.33,36.75,14.51,44.34,18.48,68.18,52.93,68.8,100.06,1.42,107.62,1.29,215.27.18,322.89-.65,62.72-47.42,106.46-113,107.27C887.82,1126,817.47,1125.29,747.13,1125.28Zm214.41-109.34V696.43H536.23v319.51Zm-109.16-430c13.13-63.81-2.86-113.82-44.21-141.1-38.17-25.19-86.09-23.92-123.45,3.27-37.92,27.6-53.34,81.2-39.05,137.83Z"/><path class="cls-1" d="M747.87,909c-30-.41-53.46-24.36-52.92-54.08s24.76-52.73,54.76-52.32a53.14,53.14,0,0,1,52.84,54.18C801.93,886.83,778.25,909.44,747.87,909Z"/></svg>