<?xml version="1.0" encoding="utf-8"?>
<!-- Generator: Adobe Illustrator 25.0.0, SVG Export Plug-In . SVG Version: 6.00 Build 0)  -->
<svg version="1.1" id="Layer_1" xmlns="http://www.w3.org/2000/svg" xmlns:xlink="http://www.w3.org/1999/xlink" x="0px" y="0px"
	 viewBox="0 0 1500 1500" style="enable-background:new 0 0 1500 1500;" xml:space="preserve">
<style type="text/css">
	.st0{fill:#284B63;}
</style>
<g>
	<path class="st0" d="M1285.9,825.9c-32-156.2-129.5-245.8-288-269.3c-64.8-9.6-129.7-12.7-195.1-12.2c-19.4-0.2-38.8-0.5-58.3-0.7
		c-5.8,0-11.5,0-17.3,0c-83.5-1.2-167.2-0.4-249.2,16.2c-125.7,25.6-214.8,94.6-254.7,221.2c-26.5,84-29.1,169.7-25.2,256.1
		c9.8,211.3,207.4,423.1,418.5,449.8l0,0c25,12.5,52.6,9.6,79,12.6c23.8,2.6,40.5-11.8,35.5-35.5c-14.6-69.5-21.3-144.3-97.6-180.9
		l0,0c-10.5-9.3-20.8-18.9-31.6-27.9c-77.1-64.1-138.9-139.7-168.3-236.9c-23.2-76.7-7.4-161,57.7-199.1
		c75.2-44,166.8-36.1,226.7,21c18.8,35.3,39.9,38.3,59.4,6.8c11.8-19,26.3-33.4,46.9-41c71.4-26.3,140.3-20.6,201.4,25.6
		c57.3,43.3,59.8,106,48.3,170.2c-3.4,19.3-10.9,38.2-19,56.2c-40,89.1-102.8,161.7-183.1,213.7c-69.1,44.7-90.4,108.7-102.7,180.9
		c-6.5,38.3,4.7,49.1,43.5,45.9c161-13.3,291.4-84.4,389.8-211.6C1309.9,1148.3,1319.5,989.8,1285.9,825.9z M720.9,837.6
		c0.5-0.6,1-1.3,1.5-1.9C721.9,836.3,721.4,837,720.9,837.6z M1086.1,1319.6c-67.7,59.5-153.5,99.1-245.7,111.2
		c5.3-41.2,20.1-72.2,56-97.3c84.8-59.1,155.7-132.8,204.9-224.6c30.4-56.8,50.1-117.9,41-183.3c-23.1-165.8-222.5-255-366.9-165.4
		c-12.2,7.5-22.5,22.9-40.3,11.8c-17.3,16.9-1.4,42-11.1,60.7c-0.3,0.7-0.7,1.3-1.1,2c0.4-0.7,0.8-1.3,1.1-2
		c9.6-18.8-6.3-43.9,11-60.7c-71.3-55-192-58.3-275.8-7.6c-74.3,44.9-112.6,139-94.5,232.6c29.9,154.8,127.9,260.5,251.2,347.8
		c18.6,13.5,27,32.7,35.7,53.7c13.5,32.8-0.5,35.1-26.4,30.5c0,0,0,0,0,0c-146.7-38.7-263.1-117.6-327-258.7
		c-63.2-139.6-55.2-282.3,7.3-419.1C355.9,641.3,462,621.2,569.1,611.7c52.1-4.6,104.5-4.8,156.8-7c0,0,0,0,0,0
		c84.7,6.1,170-0.3,254.4,13.1c144.8,23,216.5,87.5,245,230.3C1261.4,1028.8,1231.7,1191.6,1086.1,1319.6z"/>
	<path class="st0" d="M624.8,441.5c55,36.9,116.2,43.1,178,28.2c98.6-23.8,161.5-88.4,179.2-188c17.9-100.9-16.7-185.6-104.8-241.5
		c-90-57.2-181-52.3-269,7.8c7.8,23.2,9.7,47.2,9.8,71.4c106.9-100.6,251.4-53.2,294.6,58c27.7,71.3,2.9,154.8-59.4,201.5
		c-62.8,47.1-148.1,47.4-208.5,0.8c-5.6-4.3-11.6-8.2-17.4-12.2c-70.2-92.8-72.4-150.1-9.3-248.1c-0.1-24.2-2-48.2-9.8-71.4
		C476.5,138.7,474.9,353.8,624.8,441.5z"/>
</g>
</svg>
