<?xml version="1.0" encoding="utf-8"?>
<!-- Generator: Adobe Illustrator 25.0.0, SVG Export Plug-In . SVG Version: 6.00 Build 0)  -->
<svg version="1.1" id="Layer_1" xmlns="http://www.w3.org/2000/svg" xmlns:xlink="http://www.w3.org/1999/xlink" x="0px" y="0px"
	 viewBox="0 0 1500 1500" style="enable-background:new 0 0 1500 1500;" xml:space="preserve">
<path d="M988.1,1143.4c28.3,12.2,48.9,19.6,68.1,29.6c45.7,23.7,94.4,43.8,135.3,74.1c98.5,72.8,124.7,179.6,125,295.6
	c0.1,21.9-15.3,24.4-32.6,24.6c-80.2,0.6-160.4,1.7-240.7,2.1c-270,1.1-540.1,1.9-810.1,2.7c-47.6,0.1-49.8-2.3-49.6-49.8
	c0.8-172.9,87.5-287.3,264.2-349.2c19-6.7,37.2-15.5,51.2-21.4c-52.7-20.2-107.1-34.3-154.7-60.7c-96.2-53.2-138.3-154.9-115.5-262
	c29.9-140.3,57.6-281.1,91.8-420.3c25.7-104.6,77-196.5,163.4-265.5c88.9-71,191-90.3,301.6-79.5c199.5,19.5,351.8,155.9,402,399.3
	c24.7,119.6,51,238.9,76.5,358.3c31.4,147.5-58,281.4-207.7,310.9C1036.9,1135.9,1017.4,1138.6,988.1,1143.4z M961.2,1105.1
	c14.8,0,28.3,0.9,41.7-0.2c13.4-1.1,26.7-3.8,40-6.4c137.4-26.8,212.5-135.2,186-272.4c-21.9-113.4-46.4-226.3-70.9-339.2
	c-20.4-94.2-53.1-182.4-117.9-257.4C912.3,81.9,665.7,51.6,509.9,168.2c-82.9,62-131.4,148.5-155.4,246.5
	c-33.4,136-63.1,273.1-89,410.7c-29.7,157.9,84.6,285.8,245,279.4c8.7-0.3,20.6-4.6,25-11c14.9-21.9,10.2-86.3-7.4-105.5
	c-45.1-49.1-75.9-105.7-95.1-169.3c-2.8-9.4-11.3-20.8-19.9-24.1c-47.7-18.2-69.2-56.1-78.2-102.2c-11-56,18.5-144.7,96.8-145
	c173.7-0.7,309.7-80.9,417.9-213.1c7.3-8.9,17.6-15.2,26.6-22.7c6.9,10.6,14.7,20.7,20.6,31.9c20.8,39.5,36.6,82.5,62.5,118.4
	c30.7,42.7,67.8,84.6,126.7,85.9c33.1,0.7,52.9,15.4,68.1,41c42.2,71,16.3,160.3-56.5,204.9c-14.1,8.6-23.3,26.8-32.2,42.1
	c-26.3,45.4-44.7,97.5-78.8,135.8C949.4,1013.5,943.2,1052.6,961.2,1105.1z M861.2,376.9C742.5,509.5,608,573.4,425,583.3
	c-11.4,0.6-26.1,4.9-32.9,12.9c-46.3,54.1-24.5,151.7,39.9,169.1c11.8,3.2,23.6,17.2,29.4,29.1c18.6,38.1,30.2,80.1,52.1,116.1
	c88.8,146.2,259.9,182.8,396.4,86c67-47.5,108-113.9,127.5-193c4.6-18.7,11.2-27.4,29.9-34.2c63.9-22.9,92.4-105.4,56.7-162.2
	c-6.7-10.7-21.7-22.8-33-23c-55.5-1.1-97.9-28.7-130.8-67.8C923.7,473.1,894,423.9,861.2,376.9z M491.6,1194.5
	C297,1257,186.7,1398.4,222.4,1535.9c353.2,0,706,0,1060.6,0c-1.4-62.4-11.7-119.3-37.3-172.9c-42.2-88.5-123.3-127-207.3-162.2
	c-20.4-8.6-31.8-7.1-46.5,13.3c-78.7,109.7-195.9,149.4-327.2,115.9C586.7,1310.1,533.7,1259.2,491.6,1194.5z M916.5,1035
	c-115.8,69.3-227.1,66.4-339.4-3.2c4,61.1-16.6,108.1-53.9,146.9c104.4,182.3,372.5,157.5,451-3.9
	C933.4,1139.9,912.9,1095.4,916.5,1035z"/>
</svg>
