<?xml version="1.0" encoding="utf-8"?>
<!-- Generator: Adobe Illustrator 25.0.0, SVG Export Plug-In . SVG Version: 6.00 Build 0)  -->
<svg version="1.1" id="Layer_1" xmlns="http://www.w3.org/2000/svg" xmlns:xlink="http://www.w3.org/1999/xlink" x="0px" y="0px"
	 viewBox="0 0 1500 1500" style="enable-background:new 0 0 1500 1500;" xml:space="preserve">
<style type="text/css">
	.st0{fill:none;stroke:#000000;stroke-width:2;stroke-linecap:round;stroke-linejoin:round;stroke-miterlimit:10;}
	.st1{fill:none;stroke:#000000;stroke-width:18.3826;stroke-linecap:round;stroke-linejoin:round;stroke-miterlimit:10;}
</style>
<g>
	<path class="st1" d="M155.1,1474.4c-2.1-157.3,95.8-250.3,218.5-318c92.4-51,181.8-98.2,204.3-211.3c248.5,95.6,374.5,21,485-174.7
		c120.5-213.4,113.3-211.7-9.7-448.8c-51.4-99-126.4-125.4-219.5-110.6c-47.9,7.6-95.4,12.6-141.1,7.9
		c-149.4-15.4-228.2,23.4-280.7,155.6c-16.7,41.9-36.1,79.6-59.2,118.2c-27,45.1-50,130.1-3,172.7
		c88.1,79.8,111.2,207.3,214.8,271.7"/>
	<path class="st1" d="M1114.6,15.9c-22.7,126.9-88.3,75.3-153.7,38.8c-179.1-100-436.1-68-576,140c-59.8,88.9-69.3,181.9-37.9,281.8
		"/>
	<path class="st1" d="M922.7,975.4c39.9,94.2,122.7,143.2,204.9,191.6c128.1,75.3,219.9,173,217.3,333"/>
	<path class="st1" d="M474.9,1129c201.9,143.6,353.7,143.6,537.3,0"/>
	<path class="st1" d="M1089,195c94,67.1,85.5,159.9,64,255.9"/>
</g>
</svg>
