<?xml version="1.0" encoding="utf-8"?>
<!-- Generator: Adobe Illustrator 25.0.0, SVG Export Plug-In . SVG Version: 6.00 Build 0)  -->
<svg version="1.1" id="Layer_1" xmlns="http://www.w3.org/2000/svg" xmlns:xlink="http://www.w3.org/1999/xlink" x="0px" y="0px"
	 viewBox="0 0 1500 1500" style="enable-background:new 0 0 1500 1500;" xml:space="preserve">
<style type="text/css">
	.st0{fill:none;stroke:#000000;stroke-width:18.5667;stroke-linecap:round;stroke-linejoin:round;stroke-miterlimit:10;}
	.st1{fill:none;stroke:#000000;stroke-width:2;stroke-linecap:round;stroke-linejoin:round;stroke-miterlimit:10;}
	.st2{fill:none;stroke:#000000;stroke-width:18.3826;stroke-linecap:round;stroke-linejoin:round;stroke-miterlimit:10;}
	.st3{fill:none;stroke:#000000;stroke-width:18.5756;stroke-linecap:round;stroke-linejoin:round;stroke-miterlimit:10;}
	.st4{fill:none;stroke:#000000;stroke-width:18.5795;stroke-linecap:round;stroke-linejoin:round;stroke-miterlimit:10;}
	.st5{fill:none;stroke:#000000;stroke-width:18.7186;stroke-linecap:round;stroke-linejoin:round;stroke-miterlimit:10;}
</style>
<g>
	<path class="st3" d="M1067.3,1021.7c73.5-6.1,146.9-12.2,230.3-19.2c-63.7-188.6-34.3-378.5-62.9-562.5
		C1182.8,105.8,996.5-0.8,808.7,0C469.6,1.5,264.8,198.4,253.9,543.3c-4.8,152.8-15.4,303.9-55.9,451
		c73.8,31.9,148.6,27.3,222.9,27.3"/>
	<path class="st3" d="M1015.6,284.7C914,479,908.4,481.4,732.2,348c-30.6-23.2-47.7-64.1-78.6-107.4
		C545,362,476.9,479.5,345.7,535.9c-36.3,15.6-36,127.8,0.3,143.4c74.2,31.9,79.7,99.1,111.8,149.7c147.3,232,445.4,225,586.4-12.5
		c26.9-45.3,28.8-104.4,97.8-137c68.4-32.3,33.4-142-49.3-159.9c-35.2-7.6-65.8-14.1-90-40.9"/>
	<path class="st3" d="M330.4,1215.6c30.2,38.8,56.3,81.8,91.3,115.6c103.4,99.9,208.3,85,296.6-38"/>
	<path class="st3" d="M1157.8,1215.6c-12.9,21.5-23.2,45.3-39.2,64.3c-128,152.2-202.2,154.7-348.7,13.3"/>
	<path class="st3" d="M1351.7,1500c-6.4-167.2-99.5-268.1-244.7-338c-77.7-37.4-146.2-94.2-181.9-179.1"/>
	<path class="st3" d="M576,982.9c-48.4,110.7-162.6,148.3-247,218.1c-97.1,80.3-192.1,155.6-179.6,299"/>
	<path class="st3" d="M1028.5,1138c-70.3,63.3-157.8,90.2-245.6,116.4"/>
	<path class="st3" d="M459.7,1138c70.3,63.3,157.8,90.2,245.6,116.4"/>
</g>
</svg>
