<?xml version="1.0" encoding="utf-8"?>
<!-- Generator: Adobe Illustrator 25.0.0, SVG Export Plug-In . SVG Version: 6.00 Build 0)  -->
<svg version="1.1" id="Layer_1" xmlns="http://www.w3.org/2000/svg" xmlns:xlink="http://www.w3.org/1999/xlink" x="0px" y="0px"
	 viewBox="0 0 1500 1500" style="enable-background:new 0 0 1500 1500;" xml:space="preserve">
<path d="M965.3,1164.6c46.9,29,96.1,55,140.5,87.6c88.3,64.8,127.3,155.7,128.8,264.2c0.3,22.4-7.5,31-30.6,31.1
	c-300.4,1.3-600.6,2.9-901,5.3c-29.5,0.3-37.9-13.1-37.6-39.4c1.9-121.1,52.8-216.3,153.3-282.9c38.8-25.8,82.4-44.5,117.2-63
	c-56-14.2-118.9-27.4-179.9-46.5c-57-17.9-52.8-20.3-46.7-80.3c11.1-110.5,18.9-221.4,26.4-332.2c9.3-138.5,54.6-260.8,168-346.5
	c111-84,235.9-95.2,368.7-57.9c175.5,49.3,258.4,172.6,280.3,344c11.2,87.6,17.8,176.2,18.7,264.4c1.3,127.4-65,209.4-188.1,245.4
	C976.7,1159.7,970.4,1162.6,965.3,1164.6z M565.3,1132.2c3.5-2.5,7.2-5.1,10.7-7.6c-6.4-15.4-8.8-35.6-20-45.4
	c-41.1-35.6-68.3-78.6-84.5-129.9c-2.8-8.9-11.3-18.9-19.7-22.8c-67.9-31.9-93.5-102.4-60.5-170.5c17-35.3,36.8-45.6,75.8-45.7
	c33.8-0.1,68.4,0.3,101-6.8C673.8,680.7,765.2,634,824.7,538c5.6-9,17.5-20,25.9-19.6c8.8,0.4,20,12,25.2,21.4
	c28.9,53.4,64,100.5,117.2,132.5c12,7.2,21.1,19.4,32.6,27.7c10.1,7.3,21.3,16.3,32.9,17.9c31.6,4.3,49.8,22,60.5,50.2
	c24.5,65.8-3.8,130.3-67.8,158.1c-9.3,4-18.3,14.6-22.1,24.2c-19.2,47.2-41.6,92.7-83.4,123.7c-20,14.8-19.1,32.5-11.1,48
	c3.5,6.8,25.3,8.8,37.1,6c107.9-26.4,171.3-104.2,168.5-220c-2.3-95.3-9.7-191.4-25.6-285.3c-24.8-146.5-105.8-249.8-256-287.4
	c-140.4-34.9-270.9-23-375.3,89.5C404.3,510,371.6,613.4,365.8,728.8c-5.5,110.7-18.7,221.1-27.6,331.7c-0.6,7.7,4.2,20.6,10,23.2
	C417.4,1114.3,490.4,1128.3,565.3,1132.2z M847.9,569c-22,22.3-44.1,50-71.2,71.4c-90.1,71.2-192.4,107.9-308.6,102.3
	c-13.1-0.6-30.8,2.5-38.9,11.1c-38,40.3-19.3,122.8,32.5,140.5c22.4,7.7,32.7,19,39.4,40.7c35.1,112.1,130.4,182.3,246.3,183.4
	c113.3,1.1,215.7-73,251-183.2c6.9-21.5,16.5-33.8,39.8-40.1c50.6-13.7,74.7-81.4,46-125.7c-5.1-8-17.1-12.4-26.7-16.6
	c-13.8-6.1-30.5-7.6-42.3-16.1c-26.3-18.9-52.2-39.2-74.7-62.3C907.6,640.1,877.6,602.9,847.9,569z M1200.3,1519.8
	c17.7-124.7-80.1-251.7-242.4-317.6c-1.7,1.2-3.6,2.2-4.9,3.7c-2.7,3.1-4.9,6.6-7.5,9.8c-50.1,61.3-105.1,111.9-194,90
	c-6.7-1.6-14.5-0.2-21.4,1.6c-48.3,12.7-90.2-1.8-125.3-33.9c-22.4-20.5-40.3-45.9-60.8-69.6c-155.8,54.9-261.2,182.5-243.4,315.9
	C600.6,1519.8,900.6,1519.8,1200.3,1519.8z M607.8,1114.9c-7.9,20.1-16.1,37.6-21.6,56c-2.8,9.3-4.5,22.2-0.2,29.8
	c9.6,16.8,22,32.4,35.7,46.1c30.7,30.7,70,31.7,111.1,35.5c79.4,7.1,140.5-17.9,183.7-84.5c4.5-6.8,5.5-19,2.7-26.9
	c-6.7-19.7-16.6-38.3-25.9-58.9C798.7,1162.3,703,1163.5,607.8,1114.9z"/>
</svg>
