<?xml version="1.0" encoding="utf-8"?>
<!-- Generator: Adobe Illustrator 25.0.0, SVG Export Plug-In . SVG Version: 6.00 Build 0)  -->
<svg version="1.1" id="Layer_1" xmlns="http://www.w3.org/2000/svg" xmlns:xlink="http://www.w3.org/1999/xlink" x="0px" y="0px"
	 viewBox="0 0 1500 1500" style="enable-background:new 0 0 1500 1500;" xml:space="preserve">
<g>
	<path d="M314,552c-2.4-148.6,19.3-287.4,135.7-391.3C524.6,93.7,614.4,58.7,714.4,52C853.5,42.5,975,80,1071.3,186.4
		c94.4,104.4,113.9,230.9,107.9,364.1c103.8,11.4,117.1,28.3,108.3,133.8c-6.9,83.5-51.6,135-132.5,155.8
		c-8.5,2.2-17.6,13.3-21.1,22.3c-26.3,68-70.8,121.1-128.2,164.9c-8.8,6.7-19.5,22.4-17,29.8c3.5,10.5,17.1,21.2,28.7,24.8
		c93.1,29.2,175.9,74,245.2,144.5c81.9,83.4,100.4,186.8,101.5,296.9c0.3,29.4-20.8,26.6-40.5,26.5c-195.5-0.1-390.9-0.1-586.4-0.1
		c-185.2,0-370.4-1-555.5,0.8c-36.6,0.3-44.6-11.7-45.5-46.4c-5-185.6,92.3-302.2,250.3-378.9c34.4-16.7,70.7-29.2,106-44.1
		c29.6-12.5,32.5-25.4,7.6-45.8c-59.5-48.8-107.3-106-138.8-176.8c-3.5-7.8-13.5-17.8-20.8-18c-75.6-2.7-119.7-88.5-125.9-157.1
		c-0.9-10.2-0.4-20.6-0.3-30.8C214.7,571,227.8,557.2,314,552z M1141,510.6c1.1-0.1,2.2-0.2,3.3-0.4c-4.4-42-4.6-84.9-14-125.8
		C1077,151.8,865.6,69.3,688.8,95.3C435.8,132.5,325.4,345,359,559.9c4.5,28.6-6.4,37.7-33.7,34.9c-69.5-7.2-72.5-4.1-72.4,65.4
		c0,6.4-0.3,12.9,0.2,19.3c4.6,72.6,38.7,108.9,109.9,122.5c11.3,2.2,23.3,17.9,28.9,30.2c28.9,63.9,64.5,122.7,122.6,164.2
		c86.3,61.7,178.9,110.5,288.8,84.3c141.8-33.8,251.4-111.7,305.2-253.3c7.6-19.9,17.1-29.2,39-27c36.8,3.7,65.1-15.8,76.3-47
		c13.9-38.6,20-80.6,25.1-121.7c3.5-28.3-14.3-41.3-43.4-39.7c-20.4,1.2-51.1,7.4-58.9-2.8c-10.8-14.1-4.6-41.4-5.6-63.1
		C1140.8,520.9,1141,515.8,1141,510.6z M1322.6,1512.5c22.7-224.2-173-363.9-323.1-388.6C946.1,1228,859,1281.5,744.2,1286.2
		c-119.6,4.9-206.6-48.3-251.1-160.8c-245.6,78-336.9,239.2-313.4,387C559.6,1512.5,939.8,1512.5,1322.6,1512.5z M550.9,1064.4
		c-5.7,26.3-18.9,50-12.1,64.1c13.9,28.9,34,58.8,59.5,77.3c104.8,75.9,265.8,47.5,344.2-55.9c21.1-27.8,27.4-53.9,1.4-83.7
		C817.5,1142.2,689,1147.1,550.9,1064.4z"/>
</g>
</svg>
