<?xml version="1.0" encoding="utf-8"?>
<!-- Generator: Adobe Illustrator 25.0.0, SVG Export Plug-In . SVG Version: 6.00 Build 0)  -->
<svg version="1.1" id="Layer_1" xmlns="http://www.w3.org/2000/svg" xmlns:xlink="http://www.w3.org/1999/xlink" x="0px" y="0px"
	 viewBox="0 0 1500 1500" style="enable-background:new 0 0 1500 1500;" xml:space="preserve">
<g>
	<path d="M383.4,705.3c-2-125,16.2-241.7,114.1-329c63-56.3,138.5-85.8,222.6-91.4c117-8,219.1,23.5,300.1,113
		c79.4,87.8,95.8,194.2,90.7,306.2c87.3,9.6,98.5,23.8,91.1,112.5c-5.8,70.2-43.4,113.5-111.4,131c-7.1,1.8-14.8,11.2-17.7,18.8
		c-22.1,57.2-59.5,101.8-107.8,138.7c-7.4,5.6-16.4,18.8-14.3,25.1c2.9,8.8,14.4,17.8,24.1,20.9c78.3,24.6,147.9,62.2,206.2,121.5
		c68.9,70.1,84.4,157.1,85.3,249.7c0.3,24.7-17.5,22.4-34.1,22.3c-164.4-0.1-328.7-0.1-493.1-0.1c-155.7,0-311.5-0.8-467.1,0.7
		c-30.8,0.3-37.5-9.8-38.3-39c-4.2-156.1,77.6-254.1,210.5-318.6c28.9-14,59.4-24.6,89.1-37.1c24.9-10.5,27.3-21.4,6.4-38.5
		c-50-41-90.2-89.1-116.7-148.7c-2.9-6.6-11.4-15-17.5-15.1c-63.6-2.3-100.7-74.4-105.9-132.1c-0.8-8.6-0.3-17.3-0.3-25.9
		C299.9,721.3,310.9,709.7,383.4,705.3z M1078.8,670.5c0.9-0.1,1.8-0.2,2.8-0.3c-3.7-35.3-3.9-71.4-11.8-105.8
		c-44.8-195.6-222.6-265-371.2-243.1C485.8,352.6,393,531.3,421.2,712c3.8,24-5.4,31.7-28.3,29.3c-58.4-6.1-61-3.4-60.9,55
		c0,5.4-0.3,10.8,0.2,16.2c3.9,61,32.5,91.6,92.4,103c9.5,1.8,19.6,15.1,24.3,25.4c24.3,53.7,54.2,103.2,103.1,138.1
		c72.6,51.9,150.4,92.9,242.8,70.9c119.2-28.4,211.4-93.9,256.6-213c6.4-16.7,14.4-24.6,32.8-22.7c30.9,3.1,54.7-13.3,64.2-39.5
		c11.7-32.5,16.8-67.8,21.1-102.3c2.9-23.8-12-34.7-36.5-33.4c-17.2,1-43,6.2-49.5-2.4c-9.1-11.9-3.9-34.8-4.7-53.1
		C1078.6,679.2,1078.8,674.9,1078.8,670.5z M1231.5,1513c19.1-188.5-145.5-306-271.7-326.8c-44.9,87.5-118.1,132.5-214.7,136.5
		c-100.6,4.1-173.7-40.6-211.1-135.2c-206.5,65.6-283.3,201.1-263.5,325.4C589.9,1513,909.6,1513,1231.5,1513z M582.6,1136.2
		c-4.8,22.1-15.9,42-10.2,53.9c11.7,24.3,28.6,49.4,50,65c88.1,63.8,223.5,39.9,289.4-47c17.7-23.4,23-45.3,1.2-70.4
		C806.8,1201.6,698.7,1205.7,582.6,1136.2z"/>
</g>
</svg>
