<?xml version="1.0" encoding="utf-8"?>
<!-- Generator: Adobe Illustrator 25.0.0, SVG Export Plug-In . SVG Version: 6.00 Build 0)  -->
<svg version="1.1" id="Layer_1" xmlns="http://www.w3.org/2000/svg" xmlns:xlink="http://www.w3.org/1999/xlink" x="0px" y="0px"
	 viewBox="0 0 1500 1500" style="enable-background:new 0 0 1500 1500;" xml:space="preserve">
<style type="text/css">
	.st0{fill:none;stroke:#000000;stroke-width:2;stroke-linecap:round;stroke-linejoin:round;stroke-miterlimit:10;}
	.st1{fill:none;stroke:#000000;stroke-width:18.3826;stroke-linecap:round;stroke-linejoin:round;stroke-miterlimit:10;}
	.st2{fill:none;stroke:#000000;stroke-width:18.5795;stroke-linecap:round;stroke-linejoin:round;stroke-miterlimit:10;}
</style>
<g>
	<path class="st2" d="M1086.2,417.3c37-273.8-134.8-445.6-400.9-400.9C496,48.3,359.3,294.4,426.7,482"/>
	<path class="st2" d="M918.1,921.6c71.9-80.7,86.8-192.2,164-275.4c76.7-82.5-26.3-266.1-164-319.5
		c-61.3,112.5-104.3,108.9-316.2-29.7c-32.8,75.4-90,131.8-150.1,184c-63.4,55-79.2,107.5-12.2,168.9c27,24.7,40.6,56,52.3,90.3
		c60.6,176.6,177.3,279.8,413.2,181.2"/>
	<path class="st2" d="M581.9,934.6c-17.7,120.3-93.8,177.5-206.5,208.3C192.2,1193,47.2,1290.7,0,1490.6"/>
	<path class="st2" d="M918.1,934.6c20.1,109.2,77.4,167.3,192.8,198.3c184.7,49.7,341.5,149.5,389.1,357.7"/>
	<path class="st2" d="M439.7,1154.4c39.9,86.9,106.1,150.7,169.8,205.5c99.8,12.9,96.2-88.2,153.5-114.9"/>
	<path class="st2" d="M1060.3,1154.4c-42.6,92.8-115.1,159.1-188.6,221.6c-56.5-17.9-65.4-71-95.9-105.2"/>
	<path class="st2" d="M956.9,1089.7c-52.4,51.7-100.5,108.5-168.1,142.2"/>
	<path class="st2" d="M543.1,1089.7c56,47.4,112.1,94.8,168.1,142.2"/>
</g>
</svg>
