<?xml version="1.0" encoding="utf-8"?>
<!-- Generator: Adobe Illustrator 25.0.0, SVG Export Plug-In . SVG Version: 6.00 Build 0)  -->
<svg version="1.1" id="Layer_1" xmlns="http://www.w3.org/2000/svg" xmlns:xlink="http://www.w3.org/1999/xlink" x="0px" y="0px"
	 viewBox="0 0 1500 1500" style="enable-background:new 0 0 1500 1500;" xml:space="preserve">
<style type="text/css">
	.st0{fill:none;stroke:#000000;stroke-width:18.5667;stroke-linecap:round;stroke-linejoin:round;stroke-miterlimit:10;}
	.st1{fill:none;stroke:#000000;stroke-width:2;stroke-linecap:round;stroke-linejoin:round;stroke-miterlimit:10;}
	.st2{fill:none;stroke:#000000;stroke-width:18.3826;stroke-linecap:round;stroke-linejoin:round;stroke-miterlimit:10;}
	.st3{fill:none;stroke:#000000;stroke-width:18.5756;stroke-linecap:round;stroke-linejoin:round;stroke-miterlimit:10;}
	.st4{fill:none;stroke:#000000;stroke-width:18.5795;stroke-linecap:round;stroke-linejoin:round;stroke-miterlimit:10;}
	.st5{fill:none;stroke:#000000;stroke-width:18.5194;stroke-linecap:round;stroke-linejoin:round;stroke-miterlimit:10;}
	.st6{fill:none;stroke:#000000;stroke-width:18.7186;stroke-linecap:round;stroke-linejoin:round;stroke-miterlimit:10;}
</style>
<g>
	<path class="st5" d="M1007.2,1229.3c37.7,64.3,7.5,154,91.3,202.3c99.4-74.9,117.8-176.9,78.3-306.1
		c-43.5-142.4-72.8-283.1-19.9-439.3c53.9-159.1,2.1-327.9-37.7-487.1c-13.4-53.6-66.3-104.6-113.3-141.1
		C862.1-53.6,705,26.3,556.7,47.7C450.4,63,402.8,166.2,391.9,263c-12.7,113-60.5,218.6-56.8,334.8c2.5,78.4,13.6,151.3,53.4,219.1"
		/>
	<path class="st5" d="M878.4,868.4c-199.8,59.1-275.5,23.3-361.7-167.2c-12.5-27.6-24.6-55-49.1-79.4
		c-63.5-63.6-60.9-147.1,13.4-187.6c91.2-49.6,115.7-136.5,168.7-209.1c120,73.8,202.8,211.2,370.2,221.3
		c80.3,4.9,69,113.4,47.3,133.6c-68.9,64.2-85.2,153.8-136.3,224.6c-64.1,88.7-39.3,173.3,63.5,244.2"/>
	<path class="st5" d="M388.6,829.8c-27.9,111.2-35.8,225.5-72.9,336.6c-32.5,97,10,194.2,93.2,276.6
		c104.7-136.5,82.8-293.9,81.5-445.6c-0.5-55.9-13.5-112.2-25.2-167.4c-9.7-45.9-33.5-52.1-63.7-13"/>
	<path class="st5" d="M1252.1,1164.9c115.9,82,212.5,175.2,193.3,335.1"/>
	<path class="st5" d="M233.9,1177.8C117.8,1253.9,40.8,1351.8,53.4,1500"/>
	<path class="st5" d="M1097.5,816.9c-20.9-10.7-45.2-40-51.8,12.9c-11.9,94.7-34.6,189-35.3,283.6c-0.5,67.5-18.3,102-79.4,131.1
		c-64.4,30.6-112.9,33-155.7-28"/>
	<path class="st5" d="M556.1,1216.4c55.9,73.9,111.7,70.6,167.6,0"/>
	<path class="st5" d="M607.7,894.2c-17,55.6-3.3,130.7-90.2,141.8"/>
	<path class="st5" d="M917,1087.5c-16.5,67.9-96,45.7-128.9,90.2"/>
	<path class="st5" d="M581.9,1087.5c16.5,67.9,96,45.7,128.9,90.2"/>
</g>
</svg>
