<?xml version="1.0" encoding="utf-8"?>
<!-- Generator: Adobe Illustrator 25.0.0, SVG Export Plug-In . SVG Version: 6.00 Build 0)  -->
<svg version="1.1" id="Layer_1" xmlns="http://www.w3.org/2000/svg" xmlns:xlink="http://www.w3.org/1999/xlink" x="0px" y="0px"
	 viewBox="0 0 1500 1500" style="enable-background:new 0 0 1500 1500;" xml:space="preserve">
<g>
	<path d="M427.3,725.5c-27.9-95-29.9-185.6,48.2-263.7c-15.5-5-27.2-8.4-38.8-12.6c-21.1-7.6-23-17-6-32.2
		c67.6-60.9,145.8-102,234.4-122.5c62-14.4,124.3-15.7,186.8-0.7c59.1,14.1,104.1,47.7,139.5,96.1c5.2,7.2,12,14.1,19.5,18.7
		c58.4,35,84.3,89.5,90.1,154.4c4.8,54.9-2.1,108.6-29.4,157.9c40.3,21.5,54.9,54.7,44.1,108.1c-11.9,58.6-33.4,111.1-98.1,131.2
		c-5.4,1.7-9.2,10.5-12.5,16.7c-18.1,34.3-38.8,67.5-52.6,103.5c-8.7,22.5-7.6,48.9-9.6,73.7c-2.4,30.9,15.9,45,42.9,54.3
		c24.7,8.6,47.9,21.4,71.9,31.8c98,42.3,137.2,122.9,140.4,223.3c2.5,78.8,12,66.5-64.5,66.6c-269.7,0.5-539.3,0.2-809,0.7
		c-15.9,0-26.3-3.9-24.5-20.5c5.3-47.2,8-95.2,19.5-140.8c11.9-47.6,43.4-84.8,87.9-107.7c39.9-20.5,81.8-37.3,121.4-58.4
		c11.8-6.2,26.1-20.6,26.9-32.2c2.5-36.8,13.4-75.9-18-108.7c-12.5-13.1-20.2-31.5-27.4-48.7c-13.1-31.2-24.3-57.2-62.8-72.3
		c-47.2-18.5-56.5-70.4-63.3-117.6c-1.1-7.6-0.1-15.3-0.3-23C383.1,767.9,393.2,740.9,427.3,725.5z M1091.9,811.1
		c0-11.2,1.4-16.9-0.2-21.4c-4.8-12.9-7.9-31.4-17.5-36.2c-8.5-4.3-25.2,5.6-37.3,11.3c-6.5,3.1-10.3,11.2-16.3,15.7
		c-5.7,4.2-13,9.3-19.1,8.8c-3.8-0.3-9.3-10.1-9.8-16c-1.8-21.2-2.2-42.5-2.6-63.8c-0.8-56.7-22.8-104-63.9-142.4
		c-9.1-8.6-17.6-15.6-32.6-4c-90.1,69.3-193.7,86.6-303.5,72.1c-52.2-6.9-67,1.9-71.3,54c-2.2,27.1-3,54.5-6.3,81.4
		c-1.1,8.8-8.3,16.9-12.7,25.3c-6.6-4.5-13.6-8.5-19.7-13.6c-8.4-7.1-15.1-16.4-24.2-22.3c-22.2-14.4-40.6-6.7-44,19.3
		c-6,45.4,0.7,89.1,30.5,125.2c9.8,11.9,27.2,22.6,42,23.9c19.5,1.6,25.6,9,30.7,25.7c18,59.7,49,111.3,96,153.5
		c85.7,76.9,195,76.9,281,0c45-40.3,77.2-87.6,93.1-145.8c4.4-16.2,9.1-28,31.4-28.9c13.6-0.5,29.2-13.4,39.6-24.7
		C1081.2,879.4,1090.6,843.3,1091.9,811.1z M978.7,1233c-28.5,21.5-48.4,39.4-71,52.7c-45.8,27-92.7,52.4-140.1,76.4
		c-9.6,4.8-24.8,3.9-35.5,0.2c-76.8-26.8-143-69.8-194.1-133.3c-179.2,67.4-209.5,114.4-211.8,277.2c282,0,563.9,0,845.8,0
		C1179.9,1336.7,1118.5,1281.6,978.7,1233z M1017.2,750.4c8.6-9.5,15.1-15.6,20.3-22.8c38.9-53.7,44.8-115.3,36.6-177.9
		c-7.1-53.7-32.5-97.7-84.7-122.3c-7.7-3.6-13.4-12.6-18.5-20c-27.4-40-63.1-68.5-110-82.3c-84.9-25-167.9-16.5-249.6,14.1
		c-55.1,20.7-104.8,50.4-150.9,90.5c9.5,2.9,15.8,5.2,22.3,6.8c38.2,10,39,13.8,12,42.2c-41,42.9-67.4,91.8-59.1,153.7
		c3.1,22.7,7.1,45.2,10.4,67.9c3.5,23.7,16.2,39.8,39.5,49.3c2.2-21.5,4.7-41.7,6.5-61.8c5.6-61,30.5-85.7,81.6-80.6
		c22,2.2,44,5.3,66,6c91.9,2.7,176.9-18,248.9-78.4c11.2-9.4,19.5-9.8,31.1-1.2c49.1,36.4,84.2,81.2,90.2,144.3
		C1012.1,700.5,1014.4,722.9,1017.2,750.4z M909.4,1123.8c-104.5,87.7-213.9,92.9-320.6-1.3c-5.4,27-6.2,54.4-16.9,77.3
		c-8.5,18.3-5.5,29.2,7,38.9c32,25.1,64.7,49.3,98.1,72.7c45.3,31.7,91.7,34.8,138.6,2.2c35.3-24.7,71.5-48.2,105.9-74.1
		c8.1-6.2,16.1-21.3,14.1-30.2C929.5,1180.5,918.7,1152.7,909.4,1123.8z"/>
</g>
</svg>
