<?xml version="1.0" encoding="utf-8"?>
<!-- Generator: Adobe Illustrator 25.0.0, SVG Export Plug-In . SVG Version: 6.00 Build 0)  -->
<svg version="1.1" id="Layer_1" xmlns="http://www.w3.org/2000/svg" xmlns:xlink="http://www.w3.org/1999/xlink" x="0px" y="0px"
	 viewBox="0 0 1500 1500" style="enable-background:new 0 0 1500 1500;" xml:space="preserve">
<path d="M404.8,1271.1c-48.4-54-77-114.8-60.1-189c16-70.4,60.6-120.3,119.4-161.1c-60.5-47.5-71.9-114.9-76-182
	c-6.4-105.5,15.1-206.3,76.6-294.5c74.1-106.4,179.9-148.3,306.9-146.6c162.7,2.1,275.2,115.2,317.6,271.2
	c24.1,88.7,34.7,178.6,6.6,269.1c-12.3,39.7-33.1,71.7-73,89.3c-7.4,3.3-14,13-16.8,21.2c-18.5,54.7-47,102.3-90.4,141.2
	c-21.1,19-17.4,64.4,10.1,87.2c21.9,18.2,48.2,32.6,74.5,43.9c69.3,30,132.7,68.1,160.8,141.5c16.4,42.8,21,90.3,29.8,135.8
	c4.6,23.9-6.8,32.6-31.3,32.6c-170.4-0.1-340.8,1-511.1,1.6c-101.2,0.3-202.3,0.4-303.5,0.6c-32.9,0-37.7-4-36.5-36.6
	C311.5,1411.5,334.5,1334.4,404.8,1271.1z M825.2,546.4c-52.9,75.4-121.7,131-200.6,175.4c-42.3,23.8-84.7,43.6-135.5,33.4
	c-8.8-1.7-22.2,1.9-28.4,8.1C425,798.6,444.8,885,492.5,899.5c15.6,4.8,19.4,13.5,25,25.9c16.3,35.9,29.2,75,52.8,105.6
	c80.6,104.6,204.3,140.3,321,43.3c46.7-38.8,73.5-89.3,92.8-145.3c3.5-9.9,9.9-22.8,18.3-26.2c48.3-19.6,76-66.8,65.4-117.8
	c-4-19.2-12.3-32.2-37.1-33.4c-18.7-0.8-40-8.7-55.1-20.1C910.9,683,866.1,617.1,825.2,546.4z M420.6,770.8
	c22.3-39.6,53.9-52.3,96.6-40.8c7.8,2.1,17.9,0.2,25.8-2.7c108.8-40.9,199.5-105.8,263.5-204.4c18-27.7,20.6-29.1,37-0.5
	C881.1,588,923.4,650,981.5,699.5c13,11.1,29,19.7,45,25.7c18,6.7,37.6,9,59.5,14c-2.1-26.7-3-57.3-7.2-87.5
	c-11.1-82.6-37.9-159.3-93-223.7c-66.6-77.8-152.2-108.7-253.1-101.5C636.4,333.4,553.5,369,495.7,448
	C425.6,543.5,404.5,652.6,420.6,770.8z M1162,1505.1c4.4-150.4-70.1-229.4-215.5-274c-42.7,64.5-99,108.4-180.2,113.3
	c-78.8,4.7-145.3-19.6-197-84.5c-4.6,98.3-80,154.1-123.4,146.2c-8.7-36.3-17.1-71.1-27.1-112.6c-64.2,63.8-82.3,134.4-82.6,211.8
	C613,1505.1,887.5,1505.1,1162,1505.1z M483.5,941.5c-14.1,11.5-31.8,24.7-48,39.7c-61.6,56.6-92.8,155.2-41.4,227
	c35.9,50.2,66.5,102.8,75.1,172.3c17.3-15.5,31.5-25.8,42.7-38.7c28.2-32.2,30.7-71.8,29.8-112.3c-0.2-9,3.6-22.7,9.9-26.2
	c24.8-13.7,37-35.4,42.2-61c5.5-27.3-5.8-47.2-24.6-69.6C536.4,1033.4,512.4,986.9,483.5,941.5z M583.1,1227.7
	c34.9,61.3,95.2,91.7,172,89.4c73.6-2.2,129.5-35.5,161-93.9c-17.6-36-32.6-66.7-48.1-98.6c-76.8,47.8-160.6,45-237.7,0.8
	C614.8,1158.9,600.1,1190.7,583.1,1227.7z"/>
</svg>
