<?xml version="1.0" encoding="utf-8"?>
<!-- Generator: Adobe Illustrator 25.0.0, SVG Export Plug-In . SVG Version: 6.00 Build 0)  -->
<svg version="1.1" id="Layer_1" xmlns="http://www.w3.org/2000/svg" xmlns:xlink="http://www.w3.org/1999/xlink" x="0px" y="0px"
	 viewBox="0 0 1500 1500" style="enable-background:new 0 0 1500 1500;" xml:space="preserve">
<path d="M330.1,1242.6c-58.9-65.7-93.7-139.7-73.1-229.9c19.5-85.6,73.7-146.4,145.2-196c-73.6-57.8-87.5-139.8-92.5-221.4
	c-7.8-128.4,18.4-251,93.2-358.3C493,107.6,621.7,56.6,776.2,58.7c197.9,2.6,334.8,140.1,386.4,329.9c29.3,107.9,42.2,217.3,8,327.4
	c-15,48.3-40.3,87.2-88.8,108.6c-9,4-17,15.8-20.4,25.8c-22.5,66.5-57.2,124.5-110,171.8c-25.7,23.1-21.2,78.3,12.3,106.1
	c26.7,22.2,58.6,39.6,90.6,53.4c84.3,36.5,161.4,82.9,195.6,172.1c20,52.1,25.6,109.8,36.3,165.2c5.6,29.1-8.3,39.6-38.1,39.6
	c-207.3-0.1-414.6,1.2-621.8,1.9c-123.1,0.4-246.1,0.5-369.2,0.7c-40,0-45.9-4.9-44.4-44.5C216.6,1413.3,244.6,1319.6,330.1,1242.6z
	 M841.5,360.9c-64.4,91.7-148.1,159.4-244,213.4c-51.5,29-103,53-164.8,40.6c-10.7-2.1-27,2.3-34.6,9.8
	c-43.4,43.1-19.4,148.1,38.7,165.8c19,5.8,23.6,16.4,30.4,31.5c19.8,43.7,35.5,91.2,64.2,128.5c98,127.2,248.5,170.7,390.5,52.7
	c56.8-47.2,89.4-108.6,112.9-176.8c4.2-12,12.1-27.7,22.3-31.9c58.8-23.9,92.5-81.3,79.6-143.3c-4.9-23.4-15-39.2-45.1-40.6
	c-22.8-1-48.6-10.6-67-24.4C945.7,527.1,891.3,447,841.5,360.9z M349.3,633.9c27.1-48.2,65.6-63.6,117.5-49.6
	c9.5,2.6,21.8,0.3,31.4-3.3c132.4-49.8,242.7-128.7,320.6-248.7c21.9-33.7,25.1-35.4,45-0.6c45.7,79.9,97.2,155.3,167.8,215.5
	c15.8,13.5,35.3,24,54.8,31.3c21.9,8.2,45.7,11,72.4,17c-2.5-32.5-3.7-69.7-8.7-106.4C1136.6,388.6,1104,295.3,1037,217
	C956,122.4,851.8,84.8,729.1,93.5c-117.3,8.3-218.1,51.7-288.5,147.8C355.4,357.4,329.7,490.1,349.3,633.9z M1251.2,1527.2
	c5.4-183-85.3-279.1-262.2-333.3c-51.9,78.5-120.4,131.9-219.2,137.8c-95.8,5.7-176.7-23.8-239.7-102.8
	c-5.6,119.6-97.3,187.5-150.1,177.8c-10.6-44.1-20.8-86.5-33-137c-78.1,77.6-100.1,163.5-100.5,257.7
	C583.4,1527.2,917.3,1527.2,1251.2,1527.2z M425.8,841.6c-17.1,14-38.7,30.1-58.4,48.3c-74.9,68.9-112.9,188.8-50.4,276.1
	c43.7,61.1,80.9,125.1,91.3,209.6c21-18.8,38.3-31.4,52-47.1c34.3-39.2,37.3-87.3,36.3-136.6c-0.2-10.9,4.4-27.6,12.1-31.9
	c30.2-16.7,45-43.1,51.3-74.2c6.7-33.2-7-57.4-29.9-84.7C490.2,953.4,461,896.8,425.8,841.6z M547,1189.8
	c42.5,74.6,115.8,111.5,209.2,108.7c89.5-2.7,157.5-43.2,195.8-114.2c-21.4-43.8-39.6-81.2-58.5-119.9
	c-93.4,58.2-195.4,54.8-289.2,1C585.5,1106.1,567.7,1144.8,547,1189.8z"/>
</svg>
