<?xml version="1.0" encoding="utf-8"?>
<!-- Generator: Adobe Illustrator 25.0.0, SVG Export Plug-In . SVG Version: 6.00 Build 0)  -->
<svg version="1.1" id="Layer_1" xmlns="http://www.w3.org/2000/svg" xmlns:xlink="http://www.w3.org/1999/xlink" x="0px" y="0px"
	 viewBox="0 0 1500 1500" style="enable-background:new 0 0 1500 1500;" xml:space="preserve">
<g>
	<path d="M428,714c-7.2-51.3-18.9-99.8-19.9-148.7c-2.9-139.6,94.2-255.8,231-283.3c67.4-13.6,134.1-13.5,200.7,4.5
		c62.4,16.8,111.9,49.4,140.1,109.8c2.6,5.6,7.9,11.5,13.4,13.8c62.7,26,93.5,69.9,94,137.4c0.3,29.1,0.7,58.5-2.8,87.3
		c-3.3,27.6-11.5,54.7-17.7,82.2c42.6,21.2,55.4,44.6,45.5,106.5c-9.3,58-30.5,111-96.2,129.5c-5,1.4-9.2,8.8-12,14.4
		c-17.3,34.1-33.5,68.8-51.2,102.8c-11.5,22.2-5.3,111.5,11.7,128.8c6.7,6.8,17.3,10.4,26.4,14.5c31.8,14.2,64.8,26.3,95.8,42.3
		c72.9,37.6,108.6,101.1,118.8,180.4c3,23.8,3.4,47.8,5.6,71.8c2,21.5-7.2,28-28.5,27.9c-240.4-0.6-480.8-0.3-721.2-0.3
		c-48.9,0-97.9-0.5-146.8,0.4c-18.4,0.3-28-5.1-26-24.8c4-39.9,4.3-80.6,12.5-119.7c13-62.1,51.2-107.6,107.5-136.3
		c31.1-15.7,63.4-29.9,96.5-40.5c28.6-9.2,39.6-28.9,40.7-54.7c1.8-42.1,5.9-84.1-24.3-121.9c-15.8-19.7-22.2-47.4-31.3-72
		c-4-10.9-6.2-18.5-21.1-20.4c-13.3-1.7-28-9.4-37.7-19c-42.9-42.3-58.3-95.8-53.7-154.4C380,741.2,395.7,716.7,428,714z M527.9,561
		c-4.4,19-9.9,36.1-12.1,53.7c-6,48.3-10.2,96.8-16.1,145.1c-0.8,7.2-7.2,13.7-10.9,20.6c-6.3-3.5-13.1-6.5-18.7-10.9
		c-3.9-3-6.6-7.9-9.2-12.3c-8.5-14.4-22.7-22.3-36.6-15c-10,5.3-19.9,19.7-21.2,31.1c-5.4,44,6.6,85.5,33.1,120.5
		c9.6,12.7,28.3,24.8,43.5,25.6c20.4,1.2,26.7,9.5,30.5,25.9c14.5,61.8,46.2,112.9,93.8,155.1c84.6,74.9,195.8,76.8,282.4,4.5
		c47.8-39.8,77.2-90.2,93.8-149.2c4.7-16.9,10.2-30.8,33.9-30.6c12.2,0.1,27.5-10.2,36.4-20.2c33.9-38.2,42.7-84.7,36.1-134.2
		c-2.9-22.2-21.9-31-42-20.4c-10.9,5.8-19.5,16.1-29.8,23.4c-5.1,3.7-13.6,8.8-17.3,7c-5.6-2.8-10.9-10.9-11.5-17.3
		c-1.8-18.7-1.3-37.6-1.5-56.5c-0.7-57.7-14.5-110.8-48.6-158.8c-14.5-20.4-26.6-23.4-50.1-16C770.1,568.6,653,593.8,527.9,561z
		 M962,1230.2c-53.7,71.6-128.4,110.2-207.7,141.5c-5.1,2-11.9,1.9-17.1,0.3c-68.3-20-133.2-50.4-178.7-104.5
		c-29-34.4-52.3-30.4-85.5-17.1c-73.9,29.6-135.3,70.9-150.3,156.1c-6.1,34.1-7.9,69.1-11.8,104.7c293.3,0,583.5,0,873.8,0
		C1187,1338.9,1126.1,1282.5,962,1230.2z M472.5,731.4c10.9-59,21.8-117.3,32.4-175.7c3.3-18.2,12-23.8,30.8-19
		c57.7,15.2,116.6,19.7,175.4,8.3c62.5-12.1,124.7-26.4,186.2-42.6c19.3-5.1,31.8-0.8,42.7,12.5c28.9,35.3,53.4,73.3,60.5,119.5
		c5.1,33.4,8.6,67.2,13.6,107.7c10.4-13.1,21.1-21.8,25.5-33c22.7-57.5,29.2-117.9,21.5-178.8c-5.9-46.4-26.8-84.1-77.2-97.9
		c-9-2.4-19-10.9-23.2-19.4c-26.4-51.9-68.1-84.5-123.2-100.4c-49.8-14.4-100-17.9-152-11.3C520.1,322.9,424,434.2,433.8,600.5
		C436.5,646.8,447.8,692.6,472.5,731.4z M916.3,1112.1c-46.4,41.4-101.3,73-168.6,71.2c-66.8-1.8-123.5-31.4-171.2-73
		c-5.1,31.4-5.7,63.2-16.5,91c-7.9,20.5-5.1,33.2,9.3,43.6c40.7,29.2,82,57.7,124.3,84.5c31.7,20,63.3,18.9,97.9,0.3
		c48.4-25.9,96.8-51,133.2-93.2c7.2-8.3,14.1-21.7,12.6-31.6C932.4,1173.8,923.7,1143.2,916.3,1112.1z"/>
</g>
</svg>
