<?xml version="1.0" encoding="utf-8"?>
<!-- Generator: Adobe Illustrator 25.0.0, SVG Export Plug-In . SVG Version: 6.00 Build 0)  -->
<svg version="1.1" id="Layer_1" xmlns="http://www.w3.org/2000/svg" xmlns:xlink="http://www.w3.org/1999/xlink" x="0px" y="0px"
	 viewBox="0 0 1500 1500" style="enable-background:new 0 0 1500 1500;" xml:space="preserve">
<g>
	<path d="M367.7,562.9c-8.5-60.9-22.4-118.5-23.6-176.5C340.7,220.7,456,82.7,618.4,50c80-16.1,159.2-16,238.3,5.3
		C930.8,75.2,989.6,114,1023,185.7c3.1,6.6,9.4,13.7,15.9,16.4c74.4,30.9,111,83,111.6,163.1c0.3,34.6,0.8,69.4-3.3,103.6
		c-3.9,32.8-13.7,64.9-21,97.6c50.6,25.2,65.8,52.9,54,126.4c-11.1,68.9-36.2,131.8-114.2,153.7c-5.9,1.7-10.9,10.5-14.3,17.1
		c-20.5,40.5-39.8,81.7-60.8,122c-13.7,26.3-6.3,132.4,13.9,152.9c8,8.1,20.5,12.3,31.4,17.2c37.8,16.9,76.9,31.2,113.7,50.2
		c86.6,44.7,129,120,141.1,214.2c3.6,28.2,4,56.8,6.6,85.2c2.4,25.5-8.6,33.2-33.8,33.1c-285.4-0.7-570.9-0.4-856.3-0.3
		c-58.1,0-116.2-0.6-174.3,0.5c-21.8,0.4-33.2-6-30.9-29.4c4.8-47.4,5.1-95.7,14.8-142.1c15.4-73.7,60.8-127.8,127.6-161.8
		c36.9-18.7,75.3-35.5,114.6-48.1c33.9-10.9,47-34.3,48.3-64.9c2.1-50,7-99.9-28.9-144.7c-18.8-23.4-26.3-56.3-37.2-85.5
		c-4.8-13-7.4-22-25.1-24.2c-15.8-2-33.3-11.2-44.8-22.6c-50.9-50.2-69.2-113.8-63.7-183.3C310.7,595.2,329.3,566.1,367.7,562.9z
		 M486.3,381.2c-5.2,22.6-11.8,42.9-14.4,63.7c-7.1,57.3-12.1,114.9-19.1,172.3c-1,8.6-8.5,16.3-13,24.5
		c-7.5-4.2-15.5-7.7-22.2-12.9c-4.6-3.6-7.8-9.4-10.9-14.6c-10.1-17.1-27-26.5-43.4-17.8c-11.9,6.3-23.6,23.4-25.2,36.9
		c-6.4,52.3,7.8,101.5,39.3,143.1c11.4,15.1,33.6,29.4,51.7,30.4c24.2,1.4,31.7,11.3,36.2,30.7c17.2,73.4,54.8,134,111.4,184.1
		c100.5,88.9,232.5,91.2,335.3,5.4c56.7-47.3,91.7-107.1,111.4-177.2c5.6-20.1,12.1-36.6,40.2-36.3c14.5,0.1,32.6-12.1,43.2-24
		c40.3-45.4,50.7-100.6,42.9-159.3c-3.5-26.3-26-36.8-49.9-24.2c-13,6.9-23.2,19.1-35.4,27.8c-6.1,4.4-16.1,10.5-20.5,8.3
		c-6.6-3.3-13-13-13.7-20.6c-2.1-22.2-1.5-44.7-1.8-67.1c-0.8-68.5-17.2-131.5-57.7-188.5c-17.2-24.2-31.6-27.8-59.5-19
		C773.9,390.2,634.8,420.2,486.3,381.2z M1001.7,1175.8c-63.8,85-152.4,130.8-246.6,168c-6,2.4-14.1,2.2-20.3,0.4
		c-81.1-23.7-158.1-59.9-212.2-124.1c-34.4-40.8-62.1-36.1-101.5-20.3c-87.7,35.1-160.6,84.2-178.5,185.3c-7.2,40.5-9.4,82-14,124.3
		c348.2,0,692.8,0,1037.5,0C1268.9,1304.9,1196.6,1237.9,1001.7,1175.8z M420.5,583.6c13-70.1,25.9-139.3,38.5-208.6
		c3.9-21.6,14.3-28.3,36.6-22.5c68.5,18,138.5,23.4,208.2,9.9c74.2-14.4,148-31.4,221.1-50.6c22.9-6,37.7-1,50.7,14.9
		c34.3,41.9,63.4,87,71.8,141.9c6.1,39.7,10.2,79.8,16.2,127.9c12.4-15.6,25-25.9,30.3-39.2c26.9-68.3,34.7-140,25.5-212.3
		c-7-55.1-31.8-99.8-91.7-116.2c-10.7-2.9-22.6-13-27.6-23c-31.4-61.6-80.8-100.3-146.3-119.2c-59.1-17.1-118.7-21.3-180.5-13.4
		C477,98.5,362.9,230.7,374.6,428.1C377.8,483.1,391.2,537.5,420.5,583.6z M947.5,1035.5c-55.1,49.1-120.3,86.7-200.2,84.5
		c-79.3-2.1-146.6-37.3-203.3-86.7c-6.1,37.3-6.8,75-19.6,108.1c-9.4,24.3-6.1,39.4,11,51.8c48.3,34.7,97.4,68.5,147.6,100.3
		c37.6,23.8,75.1,22.4,116.2,0.3c57.5-30.8,114.9-60.5,158.1-110.6c8.5-9.8,16.7-25.8,15-37.5
		C966.6,1108.8,956.2,1072.5,947.5,1035.5z"/>
</g>
</svg>
