<?xml version="1.0" encoding="utf-8"?>
<!-- Generator: Adobe Illustrator 25.0.0, SVG Export Plug-In . SVG Version: 6.00 Build 0)  -->
<svg version="1.1" id="Layer_1" xmlns="http://www.w3.org/2000/svg" xmlns:xlink="http://www.w3.org/1999/xlink" x="0px" y="0px"
	 viewBox="0 0 1500 1500" style="enable-background:new 0 0 1500 1500;" xml:space="preserve">
<path d="M1042.9,1225.3c53.4,24.4,105.8,61.4,139.3,121.5c28.1,50.4,36.8,104.9,39.3,161.2c1,21.5-8.7,30.2-30.8,30.3
	c-292.3,1-584.6,2.3-876.9,4.5c-28.2,0.2-36.9-10.5-35.1-37.5c8.6-126.2,51.4-230.9,183.5-287c-18.4-5.1-30.3-8.2-42.1-11.7
	c-40.6-12.2-77.1-31.2-105.6-63.7c-28.9-33.1-35.1-78.2-13-116.1c32.6-55.7,44.1-116.6,45.4-179.8c1.5-67.6-2.7-135.4,0.9-202.8
	c10.3-195.7,92.9-348.5,288.5-413.7c204.3-68.2,415,45,488.2,257.7c26.1,75.7,28.2,153.9,30.1,232.9c1.8,73.8,7.9,147.6,16.3,220.9
	c2.9,25.3,16.6,50.1,28.6,73.4c28.4,55.3,24.3,101.8-25.9,138.5C1133.2,1183.4,1085.4,1202.6,1042.9,1225.3z M1117.9,739.5
	c9.2-83.6,5.7-165.6-22.2-245.2c-69.1-197.1-280.7-303.5-466.2-228.9c-175,70.3-244,209.3-253,381.3c-3.9,73.1,0.7,146.6-1,219.9
	c-1.4,57.3-14.4,112.4-42.7,163c-24.6,44.1-16.9,80.9,22.9,111.7c37.1,28.7,80.1,43.2,125.9,47.6c61.2,6,105-32.5,105.1-91
	c0-11-4.7-25.3-12.4-32.4c-46.4-42.1-74.6-94.8-95.7-152.6c-3.2-8.7-13-17.8-21.9-21c-34.9-12.9-57.7-36-66-72
	c-8.6-37.7-10.5-76.5,8.6-111c7.9-14.4,27.5-32.1,41.6-31.9c36.7,0.5,60.9-17.7,84.7-40.1c54.5-51.2,81.7-117.2,101.9-187.3
	c2.3-8.2,11.4-14.4,17.4-21.5c5.9,6.2,14.1,11.4,17.3,18.8c24.9,57.8,59.9,108,111.4,144.7c81.2,57.8,171.8,86.9,272,83.3
	c29.5-1,51.1,8,64.1,36.5c21.5,47.1,4,154.9-65.1,181.2c-8.1,3.1-17,12.3-19.7,20.6c-19,58.1-48.6,109-95.8,148.7
	c-23.2,19.5-19.2,44.8-12.5,68.2c8,28.2,25.7,55.7,56,58.2c73.8,6.1,141.2-13.7,194.8-67.7c24.2-24.4,25.1-51.5,9.9-83.5
	c-13.2-28.1-30-56.2-34.8-86.1C1130.9,881.1,1125.7,810.1,1117.9,739.5z M648.5,487.8c-12,28-21.1,53.8-33.9,77.8
	c-13.4,25-28.5,49.4-46,71.6c-28.7,36.5-63.7,69.5-112.1,70c-28.2,0.2-35.8,12-38.4,32.5c-2.9,21.5-4,43.8-1.3,65.2
	c4,31.6,27.1,57.1,53.6,58.2c20.4,0.8,27.3,9.8,32.8,27.3c20,63.3,50.8,119.5,104,162.6c88.5,71.6,187.7,74.2,279,6.7
	c56.6-41.8,92.1-96.6,113.3-162.6c3.4-10.5,11.3-22.8,20.6-27.5c51.4-25.9,74.2-64.8,67.6-120.3c-4.8-40.4-11.6-46.4-52.4-45.2
	c-95.8,2.9-182.9-24.2-262.5-76.5C719.3,592.5,677.2,547.2,648.5,487.8z M542.5,1218c-155.8,47.5-229.8,129.7-232.6,293
	c293.6,0,587.2,0,880.7,0c1.8-162.5-78.3-237.4-234.8-291.6C873.8,1363.2,633.5,1377,542.5,1218z M624.8,1102.7
	c-14.9,27.9-27.6,54.9-43.5,79.7c-9.2,14.2-9.2,23.8-0.4,37.7c27.5,43,68.7,63.5,116.1,75.3c80.5,20.1,172.1-9.5,216.7-72
	c5.5-7.8,8.8-25.1,4.2-30.8c-21.8-27.4-36.9-56.4-34.9-96.5C794.1,1152.3,707.2,1151.9,624.8,1102.7z"/>
</svg>
