<?xml version="1.0" encoding="utf-8"?>
<!-- Generator: Adobe Illustrator 25.0.0, SVG Export Plug-In . SVG Version: 6.00 Build 0)  -->
<svg version="1.1" id="Layer_1" xmlns="http://www.w3.org/2000/svg" xmlns:xlink="http://www.w3.org/1999/xlink" x="0px" y="0px"
	 viewBox="0 0 1500 1500" style="enable-background:new 0 0 1500 1500;" xml:space="preserve">
<path d="M1089,1205.8c61.8,28.2,122.5,71.1,161.3,140.6c32.5,58.3,42.6,121.4,45.5,186.6c1.1,24.9-10.1,35-35.7,35.1
	c-338.3,1.2-676.7,2.7-1015,5.2c-32.6,0.2-42.7-12.2-40.6-43.4c10-146.1,59.5-267.3,212.4-332.2c-21.3-5.9-35.1-9.5-48.7-13.6
	c-47-14.1-89.3-36.1-122.2-73.7c-33.5-38.3-40.6-90.5-15-134.4c37.7-64.5,51-135,52.5-208.1c1.7-78.2-3.1-156.7,1-234.7
	c11.9-226.5,107.5-403.4,333.9-478.9c236.5-78.9,480.4,52.1,565.1,298.3c30.2,87.6,32.7,178.2,34.9,269.6
	c2.1,85.4,9.1,170.8,18.9,255.7c3.4,29.3,19.2,58,33.1,85c32.9,64,28.1,117.8-30,160.3C1193.6,1157.3,1138.2,1179.5,1089,1205.8z
	 M1175.9,643.4c10.6-96.8,6.6-191.7-25.7-283.8C1070.2,131.4,825.3,8.3,610.5,94.6C407.9,176,328.1,336.9,317.6,536
	c-4.5,84.6,0.8,169.7-1.2,254.6c-1.6,66.3-16.7,130.1-49.4,188.7c-28.5,51-19.6,93.7,26.5,129.3c43,33.2,92.7,50,145.7,55.1
	c70.8,6.9,121.6-37.6,121.7-105.3c0-12.7-5.4-29.3-14.4-37.5c-53.7-48.7-86.3-109.7-110.8-176.6c-3.7-10.1-15.1-20.6-25.4-24.3
	c-40.4-14.9-66.8-41.7-76.4-83.4c-10-43.6-12.1-88.5,9.9-128.5c9.2-16.7,31.8-37.1,48.1-36.9c42.5,0.6,70.5-20.5,98-46.4
	c63.1-59.3,94.6-135.7,118-216.8c2.7-9.5,13.2-16.7,20.1-24.9c6.8,7.2,16.3,13.2,20,21.8c28.8,66.9,69.3,125,129,167.5
	c94,66.9,198.9,100.6,314.9,96.4c34.1-1.2,59.1,9.3,74.2,42.3c24.9,54.5,4.6,179.3-75.4,209.8c-9.4,3.6-19.7,14.2-22.8,23.8
	c-22,67.3-56.3,126.2-110.9,172.1c-26.8,22.6-22.2,51.9-14.5,78.9c9.3,32.7,29.7,64.5,64.8,67.4c85.4,7.1,163.4-15.9,225.5-78.4
	c28-28.2,29.1-59.6,11.5-96.7c-15.3-32.5-34.7-65.1-40.3-99.7C1190.9,807.3,1184.9,725.1,1175.9,643.4z M632.5,352
	c-13.9,32.4-24.4,62.3-39.2,90c-15.5,28.9-33,57.2-53.2,82.9c-33.2,42.3-73.7,80.5-129.8,81c-32.7,0.2-41.4,13.9-44.5,37.6
	c-3.3,24.9-4.6,50.7-1.5,75.5c4.6,36.6,31.4,66.1,62.1,67.4c23.6,0.9,31.6,11.4,38,31.6c23.2,73.3,58.8,138.3,120.4,188.2
	c102.4,82.9,217.3,85.9,322.9,7.8c65.5-48.4,106.6-111.8,131.1-188.2c3.9-12.1,13.1-26.4,23.8-31.8c59.5-30,85.9-75,78.3-139.3
	c-5.6-46.8-13.4-53.7-60.6-52.3c-110.9,3.3-211.7-28-303.9-88.6C714.5,473.2,665.7,420.8,632.5,352z M509.8,1197.3
	c-180.3,55-266,150.1-269.2,339.2c339.8,0,679.7,0,1019.4,0c2.1-188.1-90.6-274.8-271.8-337.5
	C893.3,1365.4,615.1,1381.4,509.8,1197.3z M605.1,1063.8c-17.3,32.3-31.9,63.6-50.4,92.3c-10.6,16.4-10.7,27.6-0.5,43.6
	c31.8,49.8,79.5,73.5,134.4,87.2c93.2,23.3,199.2-11,250.8-83.4c6.4-9,10.2-29,4.9-35.6c-25.2-31.7-42.7-65.3-40.4-111.7
	C801,1121.2,700.4,1120.8,605.1,1063.8z"/>
</svg>
