<?xml version="1.0" encoding="utf-8"?>
<!-- Generator: Adobe Illustrator 25.0.0, SVG Export Plug-In . SVG Version: 6.00 Build 0)  -->
<svg version="1.1" id="Layer_1" xmlns="http://www.w3.org/2000/svg" xmlns:xlink="http://www.w3.org/1999/xlink" x="0px" y="0px"
	 viewBox="0 0 1500 1500" style="enable-background:new 0 0 1500 1500;" xml:space="preserve">
<style type="text/css">
	.st0{fill:none;stroke:#000000;stroke-width:18.5667;stroke-linecap:round;stroke-linejoin:round;stroke-miterlimit:10;}
	.st1{fill:none;stroke:#000000;stroke-width:2;stroke-linecap:round;stroke-linejoin:round;stroke-miterlimit:10;}
	.st2{fill:none;stroke:#000000;stroke-width:18.3826;stroke-linecap:round;stroke-linejoin:round;stroke-miterlimit:10;}
	.st3{fill:none;stroke:#000000;stroke-width:18.5795;stroke-linecap:round;stroke-linejoin:round;stroke-miterlimit:10;}
</style>
<g>
	<path class="st0" d="M1099.4,474.9c34.7-67,27.7-134.8,15.3-207.2c-11-63.9-60-123.4-8.5-191.7c-101-25.3-182.1-51.6-265.4-65.3
		C568.1-34,296.3,155.1,388.7,462"/>
	<path class="st0" d="M556.7,901.3c-31.4,171.8-31.4,181.8-232.5,245.9c-31.1,9.9-59.4,32.6-90.8,37.2
		C65.1,1209-9.8,1302.7,1,1495.8"/>
	<path class="st0" d="M931.4,901.3c29,184.2,160.4,237.8,322.4,274.3c202.9,45.7,244,111.9,246.2,320.1"/>
	<path class="st0" d="M414.5,1159.8c225.7,194.5,446.3,194.5,672,0"/>
	<path class="st0" d="M569.6,268.2c-42.1,76.1-72,159.7-154.5,207.8c-57.7,33.6-55.3,102.3-23.2,138.2
		c53.1,59.5,76.2,131.1,115.6,195.2c55.7,90.7,137.1,155.3,255.9,143.8c118.2-11.4,200.9-70.2,245.5-181
		c8.7-21.5,11.1-50.8,26.8-63.4c126.9-101.3,89.2-193.6,1.4-300.4C975.5,333.2,924.9,272,814.6,305.2
		c-79.6,23.9-159.2,3.9-232.1-37.1"/>
</g>
</svg>
