<?xml version="1.0" encoding="utf-8"?>
<!-- Generator: Adobe Illustrator 25.0.0, SVG Export Plug-In . SVG Version: 6.00 Build 0)  -->
<svg version="1.1" id="Layer_1" xmlns="http://www.w3.org/2000/svg" xmlns:xlink="http://www.w3.org/1999/xlink" x="0px" y="0px"
	 viewBox="0 0 1500 1500" style="enable-background:new 0 0 1500 1500;" xml:space="preserve">
<style type="text/css">
	.st0{fill:none;stroke:#000000;stroke-width:18.5667;stroke-linecap:round;stroke-linejoin:round;stroke-miterlimit:10;}
	.st1{fill:none;stroke:#000000;stroke-width:2;stroke-linecap:round;stroke-linejoin:round;stroke-miterlimit:10;}
	.st2{fill:none;stroke:#000000;stroke-width:18.656;stroke-linecap:round;stroke-linejoin:round;stroke-miterlimit:10;}
	.st3{fill:none;stroke:#000000;stroke-width:18.3826;stroke-linecap:round;stroke-linejoin:round;stroke-miterlimit:10;}
	.st4{fill:none;stroke:#000000;stroke-width:18.5756;stroke-linecap:round;stroke-linejoin:round;stroke-miterlimit:10;}
	.st5{fill:none;stroke:#000000;stroke-width:18.5795;stroke-linecap:round;stroke-linejoin:round;stroke-miterlimit:10;}
	.st6{fill:none;stroke:#000000;stroke-width:18.5194;stroke-linecap:round;stroke-linejoin:round;stroke-miterlimit:10;}
	.st7{fill:none;stroke:#000000;stroke-width:18.7186;stroke-linecap:round;stroke-linejoin:round;stroke-miterlimit:10;}
</style>
<g>
	<path class="st2" d="M1450.9,1500c6.5-113.6-65.3-187-144.7-244c-70.2-50.4-73.9-110-77.7-184.4c-14.1-274.9-7.7-553.1-102.5-818
		c-18.9-52.9-34.1-110.7-67.2-153.9c-28.4-37.1-55.4-85.4-114.1-93.6c-123.5-17.2-245.9,4.7-362.6,31.4
		C476.2,61.7,438.6,168.8,397.4,265.7c-99.7,234.7-103.9,480.5-100.9,727.9c0.7,56-17.8,114.5,11.8,168.8"/>
	<path class="st2" d="M542,279.5c33.6,189.3,189.8,177.2,324.8,193.2c72.8,8.6,147.5,1.5,219.2,1.5
		c17.4,165.1-151.7,435.9-284.4,466.9c-62.7,14.6-121.7-12.5-181.7-25.4"/>
	<path class="st2" d="M892.6,980.6c36.8,158.2-11.7,323.3,27.9,486c151.6-34.6,240-133.2,322.7-239.3"/>
	<path class="st2" d="M542,227.5C465,313,485.7,444.3,401,528c-13,12.8-12,66-0.2,73.6c112.2,71.9,93.2,232,203.3,286.7
		c17.1,167-86.6,220.9-205,260.9C224,1208.3,72.2,1289.9,48.6,1500"/>
	<path class="st2" d="M503.1,1136.4c85.8,60.6,175.9,105.2,285.7,77.9"/>
</g>
</svg>
