<?xml version="1.0" encoding="utf-8"?>
<!-- Generator: Adobe Illustrator 25.0.0, SVG Export Plug-In . SVG Version: 6.00 Build 0)  -->
<svg version="1.1" id="Layer_1" xmlns="http://www.w3.org/2000/svg" xmlns:xlink="http://www.w3.org/1999/xlink" x="0px" y="0px"
	 viewBox="0 0 1500 1500" style="enable-background:new 0 0 1500 1500;" xml:space="preserve">
<path d="M1152.1,1214.1c55.1,35,104.9,78.7,126.8,141.6c18.5,52.9,26,109.7,36.3,165.2c5.8,31.2-9,43.8-41.6,43.6
	c-176.1-0.6-352.2,0.5-528.3,0.9c-171.6,0.4-343.2,0.9-514.9,0.9c-45.4,0-46.9-2.2-46.9-47.8c-0.2-132.6,50.6-226.5,169.4-310.9
	c-7-5.8-13.5-11.2-20.1-16.5c-74.9-60.7-98.7-139.5-86.4-233.2c16.2-122.9,29.3-246.2,45-369.2c12.4-97.4,27.9-194.4,72.1-283.7
	C433.9,163.1,544,80,706.2,67.9c123.6-9.2,232.9,20.1,325.9,102.2c81.1,71.5,127,165.5,146.3,269.1c25.8,139.1,42.5,279.9,62,420.1
	c6.3,45.3,10.2,91.1,13.4,136.8c5.8,80.6-25.2,146.1-85.2,198.8c-5,4.4-9.8,9.2-14.5,14C1153.5,1209.5,1153.4,1210.7,1152.1,1214.1z
	 M745.7,100.6C663.2,99,583.6,122,521.5,166.5C407.1,248.6,359.2,368.8,339.3,501c-23.8,157.9-40.8,316.8-60.7,475.2
	c-11.1,88.7,27.4,153.7,98.2,202.3c7.7,5.3,22,7.9,30.2,4.5c31.8-13.3,63.9-27.2,93.2-45.2c55-33.9,63.2-112.9,17.9-157.8
	c-42.3-42-67.9-93.2-86.5-149c-3.8-11.4-11.3-25.5-21.1-30.3c-70.5-34.9-85.8-100.4-77.9-163.4c6.4-50.4,38.1-79.8,76.8-83.7
	c165.3-16.8,297.8-92.8,399-224.4c7.8-10.2,21-16.3,31.6-24.3c7.2,10.1,17.6,19.1,21.2,30.3c29,91.3,87.9,157.1,170.9,202
	c16.1,8.7,35.7,16.3,53.3,15.5c33.7-1.4,52.8,15.3,66.5,41.6c38.1,73.4,12.7,155.6-58.8,197c-10.4,6-21.8,17.1-24.7,28
	c-17.6,65.6-52.7,120.2-98,169.5c-6.8,7.4-11,19-12.2,29.2c-7.3,63,18.1,108.2,76.2,134.9c22.3,10.3,43.6,23,66.3,32.3
	c7.3,3,19.7,1.9,26.2-2.6c60.9-42.4,96.7-100,92.8-175.5c-3.5-68-10.6-136.1-19.8-203.6c-16.6-121.5-29.8-243.9-55.5-363.5
	C1098.7,227.6,949.3,104.6,745.7,100.6z M835,365.2c-41.2,36.1-78.7,76.8-123.6,106.5c-92.1,61-187.3,118.3-304.3,116.6
	c-7.6-0.1-18,5.1-22.5,11.3C345,654,367.5,750.2,428.8,770.1c11.8,3.8,23.3,17.4,29.2,29.4c17.8,35.7,28.9,75.1,49.5,109
	c68.4,112.6,203,168.4,316.3,129.3c112.8-39,180.4-122.3,215-235c4.3-14.2,15.4-32.7,27.6-37c66.4-23,78.7-97.4,59.5-147.2
	c-8-20.6-19.4-32.8-44.8-30.9c-17,1.2-36.6-2.3-51.6-10.3C938.4,529.4,869.6,460.5,835,365.2z M494.9,1180.9
	c-193.1,66.9-301.6,206.6-273.9,350.7c354,0,707.8,0,1061.6,0c-6.2-219.3-116.5-287.1-271.2-348
	C907.8,1371.6,610.8,1392.5,494.9,1180.9z M923.4,1026.5c-113.6,74.9-226.4,76.9-332,14.4c-18.3,43.1-36.1,84.9-55.9,131.6
	c53.5,93.2,122.6,130.9,249.7,121.3c86.6-6.6,152.8-50.1,193-130.7C936.3,1128.4,921.4,1083.2,923.4,1026.5z"/>
</svg>
