<?xml version="1.0" encoding="utf-8"?>
<!-- Generator: Adobe Illustrator 25.0.0, SVG Export Plug-In . SVG Version: 6.00 Build 0)  -->
<svg version="1.1" id="Layer_1" xmlns="http://www.w3.org/2000/svg" xmlns:xlink="http://www.w3.org/1999/xlink" x="0px" y="0px"
	 viewBox="0 0 1500 1500" style="enable-background:new 0 0 1500 1500;" xml:space="preserve">
<path d="M1094.7,1234.6c47.2,30,89.9,67.5,108.7,121.4c15.9,45.4,22.3,94,31.1,141.6c5,26.7-7.7,37.5-35.7,37.4
	c-151-0.5-301.9,0.4-452.9,0.8c-147.1,0.3-294.2,0.8-441.4,0.8c-38.9,0-40.2-1.9-40.2-41c-0.2-113.7,43.4-194.2,145.2-266.5
	c-6-5-11.6-9.6-17.2-14.1c-64.2-52-84.6-119.6-74.1-199.9c13.9-105.4,25.1-211.1,38.6-316.5c10.6-83.5,23.9-166.7,61.8-243.2
	C479,333.5,573.4,262.3,712.4,251.9c106-7.9,199.7,17.2,279.4,87.6c69.5,61.3,108.9,141.9,125.4,230.7
	c22.1,119.3,36.4,240,53.2,360.2c5.4,38.8,8.7,78.1,11.5,117.3c5,69.1-21.6,125.3-73,170.4c-4.3,3.8-8.4,7.9-12.4,12
	C1095.9,1230.6,1095.8,1231.6,1094.7,1234.6z M746.3,279.9c-70.7-1.4-139,18.3-192.2,56.5C456,406.8,415,509.9,397.9,623.2
	c-20.4,135.4-35,271.6-52,407.4c-9.5,76,23.5,131.8,84.2,173.4c6.6,4.5,18.9,6.8,25.9,3.9c27.3-11.4,54.8-23.3,79.9-38.8
	c47.2-29.1,54.2-96.8,15.3-135.3c-36.3-36-58.2-79.9-74.2-127.7c-3.3-9.8-9.7-21.9-18.1-26c-60.4-29.9-73.6-86.1-66.8-140.1
	c5.5-43.2,32.7-68.4,65.8-71.8c141.7-14.4,255.3-79.6,342.1-192.4c6.7-8.7,18-14,27.1-20.8c6.2,8.7,15.1,16.4,18.2,26
	c24.9,78.3,75.4,134.7,146.5,173.2c13.8,7.5,30.6,14,45.7,13.3c28.9-1.2,45.3,13.1,57,35.7c32.7,62.9,10.9,133.4-50.4,168.9
	c-8.9,5.1-18.7,14.7-21.2,24c-15.1,56.2-45.2,103-84,145.3c-5.8,6.3-9.4,16.3-10.5,25c-6.3,54,15.5,92.8,65.3,115.7
	c19.1,8.8,37.4,19.7,56.8,27.7c6.3,2.6,16.9,1.6,22.5-2.2c52.2-36.3,82.9-85.7,79.6-150.5c-3-58.3-9.1-116.7-17-174.5
	c-14.2-104.2-25.5-209.1-47.6-311.6C1048.9,388.8,920.9,283.4,746.3,279.9z M822.9,506.8c-35.3,30.9-67.5,65.8-106,91.3
	c-79,52.3-160.6,101.4-260.9,100c-6.5-0.1-15.4,4.4-19.3,9.7c-33.9,46.6-14.7,129.1,37.9,146.2c10.1,3.3,20,14.9,25,25.2
	c15.3,30.6,24.8,64.4,42.4,93.4c58.6,96.5,174,144.4,271.2,110.8C910,1050,967.9,978.6,997.6,881.9c3.7-12.2,13.2-28,23.7-31.7
	c56.9-19.7,67.5-83.5,51-126.2c-6.9-17.7-16.6-28.1-38.4-26.5c-14.6,1-31.4-2-44.2-8.8C911.5,647.6,852.5,588.5,822.9,506.8z
	 M531.3,1206.1c-165.5,57.4-258.6,177.1-234.8,300.7c303.5,0,606.8,0,910.1,0c-5.3-188-99.9-246.1-232.5-298.3
	C885.3,1369.6,630.7,1387.5,531.3,1206.1z M898.7,1073.7c-97.4,64.2-194.1,65.9-284.6,12.3c-15.7,36.9-30.9,72.8-47.9,112.8
	c45.9,79.9,105.1,112.2,214.1,104c74.2-5.7,131-43,165.5-112C909.7,1161.1,896.9,1122.3,898.7,1073.7z"/>
</svg>
