<?xml version="1.0" encoding="utf-8"?>
<!-- Generator: Adobe Illustrator 25.0.0, SVG Export Plug-In . SVG Version: 6.00 Build 0)  -->
<svg version="1.1" id="Layer_1" xmlns="http://www.w3.org/2000/svg" xmlns:xlink="http://www.w3.org/1999/xlink" x="0px" y="0px"
	 viewBox="0 0 1500 1500" style="enable-background:new 0 0 1500 1500;" xml:space="preserve">
<g>
	<path d="M1122.7,549.2c76.5,14.5,77.9,59.1,67.8,123.1c-10.7,68.2-35.1,131.9-114.4,151.8c-5.5,1.4-9.5,12.1-12.5,19.2
		c-13.8,32.4-25.4,65.7-40.8,97.3c-30.4,62.5-23.6,124.6,1.8,185.3c6.3,15,26,26.8,42.1,34.8c33.4,16.6,69.6,27.9,102.9,44.7
		c108,54.4,160.2,145.4,165.4,263.9c3.8,87.7,2,87.6-85.9,87.6c-350.2,0-700.3-0.2-1050.5,0.5c-24.5,0-35.2-5.7-34.5-32.3
		c2.1-81.3,10-160.4,59.4-229.5c39.5-55.1,98.1-81.9,156.7-109c20.3-9.4,40.9-18.7,62.1-25.9c37.3-12.7,50.5-41.2,51.9-76.7
		c1.4-33.3,0.5-66.8,0.1-100.2c-0.1-6.1-1.4-12.6-3.9-18.2c-19-41.6-38.2-83.1-57.9-124.3c-3.2-6.7-8.5-15.9-14.4-17.4
		c-78.7-19.8-91.8-84.8-104.5-150c-2.2-11.5-1.8-23.6-1.6-35.5c0.9-57.7,12.5-73.7,63.7-90.8c-5.7-45.8-14.5-91.2-16.5-136.9
		C351.6,241.3,437.8,146.6,568.5,95C689.6,47.2,812.9,46,936.8,85.4c42.1,13.4,74.2,37.3,90.3,80.3c2.9,7.8,10.6,16.2,18.3,19.5
		c75.5,33.4,101.3,98.4,108.2,173.2C1159.7,423.4,1149.7,486.8,1122.7,549.2z M953.1,317.8c-90.4,38.8-177.3,63.6-270.4,59.1
		c-40.8-2-81.6-5.4-122.4-6.1c-52.2-1-73,12.3-84.5,63.9c-10.8,48.9-13.4,99.6-20.4,149.4c-2.1,15.1-6.9,29.7-10.4,44.6
		c-12.3-8-24.6-15.9-36.8-24.1c-2.6-1.8-4.2-5.6-6.9-6.6c-12.2-4.9-25.9-14.3-36.7-11.8c-8.4,2-16.7,18.5-19,29.7
		c-10.5,51.9,0.7,101.1,30.7,143.5c10.8,15.2,33.5,26.6,52.6,30.1c18.6,3.4,22.1,10.6,28.8,26.1c22.6,52.6,41.5,109.4,75.5,154.1
		c126.7,166.5,309.1,166,432.4-0.6c32.2-43.5,49.5-98.4,71.1-149.2c7.4-17.4,12-29.1,34.4-30.1c14.4-0.7,31.4-9.3,41.7-19.8
		c42.1-42.6,54.4-96.3,47.8-154.2c-3.5-31-30.6-42.1-56.6-24.4c-9.4,6.4-15.5,17.5-24.5,24.7c-6.8,5.5-15.8,8.5-23.8,12.5
		c-3.9-7.9-10.8-15.6-11.2-23.7C1039.4,501.5,984.9,414.5,953.1,317.8z M1306.9,1526.7c2.5-120.1-23.4-199.9-98.9-255.3
		c-48.2-35.3-107.2-56.1-162-81.9c-5.2-2.4-16.8,3.9-22.9,9.1c-35,29.9-65.7,66.6-104.4,90c-157,95.1-174.5,93.9-326.9,3.1
		c-47.3-28.2-87.5-68.3-132.4-104c-179,67.6-267.5,115.2-262,339C566.4,1526.7,935.4,1526.7,1306.9,1526.7z M1079.5,566.6
		c-0.6,0.8,3.8-3.7,6.4-9c33.1-68.6,45.2-141.8,34.4-216.2c-8.2-56.3-31.7-107.1-93.6-127.8c-9.3-3.1-19-14.4-22.6-24.1
		c-15.6-42.3-46.9-66-88.2-77.4c-137-37.8-269.5-28-394.8,42.2c-59.6,33.4-101.2,83.3-119.2,149.8c-24,88.8-11.9,176.2,15.8,262.3
		c1,3.1,5.4,5,12.1,10.9c0-24.2-3-43.9,0.6-62.4c8.5-42.7,17.6-85.6,31.4-126.7c10.9-32.3,40.1-47.2,73.1-49.4
		c31.1-2.1,63.1-4.3,93.6,0.6c102.1,16.1,198.3-2.6,292.4-41c37.3-15.2,51.5-11.3,66.8,26.8C1020.1,405.7,1049.6,487.4,1079.5,566.6
		z M534.3,1024.4c-10.1,49.5-20.1,98.7-31.4,154.2c49.2,56.8,131.5,113.7,209.1,138.4c18.7,5.9,41,12.2,58.8,7.4
		c82.3-22.3,152.9-66.3,212.9-127c17.8-18,28.1-36.1,9.7-61.3c-8.3-11.4-11-27.6-13.7-42.1c-4.4-24.4-6.7-49.1-10.2-75.4
		C832.1,1152.4,688.5,1168.3,534.3,1024.4z"/>
</g>
</svg>
