<?xml version="1.0" encoding="utf-8"?>
<!-- Generator: Adobe Illustrator 25.0.0, SVG Export Plug-In . SVG Version: 6.00 Build 0)  -->
<svg version="1.1" id="Layer_1" xmlns="http://www.w3.org/2000/svg" xmlns:xlink="http://www.w3.org/1999/xlink" x="0px" y="0px"
	 viewBox="0 0 1500 1500" style="enable-background:new 0 0 1500 1500;" xml:space="preserve">
<g>
	<path d="M1075.4,658.3c66.8,12.7,68,51.6,59.2,107.5c-9.3,59.5-30.6,115.2-99.9,132.5c-4.8,1.2-8.3,10.6-10.9,16.8
		c-12,28.3-22.2,57.4-35.6,84.9c-26.5,54.6-20.6,108.8,1.6,161.8c5.5,13.1,22.7,23.4,36.8,30.4c29.2,14.5,60.8,24.4,89.8,39
		c94.3,47.5,139.9,126.9,144.4,230.4c3.3,76.6,1.7,76.5-75,76.5c-305.7,0-611.4-0.2-917.2,0.4c-21.4,0-30.7-5-30.1-28.2
		c1.8-71,8.7-140,51.9-200.4c34.5-48.1,85.6-71.5,136.8-95.2c17.7-8.2,35.7-16.3,54.2-22.6c32.6-11.1,44.1-36,45.3-67
		c1.2-29.1,0.4-58.3,0.1-87.5c-0.1-5.3-1.2-11-3.4-15.9c-16.6-36.3-33.4-72.6-50.6-108.5c-2.8-5.8-7.4-13.9-12.6-15.2
		c-68.7-17.3-80.1-74-91.2-131c-1.9-10-1.6-20.6-1.4-31c0.8-50.4,10.9-64.3,55.6-79.3c-5-40-12.7-79.6-14.4-119.5
		c-6.6-147.9,68.6-230.6,182.7-275.6c105.7-41.7,213.4-42.8,321.6-8.4c36.8,11.7,64.8,32.6,78.8,70.1c2.5,6.8,9.3,14.1,16,17
		c65.9,29.2,88.4,85.9,94.5,151.2C1107.7,548.4,1099,603.8,1075.4,658.3z M927.3,456.2c-78.9,33.9-154.8,55.5-236.1,51.6
		c-35.6-1.7-71.2-4.7-106.9-5.3c-45.6-0.9-63.7,10.7-73.8,55.8c-9.4,42.7-11.7,87-17.8,130.4c-1.8,13.2-6,25.9-9.1,38.9
		c-10.7-7-21.5-13.9-32.1-21c-2.3-1.6-3.7-4.9-6-5.8c-10.7-4.3-22.6-12.5-32-10.3c-7.3,1.7-14.6,16.2-16.6,25.9
		c-9.2,45.3,0.6,88.3,26.8,125.3c9.4,13.3,29.2,23.2,45.9,26.3c16.2,3,19.3,9.3,25.1,22.8c19.7,45.9,36.2,95.5,65.9,134.5
		c110.6,145.4,269.9,144.9,377.5-0.5c28.1-38,43.2-85.9,62.1-130.3c6.5-15.2,10.5-25.4,30-26.3c12.6-0.6,27.4-8.1,36.4-17.3
		c36.8-37.2,47.5-84.1,41.7-134.6c-3.1-27.1-26.7-36.8-49.4-21.3c-8.2,5.6-13.5,15.3-21.4,21.6c-5.9,4.8-13.8,7.4-20.8,10.9
		c-3.4-6.9-9.4-13.6-9.8-20.7C1002.7,616.6,955.1,540.7,927.3,456.2z M1236.2,1511.7c2.2-104.9-20.4-174.5-86.3-222.9
		c-42.1-30.8-93.6-49-141.4-71.5c-4.5-2.1-14.7,3.4-20,7.9c-30.6,26.1-57.4,58.1-91.1,78.6c-137.1,83-152.4,82-285.4,2.7
		c-41.3-24.6-76.4-59.6-115.6-90.8c-156.3,59-233.5,100.6-228.7,296C589.7,1511.7,911.9,1511.7,1236.2,1511.7z M1037.7,673.5
		c-0.5,0.7,3.3-3.2,5.6-7.9c28.9-59.9,39.5-123.8,30-188.8c-7.2-49.2-27.7-93.5-81.7-111.6c-8.1-2.7-16.6-12.6-19.7-21
		c-13.6-36.9-40.9-57.6-77-67.6c-119.6-33-235.3-24.4-344.7,36.8c-52,29.2-88.4,72.7-104.1,130.8c-21,77.5-10.4,153.8,13.8,229
		c0.9,2.7,4.7,4.4,10.6,9.5c0-21.1-2.6-38.3,0.5-54.5c7.4-37.3,15.4-74.7,27.4-110.6c9.5-28.2,35-41.2,63.8-43.1
		c27.2-1.8,55.1-3.8,81.7,0.5c89.1,14.1,173.1-2.3,255.3-35.8c32.6-13.3,45-9.9,58.3,23.4C985.8,533,1011.6,604.3,1037.7,673.5z
		 M561.7,1073.1c-8.8,43.2-17.5,86.2-27.4,134.6c43,49.6,114.8,99.3,182.6,120.8c16.3,5.2,35.8,10.7,51.3,6.5
		c71.9-19.5,133.5-57.9,185.9-110.9c15.5-15.7,24.5-31.5,8.5-53.5c-7.2-10-9.6-24.1-12-36.8c-3.8-21.3-5.8-42.9-8.9-65.8
		C821.7,1184.9,696.3,1198.8,561.7,1073.1z"/>
</g>
</svg>
