<?xml version="1.0" encoding="utf-8"?>
<!-- Generator: Adobe Illustrator 25.0.0, SVG Export Plug-In . SVG Version: 6.00 Build 0)  -->
<svg version="1.1" id="Layer_1" xmlns="http://www.w3.org/2000/svg" xmlns:xlink="http://www.w3.org/1999/xlink" x="0px" y="0px"
	 viewBox="0 0 1500 1500" style="enable-background:new 0 0 1500 1500;" xml:space="preserve">
<path d="M959.6,1209.3c21,9.2,41.5,18.6,62.4,27.3c122.9,51.1,177.5,146.2,179.7,276.1c0.4,22.6-6.7,30.9-30.2,31
	c-279.4,0.9-558.7,2.4-838.1,4.6c-27,0.2-35.2-9.3-35.1-35.7c0.2-142.6,70.1-242.6,206.5-292.9c10.8-4,21.5-8.3,31.4-12.1
	c-56-5.1-112.1-8-167.4-16.1c-65.9-9.6-62.2-10.9-50.9-76.9c12.3-71.8,18.3-144.8,25.2-217.4c8.5-89.3,8.6-179.8,24.3-267.7
	c20.5-114.6,73.4-214.9,181.2-272.3c217.6-116,527.2-39,585.1,265.5c13,68.7,17.2,139.3,22.4,209.3c7.9,105.1,10.2,210.6,37,313.4
	c7.6,29.2,2.2,37.3-27.6,40.8C1097.9,1194.3,1030,1201.4,959.6,1209.3z M1166.4,1162.1c-3.3-15.5-5.8-24.2-7.1-33.1
	c-8.5-56.6-19.2-112.9-24.4-169.7c-9.4-101.3-8.8-204-24.4-304.3c-28.8-185.2-154.7-311-344.9-317.1
	c-167-5.3-287.4,70.8-348.2,225.4c-29.1,73.9-37.7,151.8-40.8,230.5c-2.7,66.7-4.9,133.4-10.8,199.8C360.9,1048,350.8,1102,342,1163
	c66.5,4.1,133.5,8.5,200.7,11.7c9.2,0.4,21.7-2.3,27.6-8.4c18.5-19.3,16.8-62.5-2.8-80.9c-41.3-39-67.7-86.9-88.4-139
	c-4-10.1-14.6-20.4-24.6-24.7c-26.3-11.2-45.3-28.4-55-54.9c-24.5-67,7.5-121.5,76.5-138.7c115.5-28.8,200.4-99.5,261.6-200
	c19.4-31.9,32.9-31.8,52.3,0.5c13.4,22.1,26.4,44.8,42.9,64.6c56.8,68.1,120.6,125.3,215.9,132.1c12.3,0.9,26.5,9.7,35.5,19.1
	c54.2,56.5,32.6,149.8-39.9,178.2c-7.7,3-17.7,8.7-20.1,15.5c-20.9,58.4-50.8,110.1-96.8,152.8c-21.1,19.6-10.4,46.4-0.7,67.4
	c4.3,9.2,23.6,16.6,35.8,16.1C1029.5,1171.8,1096.6,1166.5,1166.4,1162.1z M762.6,544.4c-74.1,112.9-168.9,190.9-302.2,215
	c-8.2,1.5-18,7.3-22.7,14.2c-35,52-12.3,115.2,35.2,125.1c12.1,2.5,23.9,17.9,31,30.2c17.4,30.2,28.4,64.4,48.2,92.8
	c85.5,123.2,231.9,145.1,344.9,55c45-35.9,74.5-81.6,94.2-134.4c9.1-24.5,20.5-42.5,49.2-49.8c32.1-8.2,47.3-40.4,43.6-77.6
	c-3.9-39.9-20.1-55.5-58.4-64.3c-30.2-6.9-61.7-14.4-88.6-29.1C862.1,680.8,807.2,618.6,762.6,544.4z M1172.2,1518.9
	c7.1-139.2-76.2-242.8-223.1-279.8c-47.7,71.1-115.1,107.3-201.1,106.5c-87.5-0.8-153.2-42.1-199.9-113.7
	c-188.9,60.6-230.7,191.9-217.6,287C610.5,1518.9,890.6,1518.9,1172.2,1518.9z M618,1123.5c-13.5,30.6-26.7,60.4-41.6,93.8
	c70.2,132.5,263.8,136.5,348.8,4.9c-14.9-34.1-28.9-66-43-98.3C795.6,1172.4,705.3,1174.5,618,1123.5z"/>
</svg>
