<?xml version="1.0" encoding="utf-8"?>
<!-- Generator: Adobe Illustrator 25.0.0, SVG Export Plug-In . SVG Version: 6.00 Build 0)  -->
<svg version="1.1" id="Layer_1" xmlns="http://www.w3.org/2000/svg" xmlns:xlink="http://www.w3.org/1999/xlink" x="0px" y="0px"
	 viewBox="0 0 1500 1500" style="enable-background:new 0 0 1500 1500;" xml:space="preserve">
<path d="M1007.1,1162.5c25.7,11.3,50.9,22.8,76.6,33.5c150.8,62.7,217.7,179.4,220.5,338.7c0.5,27.7-8.2,37.9-37,38
	c-342.7,1.1-685.4,3-1028.1,5.7c-33.1,0.3-43.2-11.4-43.1-43.8c0.3-174.9,86-297.6,253.3-359.3c13.3-4.9,26.4-10.2,38.5-14.9
	c-68.7-6.3-137.5-9.8-205.3-19.7c-80.9-11.8-76.3-13.4-62.4-94.3c15.1-88.1,22.4-177.6,30.9-266.7c10.4-109.5,10.5-220.6,29.8-328.4
	c25.1-140.6,90-263.6,222.3-334C770-25,1149.8,69.5,1220.8,443c16,84.3,21.1,170.9,27.5,256.7c9.7,128.9,12.5,258.3,45.4,384.5
	c9.3,35.8,2.7,45.7-33.8,50.1C1176.8,1144.2,1093.5,1152.9,1007.1,1162.5z M1260.8,1104.6c-4.1-19-7.1-29.7-8.7-40.6
	c-10.4-69.4-23.5-138.5-29.9-208.2c-11.5-124.3-10.8-250.3-29.9-373.3c-35.3-227.2-189.8-381.5-423.1-389
	C564.3,87,416.6,180.3,342,370c-35.7,90.7-46.2,186.2-50.1,282.8c-3.3,81.8-6,163.7-13.3,245.1c-6,66.8-18.3,133-29.1,207.9
	c81.6,5,163.8,10.4,246.2,14.4c11.3,0.5,26.6-2.8,33.8-10.3c22.7-23.7,20.6-76.7-3.4-99.3c-50.7-47.8-83-106.6-108.5-170.5
	c-4.9-12.4-17.9-25-30.2-30.3c-32.3-13.7-55.6-34.8-67.5-67.4c-30-82.2,9.2-149,93.9-170.1c141.7-35.3,245.8-122,320.9-245.3
	c23.8-39.1,40.3-39,64.2,0.6c16.4,27.1,32.4,55,52.6,79.2c69.7,83.5,148,153.7,264.8,162c15.1,1.1,32.5,11.9,43.5,23.4
	c66.5,69.3,40,183.8-48.9,218.6c-9.4,3.7-21.7,10.7-24.6,19c-25.6,71.6-62.3,135.1-118.8,187.5c-25.9,24-12.8,56.9-0.8,82.7
	c5.3,11.3,28.9,20.4,43.9,19.8C1092.8,1116.5,1175.1,1110.1,1260.8,1104.6z M765.4,346.9c-90.9,138.5-207.2,234.2-370.7,263.7
	c-10.1,1.8-22.1,9-27.8,17.4c-42.9,63.8-15.1,141.3,43.2,153.5c14.8,3.1,29.3,22,38,37.1c21.3,37,34.9,79,59.1,113.8
	c104.9,151.1,284.5,178,423.1,67.5c55.2-44,91.4-100.1,115.6-164.9c11.2-30,25.2-52.1,60.4-61.1c39.4-10.1,58-49.5,53.5-95.2
	c-4.8-49-24.7-68.1-71.6-78.9c-37.1-8.5-75.7-17.7-108.7-35.7C887.5,514.2,820.2,437.9,765.4,346.9z M1267.9,1542.4
	c8.7-170.8-93.5-297.8-273.7-343.2c-58.5,87.2-141.2,131.6-246.7,130.6c-107.3-1-187.9-51.7-245.2-139.5
	c-231.7,74.4-283,235.4-266.9,352.1C578.9,1542.4,922.4,1542.4,1267.9,1542.4z M588.1,1057.3c-16.6,37.5-32.8,74.1-51,115.1
	c86.1,162.5,323.6,167.4,427.9,6c-18.3-41.8-35.4-81-52.7-120.6C805.9,1117.3,695.1,1119.9,588.1,1057.3z"/>
</svg>
