<?xml version="1.0" encoding="utf-8"?>
<!-- Generator: Adobe Illustrator 25.0.0, SVG Export Plug-In . SVG Version: 6.00 Build 0)  -->
<svg version="1.1" id="Layer_1" xmlns="http://www.w3.org/2000/svg" xmlns:xlink="http://www.w3.org/1999/xlink" x="0px" y="0px"
	 viewBox="0 0 1500 1500" style="enable-background:new 0 0 1500 1500;" xml:space="preserve">
<g>
	<path d="M350.4,563.5c-5.4-25.5-11.9-56.3-18.8-88.9c-7.5,2.5-13.5,4.6-19.6,6.6c-28.5,9.4-38.7,1.6-35.7-28.9
		c11.2-112.8,67.5-201.7,152.7-271.9C542.4,87,673.2,36.5,821.6,44.3c100.8,5.4,186.1,42.6,234.2,139.5c3.3,6.6,7.4,15.3,13.2,17.6
		c77.7,31.5,100.5,100.4,106.3,172.3c5.4,66.8-4.6,134.8-8,205.4c45.5,16.7,67.8,58.8,54.6,122.4c-13.8,66.6-46.1,118.4-117,137.6
		c-7.7,2.1-16.7,10.4-19.4,17.9c-23.8,66.5-60,124.1-112.9,171.8c-32.7,29.5-17.6,80.5,23.4,97.4c57.5,23.8,115.9,47.3,169.4,78.6
		c74.8,43.8,98.5,120.7,110.4,201c5.3,35.9,4.9,72.6,7.3,108.9c1.4,21.1-7.5,28.9-29.3,28.9c-334.8-0.5-669.6-0.5-1004.5,0
		c-20.6,0-33.8-7.3-32.8-27.3c4.8-99.2,10-198.4,79.6-279.6c41.3-48.2,97.5-69.8,154.4-90.6c10.3-3.8,21.1-5.9,31.6-9.1
		c54.8-16.9,63.3-29.3,58-87.3c-0.7-7.7-5-16.8-10.5-22.1c-52.4-50.3-94.7-107.1-118.5-176.8c-2.6-7.5-13.7-15.4-22.1-17.2
		c-108.9-23.1-130.9-168-87.8-233.2C311.1,585.4,331.3,577.3,350.4,563.5z M955.8,382.3c-58.6,52-131.5,94.4-212.7,121
		c-39.4,12.9-80.2,21.8-120.7,30.9c-8.2,1.8-22.2-1.3-25.9-7c-3.5-5.5,1.2-18.2,5.3-26.3c7.1-14,16.5-26.8,27.1-43.3
		c-32.9,13.6-60.5,33.7-89,35.2c-72.7,3.7-93,48.4-103.8,109c-8.6,47.9-11.3,47.5-46.9,16.8c-28.9-24.9-61.7-16.9-70.2,19.8
		c-5.1,22-6.3,46.4-2.8,68.7c8.6,54.8,43.4,84.7,98.3,93.9c9.2,1.6,20.6,15.1,23.5,25.2c26.5,91.2,86.5,156.8,158.7,213.9
		c62,49.1,132.6,58,206.3,41.2c121.2-27.7,199.7-106.6,244.8-219.4c12.6-31.4,20.6-55,62.2-62.1c54.2-9.2,85.3-71.9,79.5-142.7
		c-1.2-14.5-9.8-36-20.7-40.3c-13.5-5.4-37.6-2.1-48.7,7.4c-27.2,23.3-40.4,12-52.7-13.1C1030.1,534.7,992.9,458.2,955.8,382.3z
		 M1252.6,1511.5c-3.3-39.9-3.8-76.4-9.9-112c-13.1-76.4-42.7-144.7-115.6-182.4c-43.6-22.6-90.2-39.5-136.1-57.1
		c-6.5-2.5-20.9,2.5-25.1,8.6c-83.1,118.9-301.9,143.2-405,35.9c-40.5-42.1-71.4-41.2-114.8-21c-9.9,4.6-20.8,6.9-31,10.9
		c-137.9,53.4-168.3,178.7-161.5,317.2C584.6,1511.5,915.7,1511.5,1252.6,1511.5z M398.1,587.1c2.7-1.1,5.4-2.1,8-3.2
		c9.4-28,17.1-56.7,29.1-83.6c4.8-10.7,17.7-21,29.2-25c49.4-17.3,99.8-31.5,149.3-48.4c16.5-5.6,30.8-17.5,47.2-23.2
		c7.4-2.5,19.2,1,25.7,6c3,2.3,0.2,16-3.5,22.5c-11.7,20.3-25.2,39.7-40.3,63.1c10.2-1.2,15.6-1.3,20.8-2.5
		c108.7-26.3,205.8-74.9,289.2-150.2c7.3-6.6,22.6-14.4,27.4-11.3c8.5,5.5,15.5,18.6,16.8,29.3c10.8,87.8,59,158.9,102.9,240.9
		c11-15,21.2-23.7,24.6-34.5c21.4-67.7,35.8-137.2,18.1-207.5c-14.2-56.5-31.2-114-99.2-132.1c-6.6-1.8-12.8-11.6-15.8-19
		c-25.5-63.1-74.1-99.2-137-118.1C837.1,74.4,782.6,73.4,727.3,83c-174.1,30.3-308.9,116.4-391.2,275.8
		c-12.6,24.3-16.9,53-28.5,91.2c43.7-28.4,50.4-4.9,56.1,20.2c5.8,25.6,11,51.4,18,76.7C385.5,560.7,392.5,573.7,398.1,587.1z
		 M576,1068.2c-3.4,16.3-3.3,31.8-9.7,43.8c-20,36.9-0.7,58,26.4,78.6c87.4,66.5,230.9,63.6,316.5-6.6c24.4-20,38.5-41.1,22.1-73.7
		c-6-12-6.3-26.8-9.4-41C807,1131.8,692.1,1146.5,576,1068.2z"/>
</g>
</svg>
