<?xml version="1.0" encoding="utf-8"?>
<!-- Generator: Adobe Illustrator 25.0.0, SVG Export Plug-In . SVG Version: 6.00 Build 0)  -->
<svg version="1.1" id="Layer_1" xmlns="http://www.w3.org/2000/svg" xmlns:xlink="http://www.w3.org/1999/xlink" x="0px" y="0px"
	 viewBox="0 0 1500 1500" style="enable-background:new 0 0 1500 1500;" xml:space="preserve">
<g>
	<path d="M414,719.5c-4.5-21.4-10-47.3-15.8-74.8c-6.3,2.1-11.4,3.9-16.5,5.5c-24,7.9-32.5,1.3-30-24.3
		c9.4-94.8,56.8-169.6,128.4-228.6c95.4-78.5,205.3-121,330.1-114.4c84.8,4.5,156.5,35.8,196.9,117.3c2.8,5.5,6.2,12.9,11.1,14.8
		c65.3,26.5,84.5,84.4,89.4,144.9c4.5,56.2-3.9,113.3-6.7,172.7c38.3,14,57,49.4,45.9,102.9c-11.6,56-38.8,99.6-98.4,115.7
		c-6.5,1.8-14,8.7-16.3,15.1c-20,55.9-50.5,104.3-94.9,144.5c-27.5,24.8-14.8,67.7,19.7,81.9c48.3,20,97.5,39.8,142.4,66.1
		c62.9,36.8,82.8,101.5,92.8,169c4.5,30.2,4.1,61,6.1,91.6c1.2,17.7-6.3,24.3-24.6,24.3c-281.5-0.4-563-0.4-844.6,0
		c-17.3,0-28.4-6.1-27.6-23c4-83.4,8.4-166.8,66.9-235.1c34.7-40.5,82-58.7,129.8-76.2c8.7-3.2,17.7-5,26.6-7.7
		c46.1-14.2,53.2-24.6,48.8-73.4c-0.6-6.5-4.2-14.1-8.8-18.6c-44.1-42.3-79.6-90.1-99.6-148.7c-2.2-6.3-11.5-12.9-18.6-14.5
		c-91.6-19.4-110.1-141.3-73.8-196.1C380.9,737.9,397.9,731.1,414,719.5z M923,567.1c-49.3,43.7-110.6,79.4-178.8,101.7
		c-33.1,10.8-67.4,18.3-101.5,26c-6.9,1.5-18.7-1.1-21.8-5.9c-2.9-4.6,1-15.3,4.5-22.1c6-11.8,13.9-22.5,22.8-36.4
		c-27.7,11.4-50.9,28.3-74.8,29.6c-61.1,3.1-78.2,40.7-87.3,91.7c-7.2,40.3-9.5,39.9-39.4,14.1c-24.3-20.9-51.9-14.2-59,16.6
		c-4.3,18.5-5.3,39-2.4,57.8c7.2,46.1,36.5,71.2,82.7,79c7.7,1.3,17.3,12.7,19.8,21.2c22.3,76.7,72.7,131.8,133.4,179.9
		c52.1,41.3,111.5,48.8,173.5,34.6c101.9-23.3,167.9-89.6,205.8-184.5c10.6-26.4,17.3-46.2,52.3-52.2c45.6-7.7,71.7-60.5,66.8-120
		c-1-12.2-8.2-30.3-17.4-33.9c-11.4-4.5-31.6-1.8-40.9,6.2c-22.9,19.6-34,10.1-44.3-11C985.5,695.3,954.2,630.9,923,567.1z
		 M1172.6,1516.6c-2.8-33.5-3.2-64.2-8.3-94.2c-11-64.2-35.9-121.7-97.2-153.4c-36.7-19-75.8-33.2-114.4-48
		c-5.5-2.1-17.6,2.1-21.1,7.2c-69.9,100-253.9,120.4-340.5,30.2c-34.1-35.4-60-34.6-96.5-17.7c-8.3,3.9-17.5,5.8-26.1,9.2
		c-116,44.9-141.5,150.3-135.8,266.7C610.9,1516.6,889.3,1516.6,1172.6,1516.6z M454.1,739.3c2.3-0.9,4.5-1.8,6.7-2.7
		c7.9-23.5,14.4-47.7,24.5-70.3c4-9,14.9-17.7,24.6-21c41.5-14.5,83.9-26.5,125.5-40.7c13.9-4.7,25.9-14.7,39.7-19.5
		c6.2-2.1,16.1,0.8,21.6,5c2.5,1.9,0.2,13.5-2.9,18.9c-9.8,17.1-21.2,33.4-33.9,53.1c8.6-1,13.1-1.1,17.5-2.1
		c91.4-22.1,173-63,243.2-126.3c6.1-5.5,19-12.1,23-9.5c7.1,4.6,13,15.6,14.1,24.6c9.1,73.8,49.6,133.6,86.5,202.6
		c9.2-12.6,17.8-19.9,20.7-29c18-56.9,30.1-115.4,15.2-174.5c-11.9-47.5-26.2-95.9-83.4-111.1c-5.5-1.5-10.8-9.8-13.3-16
		c-21.4-53.1-62.3-83.4-115.2-99.3c-45-13.4-90.8-14.2-137.3-6.1c-146.4,25.5-259.7,97.9-328.9,231.9c-10.6,20.4-14.2,44.6-24,76.7
		c36.7-23.9,42.4-4.1,47.2,17c4.9,21.5,9.2,43.2,15.1,64.5C443.5,717.1,449.4,728.1,454.1,739.3z M603.7,1143.9
		c-2.9,13.7-2.8,26.7-8.2,36.8c-16.8,31-0.6,48.8,22.2,66.1c73.5,55.9,194.2,53.5,266.1-5.5c20.5-16.8,32.4-34.6,18.6-62
		c-5-10.1-5.3-22.5-7.9-34.5C797.9,1197.3,701.3,1209.7,603.7,1143.9z"/>
</g>
</svg>
