<?xml version="1.0" encoding="utf-8"?>
<!-- Generator: Adobe Illustrator 25.0.0, SVG Export Plug-In . SVG Version: 6.00 Build 0)  -->
<svg version="1.1" id="Layer_1" xmlns="http://www.w3.org/2000/svg" xmlns:xlink="http://www.w3.org/1999/xlink" x="0px" y="0px"
	 viewBox="0 0 1500 1500" style="enable-background:new 0 0 1500 1500;" xml:space="preserve">
<style type="text/css">
	.st0{fill:none;stroke:#000000;stroke-width:18.5667;stroke-linecap:round;stroke-linejoin:round;stroke-miterlimit:10;}
	.st1{fill:none;stroke:#000000;stroke-width:2;stroke-linecap:round;stroke-linejoin:round;stroke-miterlimit:10;}
	.st2{fill:none;stroke:#000000;stroke-width:18.3826;stroke-linecap:round;stroke-linejoin:round;stroke-miterlimit:10;}
	.st3{fill:none;stroke:#000000;stroke-width:18.5795;stroke-linecap:round;stroke-linejoin:round;stroke-miterlimit:10;}
	.st4{fill:none;stroke:#000000;stroke-width:18.7186;stroke-linecap:round;stroke-linejoin:round;stroke-miterlimit:10;}
</style>
<g>
	<path class="st4" d="M1100.2,470.8c61.1-169.8,16.9-356.4-118.6-427.4c-124.4-65.3-363.2-58.9-458.2,33
		C409.2,186.8,337.1,296.1,383.7,457.8"/>
	<path class="st4" d="M1087.2,470.8c-67.6-17.4-69.1-82.8-89.7-130.9c-32.1-74.8-72.8-115.4-158.2-78.4c-14.6,6.3-38.1-5.6-51.1,2
		c-79.4,45.6-156.5-53.6-235.2-1.2c-81,53.9-55.4,177.5-154.6,225c-42.9,20.5-47.4,90.6-12.5,124.8c62.1,60.8,81,143.9,129,210
		c128.6,177.2,339.4,177.5,467.2-0.1c49.8-69.3,68.7-156.8,129.5-222.4c30.1-32.4,22-79.8-11.3-115.6"/>
	<path class="st4" d="M566.1,900.7c-28.5,195.2-187.8,235.8-338.7,286.7C8.8,1261-4.9,1279.7-7.2,1500"/>
	<path class="st4" d="M748.4,1200.4c-37.8,137.6,115,65.4,132.6,114.5c71.8-62.1,146.2-126.6,219-189.7
		c97.8,53.7,218.5,48.9,312.8,114.3c0,0,94.3,46,94.3,234.8"/>
	<path class="st4" d="M409.7,1135.2c60.4,69.9,116.8,143.8,201.6,194.4c41.6-7,89.3-57,137.1,1"/>
	<path class="st4" d="M527,1057.1c59.3,41.4,106.8,101.1,182.4,117.3"/>
	<path class="st4" d="M930.8,900.7c13,52.1,26.1,104.2,39.1,156.3"/>
	<path class="st4" d="M943.9,1070.1c-41.3,51-92.2,87.5-156.3,104.2"/>
	<path class="st4" d="M774.5,1369.7c45.6,31.5,5.6,105.8,65.1,130.3"/>
	<path class="st4" d="M696.3,1395.8c-8.7,30.4-17.4,60.8-26.1,91.2"/>
</g>
</svg>
