<?xml version="1.0" encoding="utf-8"?>
<!-- Generator: Adobe Illustrator 25.0.0, SVG Export Plug-In . SVG Version: 6.00 Build 0)  -->
<svg version="1.1" id="Layer_1" xmlns="http://www.w3.org/2000/svg" xmlns:xlink="http://www.w3.org/1999/xlink" x="0px" y="0px"
	 viewBox="0 0 1500 1500" style="enable-background:new 0 0 1500 1500;" xml:space="preserve">
<style type="text/css">
	.st0{fill:none;stroke:#000000;stroke-width:18.5667;stroke-linecap:round;stroke-linejoin:round;stroke-miterlimit:10;}
	.st1{fill:none;stroke:#000000;stroke-width:2;stroke-linecap:round;stroke-linejoin:round;stroke-miterlimit:10;}
	.st2{fill:none;stroke:#000000;stroke-width:18.656;stroke-linecap:round;stroke-linejoin:round;stroke-miterlimit:10;}
	.st3{fill:none;stroke:#000000;stroke-width:18.3826;stroke-linecap:round;stroke-linejoin:round;stroke-miterlimit:10;}
	.st4{fill:none;stroke:#000000;stroke-width:18.5756;stroke-linecap:round;stroke-linejoin:round;stroke-miterlimit:10;}
	.st5{fill:none;stroke:#000000;stroke-width:18.5795;stroke-linecap:round;stroke-linejoin:round;stroke-miterlimit:10;}
	.st6{fill:none;stroke:#000000;stroke-width:18.5194;stroke-linecap:round;stroke-linejoin:round;stroke-miterlimit:10;}
	.st7{fill:none;stroke:#000000;stroke-width:18.7186;stroke-linecap:round;stroke-linejoin:round;stroke-miterlimit:10;}
	.st8{fill:none;stroke:#000000;stroke-width:18.5641;stroke-linecap:round;stroke-linejoin:round;stroke-miterlimit:10;}
</style>
<g>
	<path class="st8" d="M969.6,854c8.2,26,16.4,51.9,24.6,77.9c210.9-59.9,237.8-131.3,219.3-284.4
		c-20.7-172.1-58.3-338.2-150.2-493.1C983.2,19.4,858.1-38.3,724.1,26.9c-12.1,5.9-25.5,11.7-38.7,12.7
		C472.6,56,427.2,97.2,374.1,298.1c-31.5,119.4-35.2,241.2-52.4,361.8c-18.4,129.8,23,204.8,156.9,219.9"/>
	<path class="st8" d="M879.2,918.6c83.6-71.2,134.6-154.1,117.3-271.5C977.7,519.3,977.8,386.4,879,285.7
		c-90.1-91.8-256.8-78-335.9,25.5C498.1,370.1,478,444,416.4,495c-33.3,27.6-32.5,93.4-0.4,124.5c85.3,82.6,93.6,214.5,192.2,278.7
		c-4,125.9-44.2,212.3-181.2,214.2c-34.9,0.5-42.3,35.4-64.6,51.7"/>
	<path class="st8" d="M1447.7,1500c-25.9-160.1-98.9-243.1-288.3-324.8c-51.8,65.9,23.4,199.5-112.2,221.4"/>
	<path class="st8" d="M452.8,1396.6c-121-25.6-94-125.3-89.1-209.7c-195.8,40.3-281.7,130-311.4,313"/>
	<path class="st8" d="M969.6,1254.5c-146.4,17.7-292.9,17.7-439.3,0"/>
	<path class="st8" d="M1137.6,1164.1c-21.7-42-66.1-47.6-107.2-75.2c-34.7,138.7-67.1,268.4-99.5,398.2"/>
	<path class="st8" d="M995.5,1099.5c-83.6-25-107.5-91.2-104.7-190.6c-98.8,40.7-185.6,49.6-269.9,9.7"/>
	<path class="st8" d="M478.7,1125.3c30.1,120.6,60.3,241.2,90.4,361.8"/>
	<path class="st8" d="M1111.8,1396.6c68.4,43.5-11.7,68.5-12.9,103.4"/>
</g>
</svg>
