<?xml version="1.0" encoding="utf-8"?>
<!-- Generator: Adobe Illustrator 25.0.0, SVG Export Plug-In . SVG Version: 6.00 Build 0)  -->
<svg version="1.1" id="Layer_1" xmlns="http://www.w3.org/2000/svg" xmlns:xlink="http://www.w3.org/1999/xlink" x="0px" y="0px"
	 viewBox="0 0 1500 1500" style="enable-background:new 0 0 1500 1500;" xml:space="preserve">
<g>
	<path d="M417.5,1055c16.6-42.1,46.7-70.7,82.4-92.3c-12.1-18.8-24.1-37.4-36.4-56.6c0,13.2,0,25.9,0,40.8
		c-7.3-5.4-13.4-9.3-18.8-14c-35.7-31.1-63.6-67.6-77.5-113.6c-8.1-26.8-8.8-54.2-5.9-81.8c4.3-41.3,17.2-80.4,29.5-119.8
		c14.3-45.6,26.2-91.9,39.9-137.6c12.4-41.1,25.5-82.2,48.7-118.8c48.1-76,115.6-124.1,204.6-141.3c39-7.5,78-8.2,116.5,2.1
		c11.4,3.1,21.6,10.6,32.5,15.9c3.6,1.7,7.5,3.7,11.3,4c41,3.2,75.9,19.4,104.7,48.7c23.4,23.8,37.1,53.3,49.8,83.4
		c17.5,41.2,28.8,84.4,40.4,127.4c14.4,53.3,36.8,103.7,56.8,154.9c11.2,28.7,20.5,58.2,24.3,88.9c5.4,43-3.8,83.1-25.6,120.4
		c-13,22.1-26.6,43.9-46,61c-8.8,7.8-19.1,13.9-28.7,20.8c-0.9-0.4-1.9-0.9-2.8-1.3c-0.6-12-1.2-23.9-1.8-35.8
		c-10.2,15.8-20.6,31.8-30.3,46.8c14.4,10.6,30.3,21.1,44.9,33.4c15.5,13.1,29,28.2,38.2,46.6c1.9,3.9,4.3,8,4.6,12.2
		c0.5,5.9,3.7,6.5,8.4,7.5c59.9,12.5,116.2,33.4,163.7,73.5c29,24.4,48,56,62.8,90.3c26.6,62,44.9,126.6,57.1,192.8
		c6.2,33.4,10.9,67.1,16.1,100.7c2.1,13.4-2.8,18.6-16.8,18.6c-68.8,0-137.7,0-206.5,0c-249.5,0-499,0-748.4,0
		c-91,0-182.1,0-273.1,0c-13.7,0-18.6-4.3-17.6-17.9c1.2-16.2,3.1-32.5,6-48.5c6.3-34.9,12.3-69.8,20.5-104.3
		c12.6-53.4,29.1-105.6,52.1-155.6c24.7-53.7,65.8-90.2,117.5-116.2C347.8,1073.8,382.1,1061.5,417.5,1055z M1076.9,1078.9
		c-2.4,14.5-3.8,28.8-7.3,42.6c-10.5,41.7-31.9,78-57.1,112.3c-44.8,60.9-100.1,108.7-170.9,137.2c-38.4,15.4-78.1,22.1-119.3,18
		c-41.1-4.1-78.9-18.3-113.9-39.8c-48-29.4-88.3-67.6-122-112.3c-35.5-47-64.1-97.4-69.6-158c-0.6,0-1.3-0.1-2,0
		c-32.9,7.2-64.2,19-94,34.6c-42.5,22.3-78.5,51.2-99.8,95.8c-21.4,44.9-36.8,91.8-49.6,139.6c-11.6,43.5-20.3,87.5-26.2,132.1
		c-1.3,9.6-2.3,19.2-3.6,29.2c57.1,0,113.3,0,170,0c0.1-2.5,0.4-4.6,0.3-6.8c-0.8-43.2-3.8-86.1-10-128.9
		c-7.6-52.8-19.2-104.5-40.3-153.8c-2.6-6-5.2-12.2-6.3-18.5c-0.5-2.9,1.9-7.3,4.4-9.4c1.3-1.1,6.2,0.7,8.4,2.6
		c2.4,2.1,3.9,5.5,5.2,8.6c16,37.9,28.5,76.8,36.6,117.2c9.8,48.8,15.7,98,18.2,147.6c0.7,13.8,1.5,27.6,2.2,41.4
		c280.6,0,560.7,0,842.9,0c0-16.5-1-32.6,0.2-48.6c2.9-36.1,6-72.3,10.6-108.2c6.6-52.3,24-101.8,42.2-151c1-2.7,2.5-5.3,4.5-7.4
		c3.5-3.8,7.8-4.6,12.5-1.6c4.6,2.9,3.7,6.6,2,10.8c-4.8,11.9-9.6,23.8-14.2,35.9c-19.5,51.2-30.6,104.3-35.7,158.7
		c-2.2,23.3-4,46.6-5.3,70c-0.8,13.7-0.1,27.6-0.1,41c56.4,0,111.9,0,168,0c-3.9-25.6-7.6-50.3-11.5-75
		c-10.9-67.6-30.5-132.7-54.6-196.6c-21.5-57-59.8-98.1-114.3-124.9C1145.1,1097.2,1111.7,1085.5,1076.9,1078.9z M516.6,665.7
		c-1,0-2.1,0.1-3.1,0.1c-5.6-12.3-11-24.7-17-36.8c-3.1-6.2-6.6-12.5-11.1-17.7c-5.5-6.4-9.3-5.6-15.3,0.2
		c-8.7,8.5-8.4,19.6-8.4,30.1c0,33.7,7.1,66.1,21,96.8c3.4,7.5,9.5,14.1,15.5,19.8c6.3,6,12,4.5,16.8-2.7c1.7-2.6,2.6-6,4.8-8.1
		c3-2.8,6.9-6.5,10.2-6.4c2.4,0.1,4.7,5.7,6.9,9c0.6,0.9,0.6,2.3,0.8,3.5c2,13.7,4.2,27.4,5.8,41.2c4,35.5,18.9,66,42.3,92.6
		c20,22.7,45.3,39,69.5,56.7c26,19,54.2,30.8,86.9,31.5c30.9,0.7,59.5-4.8,84.3-24.4c7.5-5.9,14.8-11.9,22.2-17.9
		c19.3-15.7,40.2-29.4,55.7-49.3c20.6-26.5,36.2-55.2,39.2-89.4c1.3-14.3,3.2-28.5,4.4-42.8c0.6-6.2,3.2-10.3,9.3-11.3
		c5.8-0.9,8.8,3.2,10.9,7.9c1,2.2,1.8,4.5,2.9,6.7c3.9,7.6,9.2,10,15.9,4.9c5.8-4.5,11.2-11.1,14-17.9c13.3-32.2,20.2-66,20.6-100.7
		c0.1-8.8-2.9-18.2-6.7-26.3c-4.5-9.5-11.9-9.8-19.4-2.4c-8.1,7.8-12.6,17.5-15.5,28.4c-2.3,8.5-5.9,16.6-9,24.9c-1.2,0-2.3,0-3.5,0
		c-2.1-5.6-5.4-11.1-6.3-17c-4.8-32-9.2-64-13.3-96c-2.8-22.2-5.3-44.4-18.3-63.7c-3.8-5.6-6.9-11.8-10.7-17.4
		c-32.3-48-65.6-95.4-92.2-147c-0.2-0.3-0.8-0.4-1.8-0.8c-1.9,2.3-3.7,4.8-5.9,7c-20,20.7-39.1,42.3-60.3,61.7
		c-37.5,34.2-81.5,58.9-126.2,82.4c-30.3,15.9-60.4,32.3-90.4,48.7c-2.4,1.3-5.3,4.2-5.5,6.6c-2,17.2-3.1,34.4-4.9,51.6
		c-2.3,20.5-4.6,41.1-7.8,61.5C522.7,651.1,519.1,658.3,516.6,665.7z M948.4,1033c0.4-1.3,0.7-1.7,0.7-2.2c0.7-4.6,1.2-9.2,2.1-13.7
		c1.6-7.9,6.7-12.6,12.4-11.7c6.6,1,10.1,7.2,8.7,15.9c-4.1,25-10.7,49.4-21.1,72.5c-22.3,49.7-52.3,94.2-88.9,134.7
		c-31.4,34.7-67.8,62-110.6,80.7c-2.8,1.2-7.4,1.2-9.9-0.3c-20.9-12.3-42.1-24.3-62.2-38c-30.8-21-54.3-49.8-77.1-78.7
		c-40-50.6-69-106.8-80.1-171.1c-1.5-8.8,0.9-14.1,7.5-15.6c5.8-1.4,11.6,3.8,13.1,11.7c1.1,5.6,2.2,11.2,3.4,17.8
		c20.9-20.9,20-46.1,18.4-71.9c-44.7,10.4-81.7,32.2-109.4,68.4c-8.3,10.9-16.1,22.5-16.3,37.4c-0.2,26.3,6.2,51.1,17,74.8
		c34.7,76.4,88.8,136.3,158,182.8c33.8,22.7,71.1,36.8,111.9,40.5c41.2,3.8,80.3-4.2,117.9-21c73.6-32.9,127.5-87.9,170.3-154.3
		c24.7-38.2,42.7-79.4,38.7-126.7c-0.6-7.2-2.6-15.1-6.4-21.2c-25.4-40.9-63.4-64.8-108.9-78.1c-2.7-0.8-5.5-1.2-8.4-1.8
		C927.7,989.4,927.9,1013.6,948.4,1033z M587.4,921.9c0,23.8,0.3,47-0.1,70.2c-0.4,25.5-10.8,46.5-30.5,62.9
		c-1.6,1.3-2.9,4.7-2.3,6.4c15.2,45.2,40,83.8,81.7,108.3c66.5,39.1,135.8,39.7,205.6,9.1c49.5-21.7,78-62.6,96.9-111.4
		c2.8-7.2,2.7-11.6-3.9-17.7c-18.6-17.2-28.2-39.2-28.1-65c0.1-22.6,0-45.1,0-69.5c-18,14.3-34.5,26-49.3,39.6
		c-43,39.6-93.3,49.8-149.2,38.7c-27.6-5.5-50.7-20.6-73.1-36.4C619.3,945.7,603.9,934,587.4,921.9z M866.7,1190.2
		c-78.4,40.9-157.9,42.3-236.9,1.1c10,11.1,20.1,23.4,31.2,34.6c23.1,23.4,50.5,41.1,78.7,57.6c6,3.5,10.2,2.9,15.8-0.1
		C799.6,1260,837.1,1228.8,866.7,1190.2z"/>
	<path d="M740.8,768.3c-18-0.3-34.6-4.9-48.2-17.5c-4.5-4.2-7.1-9.2-4.3-15.7c1.9-4.4,4.9-5.5,7.4-1.4c8.5,13.8,22.1,18.7,36.8,20.7
		c15.8,2.2,31.2-0.3,45-8.7c4.9-3,8.9-7.4,13.4-11c1.4-1.1,2.9-2.2,4.3-3.2c1.1,1.7,2.6,3.2,3.3,5.1c2.1,6.1-1,10.5-5.6,13.8
		C777.4,761.6,760.3,768.5,740.8,768.3z"/>
	<path d="M791.4,840.5c-11.1,1.1-22.2,2.9-33.3,3.3c-13.5,0.4-27.1-0.3-40.7-0.7c-11.2-0.4-22.3-0.8-33.5-1.9
		c-3-0.3-5.7-3.2-8.5-4.9c2.7-1.7,5.5-4.9,8.2-4.9c12.6,0,25.2,1.3,37.9,1.4c13.8,0.1,27.6-0.5,41.5-0.8c14.3-0.3,28.6-0.8,42.9-0.6
		c2.4,0,6.6,3.2,6.6,4.8c0,4.2-3.6,5.6-7.9,5.3c-4.4-0.3-8.8-0.1-13.2-0.1C791.4,841,791.4,840.8,791.4,840.5z"/>
	<path d="M868.7,471.8c-28.4-4-56.2-2-83.9,2.7c-22.5,3.8-44.9,4.9-67.6,1.2c-11-1.8-22.3-2.2-33.4-3.6c-3.8-0.5-7.6-1.9-11.4-2.8
		c0.1-1,0.2-1.9,0.3-2.9c7.8-0.3,15.7-1,23.5-0.7c22.6,1,45.2,3.3,67.8,3.2c17.2-0.1,34.4-3.1,51.6-4.7c16.1-1.5,32.1-1,47.4,5
		C865.1,469.9,866.9,470.9,868.7,471.8z"/>
	<path d="M776.9,519c-1.8-7.2,3.2-9.4,7.5-9.8c16.4-1.5,33-3.7,49.3-2.5c13.3,1,26.3,6.3,39.3,10.1c1.6,0.4,2.6,2.8,3.8,4.3
		c-2,0.4-4.3,1.6-6,1c-29.4-9.6-59.1-10.6-89.1-3.4C780.4,519,778.9,518.9,776.9,519z"/>
	<path d="M717.8,519.2c-8-1.2-15.1-2.2-22.2-3.2c-24.8-3.5-49.4-2.3-73.9,2.6c-2,0.4-4.5-1.2-6.7-1.9c1.9-1.7,3.5-4.3,5.7-4.8
		c28.6-6.5,57.4-5.7,86.2-1.2C711,511.3,717.1,510.7,717.8,519.2z"/>
	<path d="M625.8,847.8c-11.5-11-10-23.9-6.6-36.9c4.4-16.7,15.2-29.7,25.9-42.6c2.3-2.8,4.6-5.7,7.3-8.1c1.3-1.1,3.6-1.1,5.5-1.6
		c0,2,0.7,4.4-0.1,5.9c-1.5,2.7-4,4.8-6,7.2c-11.2,13.2-22.4,26.5-26.5,43.8c-1.3,5.5-0.6,11.5-0.5,17.3
		C624.9,837.8,625.5,842.8,625.8,847.8z"/>
	<path d="M863.1,849.4c0.4-8.4,0.8-15.3,1.2-22.3c0.5-10.5-2.2-20.4-7.9-29c-6.9-10.5-15-20.3-22.6-30.3c-1.2-1.5-2.9-2.7-3.8-4.4
		c-0.6-1.3-0.3-3.1-0.4-4.7c1.8,0.1,3.6,0.1,5.3,0.2c0.4,0,0.8,0.5,1.2,0.9c19.8,20.8,36.1,43.3,35.5,73.9
		C871.6,839.8,869.9,845,863.1,849.4z"/>
	<path d="M941.9,695.1c0,3,0.9,6.4-0.1,9c-4.8,12.7-9.9,25.2-15.3,37.6c-0.8,1.9-3.7,2.8-5.7,4.2c-0.5-2.6-2.2-5.7-1.4-7.8
		c4.1-9.8,8.9-19.4,13.3-29.1c2.2-4.8,4.1-9.6,6.1-14.5C939.8,694.8,940.9,695,941.9,695.1z"/>
	<path d="M545.2,695.1c2,4.8,3.9,9.8,6.1,14.5c4.1,9,8.6,17.9,12.4,27c0.9,2.3,0.1,5.3-1.6,8.2c-9.4-15.4-16.1-31.4-19.7-48.5
		C543.3,695.9,544.2,695.5,545.2,695.1z"/>
	<path d="M797.4,1040.5c-1.4,2.9-2.5,6.2-4.4,8.8c-10.2,13.4-25,18.3-40.7,19.8c-22.2,2.1-42-3.8-56.5-22c-1.4-1.8-1-4.9-1.5-7.4
		c2.1,1.2,4.9,1.8,6.2,3.5c15.2,19.5,44.9,26.9,71.5,14.7c4.1-1.9,8-4.6,11.3-7.7c3.9-3.6,7-8,10.4-12.1
		C795,1038.9,796.2,1039.7,797.4,1040.5z"/>
</g>
</svg>
