<?xml version="1.0" encoding="utf-8"?>
<!-- Generator: Adobe Illustrator 25.0.0, SVG Export Plug-In . SVG Version: 6.00 Build 0)  -->
<svg version="1.1" id="Layer_1" xmlns="http://www.w3.org/2000/svg" xmlns:xlink="http://www.w3.org/1999/xlink" x="0px" y="0px"
	 viewBox="0 0 1500 1500" style="enable-background:new 0 0 1500 1500;" xml:space="preserve">
<g>
	<path d="M562.5,868.5c-24.5-33.9-28.8-74.2-38.1-113.3c-9.5,4.6-17.2,1.5-23.5-4.2c-7-6.3-14.3-13-19-21
		c-20.4-34.7-32.9-72.1-33.3-112.6c-0.1-12.7,2.8-25.6,5.5-38.2c2.3-10.9,9.9-17.8,20.7-20.3c5-1.1,6-3.1,5.2-8
		c-5.3-33.4-11.6-66.6-15.2-100.2c-4.9-46,6.3-88.5,31-127.9c37.5-60.1,92.7-92.7,160.5-106.8c25.6-5.3,51.3-10,77.5-8.6
		c41.8,2.2,83.5,6.4,122.6,23.3c19.1,8.2,36.4,18.6,44,39.9c0.8,2.3,4.4,4.7,7.1,5.3c40,8.5,65.6,33.4,80.1,70.5
		c15.3,39.2,22.3,80.1,21.5,122c-0.4,23.1-3.4,46.2-5.3,69.3c-0.5,6.3-1,12.6-1.6,19.1c1.3,0.5,2.7,1.5,4,1.4
		c17.7-0.6,21.6,13,24.9,25.5c5.7,21.7,6,43.7,0.4,65.8c-6.6,26.1-12.7,52.6-26.9,75.8c-5.8,9.5-14.2,17.9-22.8,25.1
		c-5.4,4.4-13.4,5.6-22.3,9.1c-2.8,12.5-6.5,27.7-9.7,43c-4.1,19.5-11.3,37.6-21.3,54.7c-6.1,10.5-6.1,11.2,4.2,16.5
		c29.5,15.1,47.3,38.6,54.3,71c3.1,14.4,7.8,28.5,12.4,42.6c0.9,2.7,4.5,5.3,7.4,6.5c55.8,23.1,112,45.5,167.5,69.3
		c28.2,12,55,27,79,46.4c16.9,13.7,28.4,31.4,38.4,50.1c21.3,39.8,35,82.6,47.2,125.9c14.8,52.6,26.1,106.1,35.2,160
		c3.4,20.4,7.1,40.7,10.6,61c2.3,13.5-2.8,19.6-16.7,19.7c-115,0-230,0-345,0c-296.9,0-593.8,0-890.6,0c-2,0-3.9,0-5.9,0
		c-9.9-0.2-13.5-3.9-12.2-13.6c2.3-17.1,4.2-34.3,7.6-51.2c10.2-50.4,20.4-100.9,31.9-151c10.8-46.9,26.2-92.4,44.9-136.8
		c16.2-38.4,43-66.6,78.5-87.6c46.2-27.3,95.2-48.4,144.8-68.5c18.9-7.7,37.9-15.1,56.9-22.3c5-1.9,7.8-4.5,9.1-9.8
		c4-16.2,8.4-32.4,13-48.5c8.5-29.9,27.1-51.2,54.9-64.7C557.9,871.1,559.8,870,562.5,868.5z M621.4,374.3
		c-28.4,0.2-52.2,8.3-73.4,23.8c-2.6,1.9-4.4,6.4-4.6,9.8c-1.7,35.8-3.1,71.6-4.3,107.4c-1.2,36.6-2,73.2-3.3,109.7
		c-0.1,2.8-2.6,7.5-4.4,7.7c-3.5,0.5-8.2-0.7-10.9-3c-2.6-2.3-3.4-6.8-5-10.3c-4.7-10.9-8.9-22-14.3-32.6
		c-3.8-7.4-11.2-7.3-18.6-6.3c-6.6,0.9-6.8,6.2-8.1,10.6c-1.2,4.2-2.3,8.5-2.8,12.8c-4.1,38.4,5,73.9,23.8,107.1
		c4.6,8.1,10.9,15.6,17.6,22.1c5.7,5.6,8.6,3.9,11.3-3.6c1.2-3.3,3.1-6.7,5.6-9c4.9-4.4,10.9-1.8,12.1,4.8
		c2.4,13.2,4.5,26.4,7.3,39.4c3.9,18.2,6.7,37,12.9,54.4c14.3,39.8,41.2,70.8,73.7,97.2c13.6,11,27.2,22,44,28.2
		c29.8,10.9,60.5,11.3,91.5,8c18.1-2,35.2-7.3,50.2-18c28.3-20.3,53.5-43.7,75-71.3c31-39.9,39.3-86.9,43.6-135.3
		c0.3-3.7-0.3-8.3,4.8-8c3.9,0.2,7.7,2.5,11.4,4.2c0.8,0.4,1,2.1,1.4,3.3c2.9,8.5,4.9,9.3,12.3,4.4c9.5-6.3,16.3-15.1,19.8-25.6
		c8-23.6,15.5-47.5,22.1-71.5c4-14.7,2.9-29.9-1.6-44.7c-1.8-5.9-5.3-9.3-11.7-10.4c-8-1.4-13.1,2.5-17.4,8.2
		c-8.2,11.1-14.2,23.3-15.5,37.2c-0.7,7.6-5.5,9.6-11.4,9.4c-6.4-0.2-6.7-5.4-7-10.7c-1.3-30-2.5-60-4.5-89.9
		c-1.8-26.5-4.4-52.9-7.2-79.3c-2.3-21.4-7.6-41.9-19.3-60.5c-12.7-20.1-31.4-36.4-38.2-60.9c-18.1,16.1-38.2,26.6-59.1,35.2
		c-34.4,14.1-71.2,17.3-107.9,18.8c-25.8,1-51.7,0.1-77.6,0.4c-6.3,0.1-12.6,1.4-18.9,1.8c-1.7,0.1-4.3-0.8-4.9-2
		c-0.6-1.2,0.5-3.8,1.6-5C614,379.9,617,377.9,621.4,374.3z M1007.3,1017.6c0.8,3.7,0.9,5.1,1.3,6.5c4.2,14.7,9.1,29.2,12.6,44
		c3,12.4-3.7,20.7-16.3,22.7c-4.1,0.6-8.2,1.2-12.2,2.1c-65.2,14.6-118,49-159.6,101c-7.5,9.3-14.4,19-22,28.3c-1.6,1.9-4.6,2.7-7,4
		c-0.4-2.7-1.8-5.7-1.1-8.2c1.4-5.3,3.4-10.7,6-15.6c29.3-52.8,71.7-91.2,127.4-114.4c19.6-8.2,40-14.4,61.2-22
		c-8.3-29.9-16.7-60.7-25.6-91.4c-5.1-17.4-10.6-34.8-16.8-51.8c-5.1-13.7-17.4-20-29.6-26.1c-0.7,1.1-1.1,1.4-1.1,1.9
		c-3,23.1-2.3,46.2,1.3,69.2c0.2,1.2,0.3,2.7,1.1,3.4c8.9,7.3,7.2,16.8,5.3,26.3c-5.6,28.4-20.1,51.8-40.4,72.1
		c-36,35.8-66.6,75.7-90.2,120.8c-13.8,26.3-25.1,53.4-26.4,83.4c-1.3,29.4-1.5,58.9-1.6,88.4c-0.2,44.9-0.1,89.8-0.1,134.7
		c0,2.3,0,4.6,0,6.7c130.8,0,260.6,0,390.5,0c1.4-64.7,7.1-128.4,19.4-191.4c12.2-62.9,29.9-124,60.6-181.5
		c-7-5.5-13.7-11.3-20.8-16.2c-30.5-21.2-64.1-36.5-98.4-50.3C1086.2,1048.4,1047.5,1033.4,1007.3,1017.6z M478.4,1021
		c-2.4,0.6-3.4,0.7-4.2,1.1c-38.8,16-77.8,31.5-116.4,48.2c-34.6,15-68.1,32.2-97.8,56.1c-3.4,2.8-4.4,5-2.2,9.1
		c18,34.6,30.6,71.3,41,108.8c11.6,41.5,20.6,83.5,25,126.3c3.1,31,6,62,8.6,93.1c1.1,13.3,1.5,26.6,2.1,39.7
		c129.1,0,257.6,0,386.2,0c0.1-1.5,0.2-2.4,0.2-3.4c-0.1-25.4,0.6-50.8-0.5-76.2c-1-25.1,1.6-50-3.1-75.4c-4-21.8,0.7-45.2,0.6-67.9
		c-0.1-10.5-1.1-21.4-4.1-31.4c-12.2-40.3-34.4-75.5-58.1-109.7c-20.5-29.7-47-54-72.1-79.7c-21.1-21.7-29.5-49.3-32.8-78.6
		c-1-9.2,3.8-14.9,11.7-18.1c1.9-0.8,4-3.9,4-6.1c0.4-11.9,0.7-23.9,0-35.9c-0.5-8.7-2.5-17.4-3.9-26.4c-23.4,9.3-35,26.6-41.2,48
		c-7.5,26.1-14.8,52.3-21.7,78.6c-3.9,14.9-6.9,30.1-10.3,45.4c11.2,3.9,21.2,7.5,31.3,10.8c57.5,18.7,106.7,49.7,142.6,99.2
		c8.6,11.9,14.9,25.5,21.5,38.6c1.4,2.7-0.7,7.1-1.1,10.7c-2.8-2.1-6.2-3.6-8.2-6.3c-15.9-21.7-32.2-42.8-52.7-60.5
		c-25.1-21.6-52.3-39.8-83.7-50.9c-21-7.4-42.4-13.9-63.5-21c-11.7-3.9-14.2-8.5-11-20.5c1.8-6.8,4.4-13.4,6.4-20.1
		C473.7,1038.4,475.9,1030.1,478.4,1021z M589.1,906.3c0,10.3-0.7,21.2,0.2,32c1.8,22.7-0.9,44.7-7.7,66.3
		c-1.7,5.3-1.2,9.6,1.1,14.5c12.4,26.3,35.4,43.1,55.8,62.1c4,3.7,9.1,6.7,14.3,8.6c48.1,18.2,97.3,25.4,147.9,12.3
		c18.3-4.8,37.1-10.1,51.5-22.8c20.4-17.9,37.1-39.3,51.4-62.5c1.4-2.3,2-5.5,1.9-8.2c-1-26-2.5-52.1-3.4-78.1
		c-0.4-12.1-0.1-24.2-0.1-37.2c-4.2,4-7.5,7.1-10.8,10.1c-13.8,12.7-27,26.1-41.4,38c-16.2,13.3-33.6,25-54.9,29
		c-26.5,5-53.2,6.8-80,4.1c-26.2-2.6-51.2-9.5-72.4-26C624.5,934.8,606.9,920.5,589.1,906.3z M1256.3,1145.1
		c-53.4,114.5-69.9,234.8-70.1,358.5c58.9,0,116.5,0,174.7,0c-0.2-2.7-0.2-5.1-0.6-7.4c-4.2-24.2-7.9-48.4-12.8-72.5
		c-11.4-56.9-22.6-113.8-41-169C1293.9,1217.1,1282.3,1178.8,1256.3,1145.1z M312.4,1503.6c-2.2-124.7-17.2-246.1-71.5-362.1
		c-6.3,11.3-12.3,20.6-16.9,30.4c-21,45.3-37,92.4-48.2,141c-11.6,50.4-21.7,101.1-32.2,151.7c-2.6,12.7-4.2,25.7-6.4,39
		C195.8,1503.6,253.3,1503.6,312.4,1503.6z M753.9,1261c8.3-52.7,34.5-96.4,63.3-139.5c-48.9,12.7-97.1,7.4-146.1,0.4
		c28.9,44,57.9,87.4,69.8,139.1C745.2,1261,749.3,1261,753.9,1261z M754.9,1362.3c-2.9,0-4.3,0-5.8,0c-10.7,0-10.9,0-10.8,10.5
		c0.4,42.9,0.9,85.9,1.4,128.8c0,0.6,0.5,1.3,0.9,2.3c2.2,0,4.3,0,6.5,0c2.3,0,4.6,0,7.8,0C754.9,1456.2,754.9,1409.7,754.9,1362.3z
		 M756.5,1342.5c0-19.3,0-37.7,0-56.2c0-9.2-6.9-6-11.6-6.6c-5-0.6-8.4,0.6-8.2,6.9c0.3,14.9,0.1,29.7,0.3,44.6
		c0,3.8,0.7,7.5,1.2,11.3C744.3,1342.5,749.6,1342.5,756.5,1342.5z"/>
	<path d="M742.8,766.8c-9.9-1.9-19.7-2.9-28.8-5.8c-14.8-4.7-26.9-20.5-27-33.9c0-2.2,1.8-4.4,2.7-6.7c2,1.3,5.2,2.2,6,4
		c5.2,12.2,14.8,19,27.2,20.7c11.9,1.6,24.1,1.9,36.1,1.1c9.9-0.6,17.4-6.9,22.9-15.3c1.1-1.6,1.7-3.9,3.1-4.8c2.7-1.8,6-2.9,9-4.3
		c1,2.9,3.4,6.1,2.9,8.8c-2.7,14.2-9.9,25.7-24.1,30.4C763.1,764,752.8,764.9,742.8,766.8z"/>
	<path d="M864.3,450.6c-3.8,0.9-7.6,2.3-11.4,2.6c-35.3,3.5-70.6,7.3-106,9.8c-10.4,0.7-21.2-1.8-31.5-4.2
		c-24.3-5.7-48.9-8.2-73.8-7c-1.7,0.1-3.5,0.3-5.1-0.1c-1.4-0.4-2.6-1.6-3.9-2.4c1-1.1,1.9-2.8,3.1-3.2c2.8-0.9,5.7-1.3,8.6-1.5
		c22-1.1,44-1,65,5.9c24.6,8.1,48.8,4,73.4,1c25.1-3.1,50.4-3.8,75.6-5.4c1.9-0.1,3.8,0.9,5.8,1.4
		C864.2,448.6,864.2,449.6,864.3,450.6z"/>
	<path d="M674.3,822.6c12.5-6.1,25.2-1.8,38-1.4c19.7,0.7,39.4,0.8,59.1,0.5c8.7-0.1,17.4-2.3,26.1-2.8c4.4-0.2,9.2,0.8,13.4,2.3
		c1.6,0.6,3.5,4.7,2.9,6.1c-0.9,1.9-5.2,4.4-6.1,3.8c-9.4-6.6-18.5-0.7-27.5,0.5c-28,3.9-55.8,2.8-83.6-1.9c-4.6-0.8-9.5,0-14.2,0.6
		C675.8,831.1,673.9,829.5,674.3,822.6z"/>
	<path d="M605,500.1c6.4-6.7,15-8.9,23.7-10.6c23.9-4.7,47.8-5.5,71.5,0.6c4.2,1.1,11.8,1.2,9.6,8c-2,6.1-7.8,1.7-11.8,0.6
		c-27.4-7.4-54.8-6.2-82,0.9c-3.4,0.9-6.9,1.6-10.4,2.3C605.4,501.4,605.2,500.8,605,500.1z"/>
	<path d="M780.7,503c0.6-7,5.4-8.6,9.6-9.6c17.8-4.3,36-6.4,54.3-4.1c9.5,1.2,18.9,3.9,28.2,6.5c3.6,1,6.7,3.6,9.5,6.7
		c-16.7-2.2-33.4-6.2-50-6.1C815.3,496.5,798.4,500.5,780.7,503z"/>
	<path d="M616.7,820.7c1.7-27.5,15-49.2,34-67.9c1.4-1.3,4.6-0.7,7-1.1c-0.7,2.8-0.6,6.2-2.1,8.3c-7.1,9.8-15.1,18.9-21.8,29
		c-6.9,10.4-11.6,21.7-8.5,35c0.8,3.6,2.7,9.5-3.5,10.8c-0.9,0.2-3.4-6.8-5-10.5C616.3,823.3,616.7,821.9,616.7,820.7z"/>
	<path d="M872.2,822.5c-0.6,3.2-1,7.1-2.1,10.7c-0.3,1.1-2.7,2.4-3.9,2.2c-1.2-0.2-2.9-2-3.1-3.3c-0.4-3.4,0.3-6.9-0.2-10.2
		c-1.1-8.5-0.6-18-4.5-25.2c-6.9-12.7-16.4-23.9-24.9-35.7c-1-1.4-2.6-2.4-3.2-3.9c-0.6-1.6-0.3-3.6-0.4-5.3c2-0.1,4.3-0.8,6-0.2
		c1.9,0.7,3.5,2.6,4.9,4.2c14,15.9,25.1,33.4,29.7,54.4C871.3,814,871.5,817.9,872.2,822.5z"/>
</g>
</svg>
