<?xml version="1.0" encoding="utf-8"?>
<!-- Generator: Adobe Illustrator 25.0.0, SVG Export Plug-In . SVG Version: 6.00 Build 0)  -->
<svg version="1.1" id="Layer_1" xmlns="http://www.w3.org/2000/svg" xmlns:xlink="http://www.w3.org/1999/xlink" x="0px" y="0px"
	 viewBox="0 0 1500 1500" style="enable-background:new 0 0 1500 1500;" xml:space="preserve">
<g>
	<path d="M1126.8,522.5c53.4,17.3,75.2,54.3,65.8,110.7c-10.4,62.5-23.9,127.5-84.7,157.7c-35.3,17.5-48.8,39.9-58.7,72.5
		c-5.6,18.3-12.4,37.4-23.7,52.5c-33.8,45.5-25.3,95.1-18.3,145c5.5,38.9,29.8,63.2,63.1,79.6c26.9,13.2,54.3,25.2,81.8,37
		c127.5,54.7,182.1,156.7,185.8,290c2.3,82.7,4,70.4-70.6,70.4c-354.4,0-708.8-0.1-1063.2-0.1c-42.1,0-45.9-1.6-41.6-43.9
		c4.9-48.8,9.4-98.6,23-145.4c25.5-87.9,92.4-138.4,172.8-175.3c38.2-17.6,79.4-35,109.3-63.1c43-40.5,42.7-126.9,13.8-178.4
		c-19.2-34.2-32-72-48.2-108c-3.1-6.9-7.7-16.7-13.6-18.4c-87.6-26.3-105.2-98.9-115.3-175.2c-2.7-20.5,2.1-42.4,6.2-63.2
		c1.9-9.8,8.6-23.7,16.3-26.3c51.8-17.8,26.3-56.9,27-89.1c1.1-54.5-3.9-110.2,5.8-163.3c20.3-111,98.2-175,198.8-212.6
		c107-39.9,217.8-48.9,328.6-20c91.5,23.9,158.8,90.4,222.2,153.9c46.5,46.6,46,118.5,38.9,183.9
		C1143.5,435.7,1134.4,477.6,1126.8,522.5z M449.9,531c3,0.8,5.9,1.5,8.9,2.3c-0.4,7.5,0.1,15.3-1.5,22.5c-4,18.5-9,36.7-13.6,55
		c-14.7-12.3-28.9-25.3-44.4-36.5c-11.5-8.3-28-22.6-36.5-19.3c-11.8,4.6-23.4,22.2-25.8,35.9c-10.2,58.1,7,110.9,43.5,155.7
		c10.7,13.2,31.8,21.7,49.3,24.4c18,2.7,25.8,7.6,29.8,25.5c15.2,68.4,47.2,128.1,94.5,180c88.4,97,224.8,134.1,345.1,40.1
		c67.5-52.8,113.2-119.8,134.1-202.7c6.6-26.3,12.2-48,46.5-41.8c5.2,1,12.1-3.4,17.4-6.7c45.5-27.9,80.6-136.9,59.9-185.4
		c-12.7-29.6-32.7-33-53-8.7c-6.9,8.3-12.1,18.3-20,25.2c-8.2,7.1-18.8,11.5-28.4,17.1c-2.8-9.6-7.6-19.1-8-28.8
		c-4-92.8-25.5-179.8-80.2-257c-13-18.4-23.8-24-46.9-14.3c-38.1,15.9-77.9,29.5-118.3,37.8c-81.2,16.6-162.4,8.2-242.9-9.6
		c-41.9-9.2-55.3-5.5-69.5,35.4C472.6,427.2,462.9,479.7,449.9,531z M1303.5,1507.4c9.7-161.2-39.3-274.4-270.2-346
		c-49.8,77.7-127,120.3-207.7,160c-46.2,22.7-88.7,20.8-135.2,3.5c-91.3-34.1-168.1-88.9-234.5-158
		c-205.1,80.2-284,184.2-258.1,340.6C565.5,1507.4,933.3,1507.4,1303.5,1507.4z M1078.3,550.1c31.3-70.3,45.6-143.6,38.9-218.6
		c-3.3-36.9-11.2-85.1-35.8-106c-58.1-49.3-113.6-105.2-187.2-133.9c-4-1.6-8-3.3-12.1-4.2C774.7,62.7,668.8,68,565.9,107
		C467.1,144.4,396,210.6,385.4,320.3c-5.9,61.2,1.6,124.1,7.1,185.9c1.5,17.3,17.6,33.2,26.9,49.8c6.7-72.3,14.2-139.9,46.8-202.4
		c23.2-44.3,42.5-52.8,91.3-43.2C677.2,334.2,795.6,340,910.4,287c47.9-22.1,52.5-19.6,82,24C1041.4,383.1,1073,461.2,1078.3,550.1z
		 M540,1007.3c-16.1,48.2-32.1,96.5-51.9,155.8c47.9,32.7,102.7,71.5,159,108c70.6,45.7,140.5,43.7,212.7-1.4
		c51.3-32,102.8-62.4,137.7-113.4c4.6-6.7,8.4-17.7,6.2-24.7c-13.8-43.7-29.4-86.9-43.7-128.1c-54.1,51.4-118.8,98.4-206.7,99
		C665.2,1103.1,595.9,1062.5,540,1007.3z"/>
</g>
</svg>
