<?xml version="1.0" encoding="utf-8"?>
<!-- Generator: Adobe Illustrator 25.0.0, SVG Export Plug-In . SVG Version: 6.00 Build 0)  -->
<svg version="1.1" id="Layer_1" xmlns="http://www.w3.org/2000/svg" xmlns:xlink="http://www.w3.org/1999/xlink" x="0px" y="0px"
	 viewBox="0 0 1500 1500" style="enable-background:new 0 0 1500 1500;" xml:space="preserve">
<path d="M469.2,1150.7c-77.9-12.7-150.4-34.1-206.9-85.8c-27.4-25.1-43.5-62.8-62.6-96.1c-3.3-5.7,2.2-18.4,6.5-26.2
	c16.3-29.1,43.2-55.8,49.2-86.7c14.7-75.3,21-152.4,28.7-228.9c14-140.8,32.4-280.1,124.3-396C508.1,105.3,638.8,52.6,798.2,69.3
	c198.3,20.8,346.4,163.9,386.7,386.5c21.4,118.4,30.9,238.9,49.1,357.9c5.8,37.8,22,74,34,110.8c1.7,5.1,5.8,9.6,9.6,13.7
	c10.7,11.5,32.9,26.4,30.6,33.4c-8.2,24.7-21.4,49.5-38.6,69.2c-49.8,56.9-118.6,81.1-188.8,101.3c-13.8,4-28.2,6-39.7,8.4
	c48.5,27.4,100.9,52.3,148.1,84.7c77.5,53.2,113.6,132.2,124.6,223.8c2.4,20,4.4,40,6.4,60.1c2.8,29.2-8.5,42.6-39.9,42.7
	c-191.7,0.6-383.4,3.1-575,4.1c-160.3,0.8-320.6,0.3-480.9,0.4c-40.6,0-45.6-5.6-44.6-47.3c4.1-172,84.8-289.4,247.7-348.3
	c11.5-4.2,22.8-8.9,34-13.5C463.3,1156.3,464.7,1154.5,469.2,1150.7z M1011.8,1115.4c0.9,3.1,1.8,6.1,2.7,9.2
	c53.2-18.2,108.3-32.6,159.1-56.1c31.2-14.4,56.6-42,83.3-65.1c12.4-10.7,11.1-21.6,0.2-37.1c-18.2-26-36.8-55-43.5-85.3
	c-13.4-60.7-18.3-123.3-27.9-184.9c-15.1-96.7-23.5-195.4-48.5-289.5c-60.8-228.9-269.6-351.2-495.8-292.8
	c-158.1,40.9-251.5,153.5-287.3,306.4c-27.3,116.6-31.7,238.4-50.5,357.3c-8.2,52.1-20.8,105.3-42.6,152.9
	c-21.7,47.3-27.4,58.7,10.5,95.7c67.1,65.3,151.3,86.9,241.6,90.8c6.3,0.3,15-4.8,19.1-10.1c22.4-29,15.5-92.2-5.4-123
	c-33.6-49.4-62.6-102-93.8-153.1c-6-9.9-11.6-22.2-20.7-27.7c-59.2-35.5-91.8-103.2-80.3-170.7c8.2-47.9,39.2-70.7,89-70.1
	c13.7,0.2,28.1-9.5,41.3-16.2c22.4-11.3,43.4-32.1,66.5-34.6c131.5-14.1,226.9-79.9,293.9-191.6c4.8-7.9,15.2-15.6,23.9-16.7
	c4.5-0.6,12,12.8,16.3,20.9c20.5,39.2,34.3,83.8,61.7,117.2c47.1,57.4,97.8,115,182.7,117.6c10.4,0.3,23.1,13.5,30.1,23.9
	c53,77.6,30.3,171-50.9,218.4c-10.3,6-20.3,17.4-24.3,28.5c-22.5,62.9-54.3,119.3-102.7,166.3c-29.4,28.5-15.8,62.2-5.6,94
	C963.1,1119,987,1119,1011.8,1115.4z M837.1,364.9c-63.6,87-152.9,161.1-275.5,175c-32.9,3.7-57.6,16.7-83,36.7
	c-15.8,12.5-41.3,20.7-61.1,18.4c-31.9-3.7-46,12-50.3,36c-8.8,49.9-1,102.6,44.3,128c38.9,21.8,51.7,52.5,66,88.1
	c9.4,23.5,22.5,46,36.6,67.1c78.3,117.4,206.9,162.7,324.9,114.4c98.5-40.3,158.1-115.7,192.6-214.4c5.5-15.9,18.4-34,32.8-41.1
	c65.4-31.9,88.3-109,46.4-169.1c-4.9-7-14.9-11.5-23.5-14.5c-26.6-9.5-57-12.6-79.9-27.5C933.5,514.2,874.3,451.3,837.1,364.9z
	 M1006.6,1183c-58.1,96.4-143.9,151.3-257.9,152.1c-114.9,0.8-203.5-50.2-260.4-150.4C290,1252.2,217.1,1344,212.9,1530.8
	c356.9,0,713.8,0,1070.5,0C1305.4,1372.1,1200.6,1240.2,1006.6,1183z M520.4,1168.3c61.6,97.8,135.1,137.1,243.3,130.3
	c92.5-5.8,161.8-48.8,209.6-131.2c-44.6-33.6-64.1-78.8-65.5-134.9c-110.3,65-217.7,68.7-327.3-1.3
	C583.8,1090.4,566,1134.9,520.4,1168.3z"/>
</svg>
