<?xml version="1.0" encoding="utf-8"?>
<!-- Generator: Adobe Illustrator 25.0.0, SVG Export Plug-In . SVG Version: 6.00 Build 0)  -->
<svg version="1.1" id="Layer_1" xmlns="http://www.w3.org/2000/svg" xmlns:xlink="http://www.w3.org/1999/xlink" x="0px" y="0px"
	 viewBox="0 0 1500 1500" style="enable-background:new 0 0 1500 1500;" xml:space="preserve">
<g>
	<path d="M515.2,781.2c-17.2,7.3-28.7,4.7-39.6-10.6c-5.9-8.2-11.3-17.3-14.6-26.8c-10.5-30.2-20.7-60.6-29.3-91.4
		c-5.7-20.5-1.6-41.2,6.3-60.8c5.2-13,18.4-19.8,34.6-18c-1.5-10.7-3-21.1-4.5-31.5c-5.2-35-8.9-70.1-6.7-105.6
		c3.3-52.5,23.8-97.2,60.6-134.7c42-42.9,93.6-67.2,151.8-78.6c68.4-13.4,135.4-8,200.2,17.5c27.9,11,51.9,28,64.5,57.1
		c0.7,1.6,2.2,3.3,3.7,3.9c40.5,15.8,63.6,46.3,74.6,87.4c9.5,35.7,12.2,72.1,8.9,108.7c-2.1,23-6,45.8-9,68.7c-0.2,1.6,0,3.3,0,5.5
		c1.9,0,3.8,0.1,5.6,0c14.6-0.8,25.9,6.2,32.3,19.3c10,20.5,9.1,41.8,4.2,62.9c-7.8,33.6-17.6,66.7-32.1,98.2
		c-3.4,7.5-7.8,14.6-12.8,21.2c-10.5,13.8-21.3,16.5-38.3,10c-2,9.8-3.3,19.5-5.9,28.9c-6.9,24.5-13.2,49.3-22.4,72.9
		c-4,10.3-5.9,20.2-6.6,30.7c-0.1,2.1,0.8,5,2.3,6.3c19.8,18,33.8,40.1,47.1,63c2.1,3.6,5.3,7.4,8.9,9
		c37.1,16.5,74.4,32.3,111.5,48.7c32.6,14.4,65.7,28.2,97.4,44.4c52.3,26.7,87.5,69,109.3,123.6c24.4,61.2,42.4,124.1,55.3,188.5
		c7.2,35.7,12.4,71.9,18.4,107.8c2.3,13.9-3.1,20.4-16.9,20.4c-416.2,0-832.4,0-1248.6,0c-12.2,0-17.5-5.4-15.5-17.9
		c6.1-38.7,11.8-77.4,19.4-115.8c11.6-58.7,28.9-115.7,48.9-172.2c23.9-67.6,69.4-114.2,133-143.9c44.2-20.7,89.7-38.7,134.3-58.6
		c18.6-8.3,36.5-18.2,54.3-28.2c4.8-2.7,8.7-7.8,11.5-12.7c11.5-20.1,21.5-41,37.6-58c0.9-1,2.1-2.6,2-3.7
		c-1.3-8.7,0.5-17.6-4.3-26.2c-13.4-24.1-19.1-50.8-24.9-77.4C519.2,802.6,517.3,791.9,515.2,781.2z M858.7,939
		c1.4,0.1,1.8,0.2,2.3,0.2c0.7-0.1,1.5-0.2,2.1-0.5c29.8-13.9,54.1-33.5,67.2-64.8c10.3-24.4,13.9-50.5,18.8-76.2
		c3.2-16.7,6-33.5,9.3-50.2c1.2-6.3,4.3-11.5,10.9-13.4c6.6-1.9,9.9,0.9,9.2,7.6c-0.3,2.7-1.7,5.4-1.2,7.9c1,5,1.6,11.5,4.9,14.2
		c4.9,4.1,11.5,1.3,15.6-3.3c4.3-4.9,9-10.1,10.9-16.1c9.4-28.8,18.4-57.8,26.6-87c4.4-15.7,6.8-32,3-48.4
		c-3.5-15.2-11.8-18-25.1-9.8c-12.5,7.8-15.8,20.3-18.8,33.2c-1.4,6.1-2.5,12.5-4.9,18.2c-1.1,2.6-4.9,5.1-7.7,5.4
		c-2.3,0.2-5.9-2.4-7.2-4.8c-2-3.7-3.1-8.2-3.6-12.4c-2.3-21.8-4.4-43.6-6.4-65.5c-2.4-26-4.6-51.9-6.9-77.9
		c-1.5-17.7-2.2-35.6-4.6-53.2c-2.9-21.2-16.3-37.2-30.1-52.4c-9.9-11-16.5-22.8-14.8-38.1c0-0.2-0.6-0.5-1.4-1.2
		c-13.4,18-31.8,28.7-52.4,36.5c-48.9,18.4-99.9,19.7-151.3,18.4c-30.2-0.8-60.5-2.3-90.7-2.1c-18.8,0.2-37.3,3.9-53.9,13.7
		c-12.4,7.2-21.3,17.3-22.6,32.1c-3.1,33.7-5.7,67.5-8.9,101.2c-2.6,26.7-5.9,53.2-9,79.8c-0.6,5.5-1.6,11.1-3,16.5
		c-1.3,4.7-3.3,10.6-9.2,9.4c-3.5-0.7-6.5-5.4-9.1-8.8c-1.3-1.8-1.2-4.6-1.9-7c-3.2-11.7-6.1-23.5-9.9-34.9
		c-2.8-8.4-10.4-9.3-18.1-9.3c-7,0-9.5,4.9-11.6,10.3c-5.4,13.7-4.2,27.9-2.1,41.9c5.4,34.8,18.5,67.3,31.8,99.7
		c1.3,3.1,2.7,6.7,5.2,8.7c3.6,2.8,8.1,6.1,12.3,6.2c5.6,0.1,8.2-5.3,9.5-10.6c0.7-3.1,0.8-6.4,2.2-9.2c1.5-3.2,3.6-6.5,6.3-8.6
		c4.9-3.9,10.4-1.3,10.9,4.9c2.6,33.4,9.8,65.9,17.8,98.2c7.2,29,17.2,56.5,42.1,75.6c11.9,9.1,24.3,17.6,37.3,27
		c0.9-4.3,0.8-7,2-8.8c1.7-2.6,4.3-4.5,6.5-6.7c1.9,2.1,4,4.2,5.7,6.4c0.7,0.9,1,2.2,1.3,3.4c4.6,20.4,17.4,33.8,36.9,39.8
		c38.2,11.9,77.3,12.3,116.3,4.9c24.4-4.6,41.4-18.7,46.7-44.2c0.3-1.6,0.9-3.6,2-4.6c2-1.8,4.7-4.3,6.7-3.9c2,0.4,4,3.6,5.1,6
		C859,934.1,858.5,936.5,858.7,939z M742.5,1507.1c148.6,0,296.1,0,443.1,0c1.4-27.1,1.5-53.8,4.4-80.1
		c4.2-38.7,9.2-77.3,15.8-115.7c7.9-45.6,20.2-90.1,39.3-132.4c4.1-9,8.8-17.7,13.3-26.5c-23.7-24-50.9-42.4-81-56.2
		c-39.5-18.1-79.8-34.5-119.8-51.6c-16.9-7.2-33.8-14.5-50.7-21.8c-0.1,0.2-0.4,0.4-0.3,0.6c0.3,1.2,0.5,2.3,0.9,3.5
		c14.5,47.3,18.9,95.9,17.5,145.1c-0.4,14-2.2,28.2-5.5,41.8c-3.9,16.2-12.3,19.2-27.2,11.6c-40.6-20.5-83.2-34.9-127.8-43.8
		c-11.5-2.3-19.8-1.2-28.9,6.9c-17.8,15.8-38,29.1-55.4,45.4c-25.3,23.5-39.1,52.3-37.9,88.3c1.4,41.2,0.2,82.5,0.2,123.7
		C742.5,1466.2,742.5,1486.4,742.5,1507.1z M738.3,1250.7c-1.3-1.1-2.4-2.1-3.6-2.9c-26.7-20.9-54.3-40.7-79.6-63.1
		c-11.9-10.5-22.1-11.1-36-7.6c-41,10.6-79.9,25.8-115.6,49c-9.6,6.3-18.1,3.8-22.7-6.6c-2.3-5.3-4-11-4.8-16.7
		c-6.7-48.3-3.1-96.3,5.4-144c2.2-12.3,5.8-24.4,8.4-35.2c-40.7,17.2-82.2,34.3-123.4,52.1c-33.9,14.7-67.7,30-97.3,52.6
		c-10,7.6-19.4,15.9-27.8,22.8c56.1,113.5,68.5,234,73.1,356.3c135.1,0,270.2,0,406.1,0c0-2.9,0-5.5,0-8.1c0-62.2,0-124.5,0-186.7
		c0-3.6,0.3-7.3,0.7-10.9C723.5,1283.6,729.5,1266.7,738.3,1250.7z M750,1231.3c22.5-19.5,43.4-39,65.7-56.7
		c29.9-23.8,55.5-51.1,75.2-83.9c12-20,18.3-41.8,20.2-64.8c1.7-20.1,2.9-40.3,4.3-60.5c0.7-10.5,1.4-21.1,2.2-33.8
		c-4.2,3-6.4,4.8-8.8,6.2c-15.2,9-30.5,17.9-45.7,27c-4.5,2.7-9.4,5.2-13.2,8.7c-13.9,13.1-29.3,23.3-48.2,27.3
		c-35.8,7.6-71.6,7.1-107.3-0.2c-20.9-4.3-40.1-11.8-54.4-28.7c-2.3-2.7-5.6-4.6-8.7-6.4c-16.1-9.6-32.2-19-48.3-28.5
		c-2.1-1.3-4.3-2.6-7.2-4.4c0,4.4-0.2,7.3,0,10.2c1.5,18,3.1,35.9,4.7,53.9c1.5,16.2,2.3,32.6,4.8,48.7
		c5.1,32.2,22.9,58.1,43.3,82.3C663.8,1169,709,1198.9,750,1231.3z M1270.5,1168c-27.3,50.4-40.2,103.9-49.7,158.3
		c-10.5,59.7-16.2,119.9-15.7,180.8c54.8,0,108.6,0,162.7,0c0-2.8,0.3-5.3,0-7.6c-2.7-18.3-5.2-36.6-8.4-54.8
		c-12-68.8-28.7-136.3-52.8-202C1297.2,1217.1,1286.4,1192.3,1270.5,1168z M295.7,1507.1c0-5.3,0.1-9.9,0-14.5
		c-1.5-49.7-5.4-99.2-13.3-148.4c-7.1-44.2-16.4-87.9-32-130c-5.8-15.5-13.2-30.4-20.3-46.4c-36.1,43.7-100.1,269.8-96.8,339.2
		C187,1507.1,240.8,1507.1,295.7,1507.1z M938.5,951.1c-1.4,17.5-2.3,33.5-4,49.5c-1.9,18.9-3.2,37.9-6.9,56.4
		c-5.9,29.3-22.7,53.4-40.4,76.8c-6.2,8.3-12.3,16.6-18.3,24.7c22.7,6.5,45.1,12.1,66.8,19.4c21.8,7.4,43,16.5,64.2,24.8
		C1012.5,1115.4,996.4,1011.6,938.5,951.1z M554.6,949.7c-26.2,36.9-45.3,76.6-53.6,120.9c-8.3,44.2-8,88.7-2.8,134.1
		c39.6-23.8,80.7-39.9,125-50.1c-4.3-5-7.9-9-11.3-13.1c-19.9-24.2-38.5-49.7-45.3-80.7c-5.1-23.1-6-47.2-8.5-70.9
		C556.7,976.6,555.8,963.2,554.6,949.7z"/>
	<path d="M800.3,722.6c7.2,2.8,9,7.9,5.7,15.7c-4.2,10-12,16.8-21.9,20.4c-27.1,9.7-54.4,9.4-81.2-1.5c-9-3.7-16.1-10.2-19.6-19.6
		c-1.1-2.9-1.3-6.8-0.3-9.7c0.8-2.3,3.8-4.5,6.2-5.2c1-0.3,3.9,3,4.7,5.2c4.6,11.8,13.5,18.1,25.4,20.8c15.2,3.4,30.5,3.9,45.7,1.1
		C782.3,746.7,789.3,741.1,800.3,722.6z"/>
	<path d="M868.4,467.4c-8-2.5-15.7-5.1-23.6-7.2c-21-5.4-42.1-3.4-63,0.5c-28.5,5.3-56.7,4.2-85-1.1c-23.8-4.5-47-3-69.5,6.4
		c-2.4,1-5.2,1.2-7.8,1.7c-0.4-0.8-0.9-1.6-1.3-2.4c2.2-1.7,4.1-3.8,6.6-5c19.4-9.3,39.9-12.3,61.1-9.6c22.9,3,45.6,8.7,68.9,6.4
		c16.2-1.6,32.3-4.4,48.5-6.4c20.5-2.5,40.4-0.3,59.3,8.2C865.7,460.4,870.4,461.4,868.4,467.4z"/>
	<path d="M825.8,844.8c-3.5,0.3-6.9,0.8-10.4,0.8c-15.1,0-30.1-0.2-45.2-0.2c-21.2-0.1-42.3-0.2-63.5,0c-10.2,0.1-20.4,0.9-30.6,1.4
		c-1.9,0.1-4,0.5-5.8,0c-1.9-0.5-3.5-1.9-5.2-3c1.1-1.7,1.9-4.6,3.4-5c5.5-1.6,11.3-3.4,17-3.5c12.9-0.1,25.8,1.3,38.7,1.2
		c19.5-0.2,38.9-1.4,58.4-1.5c11.6-0.1,23.3,0.8,34.9,1.9c3.1,0.3,5.9,3.1,8.9,4.7C826.2,842.6,826,843.7,825.8,844.8z"/>
	<path d="M657.9,755.9c-1.1,3.1-1.7,6.6-3.5,9.3c-6.4,9.8-13.5,19-19.7,28.9c-13.3,21.4-19.5,44.8-18.2,70.1
		c0.1,2.5-1.9,5.1-2.9,7.7c-1.6-2.3-4.2-4.5-4.6-7c-3.4-23,1.9-44.6,13.1-64.5c7.8-13.9,17.6-26.8,26.4-40.2
		c1.6-2.5,2.8-5.2,4.2-7.8C654.5,753.6,656.2,754.8,657.9,755.9z"/>
	<path d="M873.3,873.4c-0.3-1.8-0.8-3-0.7-4.1c3.6-35.6-8.9-65.9-30-93.6c-3.1-4.1-5.9-8.4-8.8-12.6c-2.8-3.9-2.5-7.2,2.3-9.9
		c23.6,33.1,48.9,65.5,44.4,110.1C879.9,867.6,879.9,872.2,873.3,873.4z"/>
	<path d="M607.3,517c1.5-2.1,2.5-5,4.5-6.3c18.6-11.5,39-15.8,60.7-14.6c13.7,0.7,27.1,2.5,39.5,9c3.5,1.8,7,3.8,5.1,9.6
		c-36.7-17-72.8-15-108.2,4.1C608.3,518.2,607.8,517.6,607.3,517z"/>
	<path d="M776.8,513.6c-2-6.4,3.2-7.6,7-9.1c23.9-9.2,48.3-9.9,72.9-2.7c7.2,2.1,14.1,5,20.9,8.2c2.1,1,3.3,3.9,4.8,5.9
		c-2.4-0.2-5,0.2-7.1-0.8c-23.4-11.1-47.9-13.9-73.2-9.4C793.7,507.2,785.6,510.8,776.8,513.6z"/>
	<path d="M584.7,578.8c1.1-1.4,1.9-3.2,3.3-4.1c19.7-12.7,40.8-20.5,64.6-18.9c4.6,0.3,11.8-1.1,10.7,9.2
		c-27.7-4.6-53.5,1.8-77.4,17.2C585.6,581,585.1,579.9,584.7,578.8z"/>
	<path d="M832.7,565.3c-1.4-6.5,1.8-8,5.7-8.4c23.8-2.5,45.3,3,64.2,17.8c1.7,1.3,2.5,3.7,2.8,6.9
		C882.6,568.1,858.9,560.3,832.7,565.3z"/>
	<path d="M578.5,651.4c-1.7,0.3-3.5,0.8-5.2,0.9c-6.5,0.4-13,0.8-19.4,0.7c-1.9,0-3.9-1.7-5.8-2.6c1.5-1.5,2.8-4.1,4.4-4.3
		c6.4-0.8,12.9-1.3,19.4-1c2.4,0.1,4.8,2.4,7.1,3.7C578.8,649.8,578.7,650.6,578.5,651.4z"/>
	<path d="M550,684c-1.4-9.3,13.8-18.5,26.8-16.6C569.1,676.4,558.5,677.8,550,684z"/>
	<path d="M920.4,670.3c8.8-4.3,25.1,2.6,27.7,12.1C938.8,678.4,929.6,674.4,920.4,670.3z"/>
	<path d="M946.4,653.9c-9.3-1.9-18.2-0.3-27.4-4.7C929.5,643.1,944,645.6,946.4,653.9z"/>
	<path d="M781.5,1290.5c-0.8,4.3-1.2,8.7-2.5,12.8c-0.6,1.9-2.8,4-4.7,4.6c-0.9,0.3-3.5-2.3-4.2-4.1c-3.6-8.7-3.3-17.5,0.5-26
		c0.7-1.5,2.7-3.2,4.1-3.2c1.5,0,3.8,1.7,4.2,3.1C780.2,1281.8,780.7,1286.1,781.5,1290.5z"/>
	<path d="M711,1104.4c12.8,2,25.6,5.9,38.4,5.6c12.7-0.3,25.3-4.9,38.3-6.6c-9.2,10.4-21.7,13.3-34.4,14.2
		c-15.4,1.1-30.5-0.8-43.1-10.4C710.4,1106.3,710.7,1105.3,711,1104.4z"/>
	<path d="M709.7,1049.1c2.4,0.5,5,0.4,7,1.5c20.6,11.2,41.1,8.9,61.6,0c0.7-0.3,1.3-0.9,2-1c2.4-0.3,4.7-0.4,7.1-0.6
		c-1.3,1.9-2.3,4.8-4.1,5.5c-9.7,3.8-19.3,8.2-29.4,10.1c-13.4,2.5-26.6-0.6-38.7-7.1c-2.6-1.4-4.6-3.8-6.8-5.7
		C708.9,1050.9,709.3,1050,709.7,1049.1z"/>
	<path d="M654.2,1073.9c-1.3-1.1-2.8-1.8-3.3-2.9c-6.3-16-12.5-32-18.6-48.1c-1.1-3-2.3-6.8,2.4-7.4c1.4-0.2,3.9,3.3,4.8,5.5
		c5.3,13.3,10.3,26.7,15.4,40C656.5,1065.3,659,1069.6,654.2,1073.9z"/>
	<path d="M841.9,1072.1c-0.1-2.6-1-5.4-0.3-7.6c5.5-16,11.2-31.9,17.1-47.7c0.4-1.1,2.9-1.5,4.4-2.2c0.8,1.8,2.5,3.8,2.2,5.3
		c-1.4,5.9-3.2,11.7-5.4,17.3c-4.7,11.9-9.7,23.6-14.6,35.4C844.1,1072.4,843,1072.2,841.9,1072.1z"/>
</g>
</svg>
