<?xml version="1.0" encoding="utf-8"?>
<!-- Generator: Adobe Illustrator 25.0.0, SVG Export Plug-In . SVG Version: 6.00 Build 0)  -->
<svg version="1.1" id="Layer_1" xmlns="http://www.w3.org/2000/svg" xmlns:xlink="http://www.w3.org/1999/xlink" x="0px" y="0px"
	 viewBox="0 0 1500 1500" style="enable-background:new 0 0 1500 1500;" xml:space="preserve">
<g>
	<path d="M494,999.9c-39.6-14.5-59.6-45.5-70.1-84.3c-0.8,0.4-1.6,0.7-2.5,1.1c1.2,11.4,2.7,22.7,3.6,34.1c0.3,3.3-1.2,6.8-1.8,10.2
		c-3.4-0.7-7.2-0.6-10.1-2.3c-16.5-9.6-25-25.4-32-42.2c-15.6-37.6-17.5-76.4-14.3-116.7c6.2-76.7,29-149.4,49.7-222.7
		c12.1-42.7,23.2-85.7,36.3-128c14.7-47.1,35.5-91.5,66.8-130.3c44.3-55,100.2-90.6,170.6-101.9c39.4-6.3,78.5-6.4,117.2,4.6
		c18.6,5.2,34.6,15.2,49,27.9c2.1,1.9,5.9,3.1,8.8,2.8c29-3,53.7,7.8,75.7,25c37.4,29.2,62,68,76.8,112.4
		c13.2,39.7,22.8,80.7,34.7,120.9c14.8,50,30.3,99.7,45.4,149.6c11.7,38.7,19.9,78,24.4,118.2c3.4,30.2,5.1,60.5,1,90.5
		c-4.6,32.9-14.9,64-41.6,86.7c-2.7,2.3-5.8,4.1-9.7,6.8c-6.2-15.3,2.5-28.7,1-43c-15.6,34.6-34,66.7-73.7,82.6
		c6,4,9.6,7.3,13.9,9.1c37.3,15.8,74.8,31.3,112.1,47.1c30,12.7,60.5,24.5,87.4,43.1c43.7,30.2,73.9,71.6,95.5,119.5
		c25.1,55.6,41.2,114,53.9,173.4c8.6,39.9,14.7,80.2,21.8,120.4c2.1,11.6-2.8,16.6-15.8,16.6c-72,0-144,0-216,0
		c-338.8,0-677.6,0-1016.5,0c-20.8,0-22.9-1-19.5-21.3c7.3-44.3,15.3-88.5,24.8-132.4c10.7-49.1,25.4-97.1,44.2-143.8
		c29.3-73,78.3-127.6,151-159.4c47.4-20.8,94.9-41,142.3-61.7c5.6-2.4,10.6-6.2,15.8-9.3C494.1,1001.9,494.1,1000.9,494,999.9z
		 M138,1507.3c56.1,0,111.9,0,169.7,0c-2.2-41.2-3.4-81.9-6.8-122.4c-2.6-30-7.2-59.9-12.5-89.5c-6.5-35.8-12.2-71.9-30.3-104.4
		c-1.2-2.1-1.2-5.9,0-8c3.1-5.8,9.6-5.8,13.2,0.8c6.5,12.2,12.9,24.6,17.2,37.6c17.5,53.6,25.7,109.3,30.6,165.2
		c3.4,39.3,3.5,78.9,5.1,118.4c0,0.9,0.4,1.8,0.7,3.1c282.8,0,565.4,0,848.2,0c0.2-1.3,0.5-2.3,0.5-3.2c0-54.7,2.6-109.1,10.1-163.3
		c5.4-39.3,11.8-78.4,24.4-116c5-14.8,12.8-28.7,20.1-42.6c1.1-2.1,6.5-2.1,9.9-3c0.6,3.5,2.4,7.4,1.5,10.4
		c-2.2,6.9-6.2,13.1-8.7,20c-14.4,39.2-22.1,80-27.8,121.1c-4,29.2-7.2,58.5-9.2,87.9c-1.9,28.7-1.8,57.5-2.6,86.3
		c0,0.6,0.5,1.3,0.7,1.7c56.3,0,112.3,0,169.9,0c-7.2-37.7-13.3-74.8-21.6-111.5c-12.9-57.6-29.3-114.2-52.6-168.5
		c-26.6-62-70.2-107.4-133.4-132.9c-26.1-10.5-52-21.6-78-32.3c-21-8.7-42.1-17.3-63-25.9c-1.1,9.6-1.3,18.9-3.2,27.8
		c-8.6,41.2-31.9,73.3-63.7,99.4c-47.7,39.2-103.5,58.4-164.4,64.6c-46.9,4.8-92.7-0.9-137.7-14.4c-48.9-14.7-87.9-44.4-121.6-81.5
		c-19.5-21.5-33.6-46.4-38.4-75.7c-1.1-6.6-1.3-13.3-1.9-20.6c-45.6,19.3-90.4,37.9-135,57.2c-52.2,22.6-94.4,57.1-122.5,107.3
		c-17.5,31.3-28.8,65.2-39.7,99.1C163.3,1367.3,148,1436.6,138,1507.3z M627.9,937.7c2.5-2.5,5-6.5,6.3-6.2c3.1,0.8,6.7,3.1,8.3,5.9
		c11.2,18.8,28.2,30,48.1,37.1c31.9,11.4,64.4,11.7,97,3.5c23.9-6.1,44.4-17,55.8-40.6c1.3-2.7,6.3-5,9.5-5c1.7,0,3.3,5.5,5,8.4
		c44.3-18.7,74.8-51.1,86.5-98.7c8-32.5,13-65.7,19.1-98.6c0.9-4.7,2.4-9,7.5-9.3c5.6-0.3,7.5,4.5,8.7,9.2c0.3,1.2,0.1,2.4,0.3,3.6
		c0.5,5.7,1.4,11.2,7.9,13.4c6.6,2.2,12.4-0.2,16.3-5c4.2-5.2,7.9-11.2,10.3-17.5c11.1-29.5,18.3-60,19.3-91.6
		c0.4-12-0.9-24.3-2.8-36.2c-1.2-7.9-7.7-11.2-14.9-7.9c-5.9,2.7-11.7,7.1-15.8,12.1c-9.6,11.6-13.6,26-17.3,40.4
		c-0.7,2.7-3.7,4.9-5.6,7.3c-2.6-2.2-6.7-3.9-7.4-6.6c-2.2-8.7-3.4-17.6-4.6-26.5c-5-38.1-8.5-76.4-15.1-114.2
		c-8.6-48.6-29.7-91.2-66.8-125.1c-8.4-7.7-16.3-16.1-23.6-24.9c-8.3-10.1-12.4-22.1-13.4-35.5c-6.3,13-16.7,21.5-27.8,29
		c-25.6,17.4-54.5,27.6-83.6,37.2c-38.1,12.6-75.7,26.1-109.6,48.4c-67.1,44-96.9,108.3-102.6,186.1c-0.6,7.7-1.4,15.6-3.3,23
		c-0.9,3.4-4.6,6.1-7.1,9.1c-2.4-2.9-5-5.7-7.2-8.7c-0.9-1.3-0.9-3.2-1.4-4.8c-4.9-15.7-11.1-30.7-23.9-41.9
		c-10.5-9.2-21.4-5.9-24.6,7.4c-0.7,2.8-1.3,5.8-1.2,8.6c0.8,16.8,0.8,33.7,3.2,50.3c3.6,25.3,10,50,21.6,72.9
		c2.6,5.2,7,10.2,11.8,13.3c7.9,5,14.5,1.5,16.9-7.6c0.9-3.5,1.1-7.5,2.9-10.4c1.7-2.9,5.1-6.5,7.7-6.5c2.6,0,5.4,3.9,7.7,6.5
		c1,1.1,1.1,3.1,1.4,4.8c6.8,31.3,12.9,62.7,20.7,93.7C559.5,884.8,587.1,917.3,627.9,937.7z M558.3,1000.7
		c-16.1,6.4-31.2,12.2-46.1,18.5c-1.9,0.8-3.6,3.8-4,6c-4.3,22,0.6,42.5,11.2,61.8c23.3,42.4,59.2,71.8,101.8,92.2
		c52.7,25.3,108.9,32.9,167.1,25.3c39.5-5.2,76.8-16.6,111.2-36.7c34.9-20.3,63.4-46.9,79.7-84.6c7.8-17.9,11.8-36.6,7.8-56.2
		c-0.6-2.9-2.6-6.9-4.9-8c-14.9-6.3-30-12-45.2-17.9c-4.5,8.2-4.4,15.1-1.9,22.8c2.5,7.5,4.2,15.4,5,23.3c0.3,2.7-2.8,8.1-4.7,8.3
		c-3,0.3-7.1-2.1-9.4-4.7c-2.8-3.2-3.9-7.8-6.3-11.4c-6.7-9.8-9.5-20.9-10-32.3c-0.8-21.5-0.7-42.9-1-64.4c0-1.3-0.4-2.5-0.5-3
		c-14.7,8.2-29.2,16.1-43.5,24.2c-9.7,5.5-19.1,11.3-28.8,16.7c-9.7,5.4-19.3,11.5-29.6,15.4c-29,11.1-59.3,12.8-89.9,8.6
		c-22.6-3.1-44.7-8.9-62.9-22.9c-13-10-26.9-18.1-41.1-25.9c-8.7-4.8-16.9-10.6-25.3-16c-1.7-1.1-3.5-2.1-5.8-3.4
		c0.2,3.1,0.4,5.3,0.4,7.5c0.4,26.5,1.3,53,0.9,79.5c-0.2,10.9-3.7,21.8-12.7,29.3c-2.8,2.3-7.9,4.2-10.9,3.2
		c-5-1.6-4.3-6.8-2.7-11.3c0.7-2.1,0.9-4.3,1.7-6.3C563.2,1026.4,560.8,1014.5,558.3,1000.7z"/>
	<path d="M748.1,765.9c-17.2-0.9-34.1-2.6-49.3-11.4c-8.1-4.7-13.8-10.9-13.3-20.9c0.1-2,1.7-4.9,3.3-5.4c1.8-0.6,5.6,0.5,6.2,1.9
		c11.4,24.6,34.6,20.3,54.9,22c7.3,0.6,14.9-1.5,22.2-3.3c9.3-2.3,16.7-7.3,21.4-16.2c1.1-2,4.7-4.5,6.3-4c2,0.7,3.8,3.9,4.5,6.4
		c1.4,5.8-1.4,10.3-5.6,14.2c-10.4,9.6-23.2,13.8-36.9,15.7C757.2,765.4,752.6,765.5,748.1,765.9z"/>
	<path d="M702.8,838.1c13.9,0,27.7,0.3,41.6-0.1c11.7-0.3,23.3-2.4,34.9-1.9c12.2,0.4,24.4,2.7,36.5,4.7c1.7,0.3,2.9,3.6,4.3,5.5
		c-1.9,1.2-3.8,3.3-5.7,3.4c-26.4,0.7-52.9,1.5-79.3,1.5c-11.9,0-23.7-2.1-35.6-2.6c-6.3-0.3-12.6,1.1-18.9,0.8
		c-3.7-0.2-10-1.6-10.4-3.5c-1.2-5.8,4.9-6.5,8.8-7.2c7.8-1.4,15.9-1.9,23.8-2.8C702.8,836.6,702.8,837.3,702.8,838.1z"/>
	<path d="M666.5,457.9c6.5-7.2,12.5-4.9,18-4.6c18.5,1,36.9,3.4,55.4,3.4c22.9,0,45.7-2.8,68.6-2.8c16.9,0,33.8,2.3,50.7,3.9
		c2.6,0.2,5,2.2,7.5,3.4c-0.2,0.8-0.3,1.5-0.5,2.3c-5.2-0.6-10.5-1.8-15.7-1.8c-28,0-56,0.7-84,0.4c-25.8-0.4-51.6-1.8-77.3-2.8
		C682.3,458.9,675.4,458.4,666.5,457.9z"/>
	<path d="M830.2,757.7c33.1,34,54.2,90.3,44,126.8c-1.2-2.6-2.5-4-2.5-5.5c0.4-39-16.2-72.4-35.1-104.9c-2.1-3.6-4.6-6.9-6.3-10.7
		C829.6,761.8,830.2,759.6,830.2,757.7z"/>
	<path d="M660.9,759.1c-1.2,3.2-2.1,6.6-3.8,9.5c-7.2,12.4-15.3,24.3-21.8,37c-10.8,21.1-17.2,43.6-20.4,67.1
		c-0.3,2.4-1,4.7-1.5,7.4C601.5,856.3,633.1,772.6,660.9,759.1z"/>
	<path d="M878.4,510.7c-32.8-6.5-65.7-8-98.5,0.2c-0.4-0.9-0.7-1.8-1.1-2.7c1.7-1.4,3.1-3.5,5-4.1c30-9.5,60.1-9.1,90.2,0.1
		c1.9,0.6,3.5,2.2,5.3,3.4C879,508.6,878.7,509.7,878.4,510.7z"/>
	<path d="M671.5,495.3c13.4,2.4,27,4.6,40.5,7.4c2.6,0.5,4.7,3.3,7,5c-2.8,0.4-5.8,1.6-8.3,0.9c-26.5-6.3-53.1-5.4-79.7-0.7
		c-3.3,0.6-6.8-0.6-10.3-1c2.8-1.7,5.5-4.3,8.5-4.9C643.1,499.5,657,497.6,671.5,495.3z"/>
	<path d="M666.7,556.4c-2.7,1-5.4,2.7-8.2,2.8c-23.5,0.7-45.3,7.1-65.5,19.3c-0.5,0.3-1.3-0.1-2-0.1
		C591.9,565.4,650.1,546.9,666.7,556.4z"/>
	<path d="M830.7,555.3c18.6-6.4,64.9,7.6,74.6,22.9c-12.6-4.8-24.5-10.4-37-13.8c-12.4-3.4-25.5-4.5-38.2-6.5
		C830.2,557,830.5,556.1,830.7,555.3z"/>
	<path d="M546.4,666.3c10.8-7.2,21.1-9.8,32.1-9.8c0.3,0.8,0.7,1.6,1,2.4c-8.9,3.4-17.7,7-26.7,10.1
		C551.5,669.5,549.4,667.7,546.4,666.3z"/>
	<path d="M545.9,639c11.1-5.1,21-2.9,31.8,0C572.9,644.1,550,644,545.9,639z"/>
	<path d="M946.5,668.1c-3.2,2.9-24.2-2.1-30.8-6.8C920.1,656.7,936.7,660.2,946.5,668.1z"/>
	<path d="M914.9,643.1c5.7-5.8,12-4.7,17.6-5.3c2.3-0.3,4.9,0.3,7.1,1.1c1.9,0.7,3.4,2.3,5.2,3.4c-1.8,0.8-3.5,2.2-5.3,2.3
		c-6.3,0.3-12.6,0.2-18.8,0C919.2,644.6,917.7,643.8,914.9,643.1z"/>
	<path d="M744.2,1066.6c-15.2-1-28.5-7.1-40.9-15.6c-1.4-0.9-1.6-3.5-2.4-5.3c2,0,4.3-0.7,5.9,0.1c7.8,3.3,15.1,8.1,23.2,10.2
		c18.8,4.9,36.6,1.2,53.1-8.8c1.5-0.9,2.7-2.2,4.3-2.7c1.3-0.4,3,0.2,4.4,0.3c-0.3,1.3-0.3,2.7-0.9,3.8c-0.6,1-1.7,1.8-2.6,2.5
		C775.1,1060.5,760.5,1065.7,744.2,1066.6z"/>
	<path d="M703.4,1129.5c14.5,2.9,29.3,8.2,44,8.2c14.8,0,29.6-5.3,44.6-8.4C780.7,1146,724.5,1154.2,703.4,1129.5z"/>
	<path d="M844.4,1091.8c-0.5-1.5-2-4-2-6.5c-0.1-21.7,6.8-41.8,15-61.5c0.5-1.3,2.3-2,4.1-3.5C855.6,1045.2,850,1068.6,844.4,1091.8
		z"/>
	<path d="M654.2,1092.1c-5.6-23.6-11.1-47.1-16.8-70.9C647.7,1026.1,660.1,1080.3,654.2,1092.1z"/>
</g>
</svg>
