<?xml version="1.0" encoding="utf-8"?>
<!-- Generator: Adobe Illustrator 25.0.0, SVG Export Plug-In . SVG Version: 6.00 Build 0)  -->
<svg version="1.1" id="Layer_1" xmlns="http://www.w3.org/2000/svg" xmlns:xlink="http://www.w3.org/1999/xlink" x="0px" y="0px"
	 viewBox="0 0 1500 1500" style="enable-background:new 0 0 1500 1500;" xml:space="preserve">
<g>
	<path d="M1142.7,523.8c38.9,13.1,56.9,36.5,54.9,87c-2.1,54.7-17.3,106.5-51.8,149.8c-12.2,15.3-30.2,30-48.5,35.5
		c-25.2,7.7-35.8,21.2-41,45.3c-4.2,19.6-11,39.5-20.6,57.1c-29.7,55-22.5,112.6-12,169.5c6.5,35.1,26.5,62.3,63.7,74.2
		c21.3,6.8,41,18.5,61.7,27.4c130.9,56,189.2,159.2,191.2,297.4c1.2,83.4,8.1,70.9-69.2,70.9c-360.3,0.2-720.6,0.2-1080.9,0.7
		c-17.5,0-32.1-2.4-31.2-22.4c3.8-86.8,6.1-173.6,60.4-249.1c42.3-58.8,100.7-95.2,165.8-117.7c72.7-25.1,96.4-68.5,97.3-144.6
		c0.8-72.4-37.1-128.3-54.7-192.2c-1.3-4.7-7.9-10-13-11.2c-66.1-15.7-91.2-67.5-107.9-124.8c-6.5-22.3-7.6-46.6-7.9-70.1
		c-0.5-45.2,13.2-63.6,57.8-80.8c-2.4-22.3-4.5-45.5-7.5-68.6C323.9,260.7,420.6,102,631,53.9c96.9-22.2,193.9-21.9,288.8,12.2
		c34.3,12.3,63.3,31.3,80.7,65.2c3.3,6.4,11.7,11.7,18.9,14.3c78.7,28.5,119.4,88.5,125.6,167.7
		C1150.5,382.1,1144,451.8,1142.7,523.8z M732.5,1072.1c87.8,0.2,152.4-29.3,207-82.5c53.5-52.1,78.8-118.6,96.8-188.8
		c4.7-18.6,11.9-29.2,34.3-30.2c14.3-0.6,31-9.9,41.7-20.3c37.3-36.2,52.6-83,52.7-133.7c0.1-18.9-9.8-37.8-15.2-56.7
		c-17.4,8.1-34.8,16.1-52,24.5c-2.8,1.3-4.4,5.3-7.1,6.4c-11.4,4.5-24.8,13.7-34.1,10.7c-7.1-2.3-12.8-20.5-12.5-31.5
		c1.9-94.2-26.5-179.1-74.7-258.9c-17.4-28.7-40.3-39.5-72.7-33.8c-92.5,16.3-184.7,21.4-278.3,3.3c-90.5-17.5-92.3-21.2-135.3,81.2
		c-1.2,2.9-2.1,6.1-3.1,9.1c-23,68.8-33,139.5-33.1,211.9c0,9.1-5.4,23.4-12,26c-6.7,2.6-19-4.7-26.8-10.5
		c-8.5-6.3-13.4-17.5-22-23.3c-10-6.7-25.5-16.3-32.9-12.7c-10.2,4.9-20.2,20.3-21.6,32.2c-6.1,54.5,7.3,105.4,43.5,146.8
		c12.8,14.6,36,20,53.6,30.7c9.4,5.7,20.8,12.4,25.1,21.5c20.4,43.5,33.4,91.2,58.6,131.4C565.1,1009.1,635.5,1071.1,732.5,1072.1z
		 M190,1507.3c374.2,0,745.7,0,1117,0c11.5-200.6-70-279.9-260.3-346.5c-3.4,4.9-6.4,10.6-10.6,15.2
		c-76,82.6-172.9,128.8-278.9,158.1c-11.5,3.2-25.9,0.2-37.9-3.3c-107.2-31.4-203.9-79.5-269.6-174.3
		C226,1231.8,193.8,1333.1,190,1507.3z M1082.3,555.9c5-8.7,13.1-16.9,14.4-26.1c8.7-61.4,23.2-123.2,21.7-184.5
		c-2-82.2-35.4-150.4-124.5-175c-7.4-2-16.9-8.3-19.3-14.9c-13.8-38.2-46.5-52.3-80.3-63.3c-91.6-29.7-184-26.4-275.9-1.1
		c-116.9,32.3-200.7,100.3-232.3,221.9c-18.3,70.3-12.4,140.7,4.4,210.4c2.9,12.1,13,22.4,23.7,40.2c3.1-26,5.7-43.1,7-60.2
		C426.4,433.1,444,366,475,303c29.3-59.6,56.1-70.7,122.9-57.6c89.3,17.5,178.1,18.8,269,4.8c77.2-11.9,96.2-14,141.2,67
		C1049.3,390.9,1073.3,468.5,1082.3,555.9z M486.2,1152.9c45.2,65.6,121.8,106.7,205.8,136.5c19.8,7,43,16,62.1,11.9
		c93.9-20.1,176.2-64.9,246.8-129.7c9.5-8.7,17.2-28.2,14.4-39.9c-11.1-45.5-26.8-89.9-40.2-132.7c-60,62.7-136.5,103.9-230.7,105.5
		C648.4,1106,577.5,1055,519.5,990C509,1041.6,498.8,1091,486.2,1152.9z"/>
</g>
</svg>
