<?xml version="1.0" encoding="utf-8"?>
<!-- Generator: Adobe Illustrator 25.0.0, SVG Export Plug-In . SVG Version: 6.00 Build 0)  -->
<svg version="1.1" id="Layer_1" xmlns="http://www.w3.org/2000/svg" xmlns:xlink="http://www.w3.org/1999/xlink" x="0px" y="0px"
	 viewBox="0 0 1500 1500" style="enable-background:new 0 0 1500 1500;" xml:space="preserve">
<path d="M489.4,1164.3c-39.4-20.3-78.6-36.5-113.2-59.5c-36.2-24-52.4-62.9-59.5-105.7c-2.1-12.5-7-28.2-16.2-35.2
	c-87.1-66.8-120.6-206-63.4-319c45.2-89.3,62.9-186.2,94.3-279.2c52.4-155.4,152-261.7,317.7-298.1c225-49.4,420.5,53.6,507.5,269.9
	c13.3,33.1,22.5,67.9,34.5,101.5c22.1,62,39.9,126.2,68.3,185.2c60.5,125.6,33.4,267.8-58.7,341.8c-7.3,5.8-13.2,16.3-15,25.5
	c-16.6,88.3-70.6,139.8-155.8,161.8c-6.4,1.7-12.3,5.4-19.9,8.8c41.6,17,82.6,31.9,122,50.3c130.1,60.5,182.9,168.8,186.4,306.7
	c0.7,28-11.1,39.5-40.7,39.6c-350.8,1.2-701.7,3.2-1052.5,5.9c-31.4,0.2-43.8-9.4-44-42.6c-0.9-156.1,77.8-272,226.6-328.7
	C436,1182.4,464.4,1173.1,489.4,1164.3z M1030.8,558.1c96.7-9.3,112.5,19.3,121.9,58.2c15.3,63.3,5.2,128-42.9,168.2
	c-50.1,41.9-71.9,96.8-103,148.3c-7.5,12.5-14.6,26-24.9,35.9c-39.4,37.9-29.6,84.3-24.2,129.8c2.4,19.9,13.7,27.1,35,26.5
	c71.6-2.1,146.3-67.6,158.3-138.5c2.6-15.4,10.2-33.5,21.5-43.2c86.4-73.4,110.3-183.8,57.4-303.3c-28.3-64.1-49-131.5-72.8-197.5
	c-11.7-32.6-20.5-66.4-34.2-98.1C1051.3,179.2,919.7,93,754.3,91.3c-183.5-1.8-329.4,104-388.8,282.4
	c-33.9,101.7-61.5,205-104.5,304.2c-40.5,93.5-10.3,194.5,58,256.1c14.5,13.1,27,33,31.3,51.8c19.3,86.1,75,134.8,163,137.3
	c6.2,0.2,14-0.9,18.6-4.6c21.5-17.4,21.6-100.5,5.5-124c-32-46.8-60.6-96-90.7-144.1c-5.6-8.9-10.1-20.5-18.4-25.6
	c-69.3-42.3-101.9-110.1-90-190.6c5.3-35.5,26.9-54.4,62.7-58.6c12.6-1.5,28-5.6,36-14.2c25.6-27.8,55.8-54.9,70.4-88.3
	c20.2-46.3,27.4-98.3,41.1-147.6c2.6-9.5,9.3-17.9,14.1-26.8c7.6,4.6,16.6,7.9,22.6,14.1c8.5,8.7,14.1,20.2,22.3,29.4
	c78.5,88.6,181,139.4,289.4,178.9C946.6,539.5,999.5,549.7,1030.8,558.1z M586.8,376.4c-26.4,56.1-47.6,112.8-78.6,163.4
	c-23.7,38.7-57.5,72.3-111.3,71.7c-8.1-0.1-20.6,16-23.7,26.7c-4.2,14.6-3.9,31.7-1.1,46.9c8.1,44,21.6,88.2,67.6,105
	c21.7,7.9,28,19.8,36.9,37.3c22.1,43.7,41.2,91.4,73,127.3c71.4,80.7,161.1,125,270.9,86.3c103.7-36.6,164.6-116.6,200.6-217.9
	c3.8-10.8,10.1-24.4,19.2-29.1c63.2-32.7,97.3-99.5,81.6-166.6c-5.5-23.3-16.1-41.1-46.1-38c-70,7.3-135.9-12.4-199.9-37
	C766.5,510.7,663.1,458.1,586.8,376.4z M217.3,1526.7c357.1,0,711.6,0,1066,0c4.8-171.5-96.4-287.9-278.7-325
	c-111.3,204-436.3,169.6-509.3-1C300.6,1253.8,207,1363.5,217.3,1526.7z M595,1041.1c-16,39.5-25.6,79.3-47,111.2
	c-16.2,24.2-20.7,42.1-3,62c17.5,19.7,36.3,41.7,59.3,52.5c36.9,17.4,77,33.3,117.1,37.5c92.9,9.8,175.7-14,234.2-94.3
	c12.9-17.7,12.5-29.8-1.6-49.8c-17.1-24.3-24.9-55.8-33.6-85.1c-4-13.6-0.7-29.4-0.7-50C807.2,1104.3,698.7,1112.6,595,1041.1z"/>
</svg>
