<?xml version="1.0" encoding="utf-8"?>
<!-- Generator: Adobe Illustrator 25.0.0, SVG Export Plug-In . SVG Version: 6.00 Build 0)  -->
<svg version="1.1" id="Layer_1" xmlns="http://www.w3.org/2000/svg" xmlns:xlink="http://www.w3.org/1999/xlink" x="0px" y="0px"
	 viewBox="0 0 1500 1500" style="enable-background:new 0 0 1500 1500;" xml:space="preserve">
<g>
	<path d="M941.8,946.6c-0.4,0.6-0.6,0.8-0.6,1c-0.3,6.8-2.9,15.1,0,20.1c2.7,4.6,11.5,5.3,17.3,8.4c15.3,8,30.1,16.9,45.6,24.3
		c34.9,16.5,70.2,32,105.1,48.5c33.1,15.6,66.8,30.5,98.7,48.4c42.7,23.9,76.9,57.4,98.5,102c19.1,39.6,34.4,80.8,45.6,123.3
		c14.2,54,25.7,108.7,33.5,164c1.4,9.9,2.5,19.8,3.4,29.7c1.1,11.9-2.8,15.9-14.8,15.9c-71.3,0-142.6,0-213.9,0
		c-343.7,0-687.5,0-1031.2,0c-15.7,0-18.3-3.1-16.6-18.6c8.7-75.7,25.7-149.8,47.5-222.7c10.5-35.1,22.6-69.9,40.9-101.9
		c27.2-47.5,66.5-82.8,115.5-106.3c50.3-24.2,101.8-45.8,152.6-69.1c22.5-10.3,44.3-22.1,66.6-32.9c5.6-2.7,11.7-5,17.8-6.1
		c5.8-1.1,6.8-3.9,6.5-9c-0.4-7.2-0.1-14.5-0.1-21.4c-9.1-1-17.7-0.2-24.7-3.2c-10.3-4.4-19.5-11.5-29.2-17.4c-2-1.2-3.9-3.2-6-3.5
		c-21.4-2.5-36.5-14.9-49.6-30.6c-19.1-22.8-27-50.3-32.5-78.6c-4.4-23.1-1.8-46.2,2.2-69c2.7-15.8,6.8-31.3,10.1-46.9
		c0.6-2.7,0.4-5.8-0.3-8.5c-5.2-20.1-8.4-40.3-8-61.3c0.3-16.9,9.3-28.1,20.2-38.9c1.6-1.5,3.3-3.6,3.6-5.6
		c2.2-19.1,3.2-38.3,6.1-57.2c4.6-30,10-59.9,15.9-89.6c7.7-38.7,21.7-75.2,48.6-104.6c45.8-50.1,100.6-87.2,168.2-100.6
		c98.4-19.4,187.2,2.7,265.1,66.6c43.7,35.9,69.7,83,81.6,137.3c9.2,42.2,15.1,85.1,22.2,127.8c1.8,11,8.7,32.4,15.4,40.9
		c12,15.2,10.6,32.3,7.8,49.5c-1.9,11.7-5.4,23.2-6.9,34.9c-0.8,6.1,1.1,12.7,2.3,19c5.1,26,11.8,51.6,12.8,78.3
		c1.6,41.2-8,78.1-37.5,108.5c-11.8,12.2-25.7,20.5-41.5,26.4c-3.7,1.4-7.5,3.5-10.4,6.2c-11.1,9.8-23,18.1-37.7,21.2
		C952.3,946.4,947.1,946.2,941.8,946.6z M1366.5,1509.6c-2.9-19.2-5.5-37.9-8.5-56.5c-9-55.7-21.8-110.5-40-163.8
		c-10.9-31.9-21.6-64.2-39.4-93c-27.5-44.6-68.3-74.5-114.4-97.1c-35.1-17.2-71.4-31.8-107.2-47.5c-13-5.7-25.9-11.4-39.6-17.5
		c0.5,26.9-5.2,51.1-17.9,73.7c-20.1,35.8-49.4,61.8-84.5,81.9c-66.3,38-137.3,51.3-212.9,39.5c-51.7-8-99.8-24.2-141.4-57.3
		c-30.1-23.9-55.8-51.2-69.4-87.6c-5.8-15.6-7.9-32.6-11.8-49c0.3-0.1-0.8,0.2-1.9,0.7c-43.1,18.9-86.4,37.6-129.3,56.9
		c-47.2,21.3-88.3,50.7-118.6,93.4c-19.8,27.9-31.3,59.8-41.9,91.8c-21.3,64.4-37.4,130.1-48.4,197c-1.9,11.4-3,22.9-4.5,34.3
		c56.3,0,111.9,0,167.7,0c0.2-2.4,0.5-4.3,0.6-6.2c1.3-48.2-2.7-96-10.7-143.4c-9.3-55.4-21.6-110.1-44.4-161.8
		c-1.4-3.3-2.6-7.1-2.4-10.5c0.2-2.6,2.2-6.4,4.4-7.3c2.1-0.8,6.2,0.8,7.9,2.6c3,3.3,5.7,7.5,7.2,11.7c8.5,24.2,17.4,48.4,24.8,72.9
		c13,42.9,20.3,86.9,25.4,131.4c4.1,35.9,7.4,71.8,5.9,107.9c0,0.9,0.4,1.8,0.6,2.5c285.9,0,571.4,0,855.4,0
		c2.6-35.3,4.6-70.1,8.1-104.7c2.6-25.9,6.7-51.6,10.8-77.3c6.6-41.9,22.4-81.3,34.8-121.5c2.4-7.8,6.1-15.4,10.1-22.5
		c1.3-2.2,5.6-4.1,8.3-3.8c1.9,0.2,4.4,4.4,4.5,6.9c0.2,4.4-0.7,9.2-2.1,13.4c-2.8,8-6.7,15.6-9.4,23.7
		c-29.2,85.6-43.2,173.9-44.8,264.2c-0.1,7.2,0.6,14.4,0.9,21.8C1254.6,1509.6,1309.9,1509.6,1366.5,1509.6z M637.2,947.2
		c0-4.9-0.4-9.5,0.2-14c0.3-2,2.3-4.8,4-5.2c1.7-0.3,4.6,1.5,5.8,3.1c1.3,1.8,1.2,4.6,1.8,6.9c1.1,4.7,1.4,9.9,3.7,13.9
		c8.7,14.9,21.3,25,38.2,29.6c34.7,9.3,69.7,10.5,104.8,2.5c25.2-5.8,45.7-17.4,48.4-46.8c0-0.5,0.2-1.1,0.5-1.3
		c2.3-1.9,4.6-3.7,6.9-5.5c1.8,2.3,4.4,4.4,5.2,7c0.9,3.1,0.2,6.7,0.2,10.1c1.3,0,2,0.2,2.7,0c38.4-11.8,65.7-36.5,78.9-74.1
		c10.5-29.9,17-61.1,25.5-91.7c3.1-11.1,6.4-22.3,10.4-33.1c1.5-4.1,5.3-7.5,10.5-5.2c5.2,2.3,7.9,6.3,6.7,12.3c-1,5-1.9,10-2.9,15
		c-2,10.3,1.8,15,12,12.9c4.9-1,9.8-5,13.2-9c3.4-4.1,5.5-9.7,7.2-15c10.9-33.9,22-67.8,32-102c2.8-9.6,3.2-20.2,2.7-30.2
		c-0.4-8.6-4.4-16.8-13.7-19.8c-8.9-2.9-14.5,3.4-20,9c-1,1-1.9,2.3-2.7,3.4c-9.7,13.1-16.1,27.6-19.4,43.6
		c-0.7,3.2-3.1,8.2-5.3,8.5c-3.4,0.5-8.1-1.4-10.8-3.9c-2.9-2.6-5-6.8-5.7-10.6c-1.5-7.6-2.6-15.5-2.3-23.2
		c1.6-41.6,3.4-83.3,6-124.9c0.6-9.8,4.7-19.4,7.2-29.2c1.3,0,2.6,0,3.9,0c1.5,6.4,4.1,12.7,4.3,19.2c0.7,26.1,0.7,52.2,0.9,78.3
		c0.1,11.3,0,22.7,0,31.9c9.1-8.4,19.5-17.9,31-28.5c0-4.6,0.8-11.7-0.1-18.7c-4.4-32.5-8.9-65-14-97.5
		c-11.6-73.6-49.6-131-110.8-172.1c-46.5-31.3-98.9-45.4-155.2-45.2c-50.1,0.2-97.5,10.9-140.8,36.4
		c-60,35.4-102.6,84.9-119.4,153.6c-6.7,27.5-10.1,55.9-14.2,84c-2.8,19-4.2,38.2-5.9,57.3c-0.2,2.2,1.5,5.1,3.2,6.8
		c6.8,6.6,14.1,12.5,20.8,19.2c3.4,3.4,5.8,7.8,8.1,10.9c0-37.4-0.3-75.3,0.2-113.1c0.1-7.3,3.1-14.6,4.9-22.7
		c10.9,7.1,11.3,17.1,12.2,26.4c4.2,45.4,6.3,91,4.4,136.6c-0.3,8.2-3.4,16.6-6.7,24.3c-1.3,3.1-6.7,6-10.2,5.9
		c-2.7-0.1-6.2-4.5-7.7-7.8c-4.9-10.5-8.3-21.8-13.7-32.1c-4-7.7-9.2-15.1-15.4-21.1c-10.2-9.8-22.5-6.1-25,7.8
		c-1.8,9.4-2.8,19.9-0.6,28.9c6.2,24.9,14.1,49.4,21.9,73.9c5.1,15.9,11,31.6,17.5,47c2.1,5,6.9,9.7,11.7,12.3
		c3.1,1.7,8.6,0.1,12.6-1.4c4.6-1.7,3.4-6,2.5-9.8c-0.9-3.8-1.8-7.6-2.5-11.4c-1.1-5.8,2.8-11.4,8.4-12.5c5.8-1.1,12,2.8,13.2,8.1
		c3.4,15.2,6.6,30.4,10.3,45.5c7.4,30.4,14.3,61,29.2,89C583.4,918,605.8,937.7,637.2,947.2z M560.4,996.9c-1.8,0.4-3.3,0.5-4.6,1.1
		c-11.6,5.5-23.3,10.8-34.7,16.8c-18.9,9.9-18.8,10.1-15.7,31.3c0.1,1,0.5,1.9,0.7,2.8c8.8,42,31.7,75,65.1,100.8
		c62.5,48.3,133.9,65.8,211.9,58.9c46.4-4.1,89.4-18.7,128.5-43.6c45.3-28.7,74.4-69.2,83.8-122.8c3-17.3,1.9-20-13.5-28.3
		c-7.5-4.1-15.1-8-22.8-11.4c-6.1-2.7-12.5-4.5-19.1-6.8c0,20.7,0,40.3,0,60.1c-14.7-3.5-20.8-8.7-21.4-21.4
		c-1.3-26.3-1.6-52.6-2.3-78.9c-0.1-5.4,0-10.8,0-14.7c-19,9.9-38.2,19.8-57.2,29.8c-1.7,0.9-3.1,2.2-4.7,3.4
		c-14.6,11.5-29.6,22.3-47.6,27.9c-30.8,9.5-62.1,10.9-93.9,5.7c-25.8-4.2-49.1-13.4-68.4-31.6c-2.1-1.9-4.5-3.6-7-4.9
		c-15.8-8.5-31.6-16.9-47.4-25.4c-2.2-1.2-4.2-2.7-6-3.8c0,20.2,0.5,39.7-0.1,59.2c-0.5,15-1.7,30.1-3.7,45
		c-0.9,6.9-9.3,12.8-14,11.1c-6.8-2.4-6.1-8.5-6.1-14.2C560.4,1028,560.4,1012.9,560.4,996.9z M981.9,799.7
		c-5.3,43.5-19.2,83.2-40.4,120.7c15.7,3.4,28.1-1.3,38.7-11.6c13.8-13.5,22.9-30,31-47.3c1-2.1,5.3-4.9,6.5-4.3
		c2.6,1.3,6.2,4.8,6,7.1c-0.5,8.1-2.5,16.1-3.9,23.9c2.5-2.3,5.6-4.9,8.5-7.8c16.8-16.5,31-35.2,33.1-59.2
		c1.8-20.7,0.5-41.8-0.1-62.7c-0.3-10.1-2.2-20.1-3.4-30.2c-4.5,8.2-7.2,16.5-10.5,24.6c-6.8,16.6-12.1,34-25.5,47
		C1008.3,812.9,995.7,813.1,981.9,799.7z M477.9,860.4c6.1-4.3,9.4-2.7,11.8,1.6c2.8,4.8,5.7,9.6,8.2,14.6
		c6.6,12.9,14,25.2,25.5,34.3c8.2,6.5,16.9,10.6,28.2,8c6.5-1.5,7.3-3.1,4.1-8.4c-14.8-24.8-24.9-51.4-31.5-79.5
		c-2.6-10.9-5.4-21.8-8.4-33.6c-6.3,12.9-18.4,16.1-30.5,9c-13.5-7.9-21-20.6-26.7-34.6c-5.4-13.2-10.5-26.5-15.8-39.8
		c-2.9,17.4-5.5,34.8-6.2,52.2c-1.1,27.9,7.3,53.7,19.9,78.2c6.6,12.8,16.9,22.6,28.3,30.9C482.5,882.1,480.2,871.1,477.9,860.4z"/>
	<path d="M614.1,475.6c1.6-1.8,2.9-4.5,4.9-5.3c25.9-10.2,52.8-16,80.6-12.5c33.1,4.2,66,4.3,99.1-0.1c25.2-3.3,50,0.7,74.1,8.6
		c4.3,1.4,8.8,2.5,14,3.9c-1,2.4-1.8,4.5-2.2,5.7c-15.4-3.5-30-8.3-45-9.7c-17.8-1.7-36.1-1.5-53.9,0c-24.1,2-48,2.2-72.2,0
		c-44.9-4-53.1-2.3-97.5,11.1C615.3,476.8,614.7,476.2,614.1,475.6z"/>
	<path d="M746.3,773.9c-18.8,0.2-37.5-3.4-51-19.5c-3.9-4.6-5.8-11-7.8-16.8c-0.5-1.5,2.2-4,3.5-6.1c1.8,1.2,4.9,2.1,5.3,3.7
		c4,14.8,14.7,19.8,28.7,21.3c17.7,1.9,35.3,4.2,52.9-0.5c9.2-2.4,15.8-7.3,17.9-17c0.3-1.4,0.6-3.3,1.6-4c1.9-1.5,4.3-2.3,6.5-3.4
		c1.1,2.1,3.3,4.5,3,6.4c-2,11.4-8.7,19.8-18.4,26C775.9,772.2,761.9,774.1,746.3,773.9z"/>
	<path d="M706.5,838.9c14,1.3,25.2,3.2,36.3,3.1c14.3-0.1,28.7-2.8,43-2.6c11.8,0.2,23.5,2.6,35.2,4.7c2,0.4,4.9,4.2,4.8,6.3
		c-0.4,5-4.3,3.1-7.2,2.1c-16.6-5.6-33.4-4.4-50.6-2.4c-12.3,1.4-25,1.9-37.2,0.5c-18.2-2-35.9-1.1-53.8,2c-2.3,0.4-5-1.7-7.5-2.7
		c2-2,3.7-5.4,5.9-5.8C686.6,841.8,697.9,840.3,706.5,838.9z"/>
	<path d="M658.4,760.3c0.1,3.4,1.1,7.2,0,10c-2.9,7.1-5.8,14.7-10.6,20.6c-20.9,25.9-27.8,55.7-26.7,88.1c0.1,2.4,0.6,5.1-0.1,7.3
		c-0.8,2.3-2.7,4.3-4.2,6.4c-1.4-1.9-3.8-3.7-3.9-5.7c-0.5-7.8-0.5-15.6-0.2-23.4c0.9-27.7,8.9-52.9,26.2-75.1
		c6.6-8.5,11.4-18.5,16.9-27.9C656.6,760.5,657.5,760.4,658.4,760.3z"/>
	<path d="M873,887.4c0-3.1,0.1-5.6,0-8.2c-0.6-12.4-0.6-24.9-1.9-37.2c-1.6-15.6-8.9-29-17.5-41.9c-5.4-8.1-10.8-16.3-15.1-24.9
		c-2.6-5.1-3.1-11.3-4.5-17c0.8-0.4,1.7-0.8,2.5-1.2c1.8,2.2,4,4.2,5.4,6.7c6.8,11.2,12.9,22.9,20.4,33.7c13.5,19.3,18.4,41,19.3,64
		c0.2,6.1,0.2,12.2,0.2,18.3C881.7,884.4,879.3,887,873,887.4z"/>
	<path d="M896.3,523.7c-5.3-1.1-11-1.4-16-3.6c-30.2-12.9-61.1-13.6-92.7-6.2c-2.5,0.6-5.4-0.6-8.2-1c2-2,3.7-5.3,6.1-5.9
		c20.3-5.7,40.9-7.4,62-4c16.4,2.6,32.5,5.4,46.5,15.1c1.1,0.8,2.1,1.6,3.1,2.5C896.9,521.6,896.6,522.6,896.3,523.7z"/>
	<path d="M603.2,522.6c1.4-1.6,2.9-3.9,4.9-5.3c13.9-9.4,30-12.2,46.1-14.6c18.6-2.8,37-1.4,55.1,3c3.5,0.9,6.4,4.5,9.6,6.9
		c-3.8,0.1-7.8,0.9-11.3,0c-16.6-4.3-33.5-4.2-50.1-1.8C639.5,513.3,621.8,518.4,603.2,522.6z"/>
	<path d="M909.5,582.4c-3.4-0.4-5.6-0.1-7.3-0.9c-20.4-9.4-41.5-14.5-64.2-13.1c-3,0.2-6.2-2.1-10.4-3.7
		C840.4,553.6,894.9,565.9,909.5,582.4z"/>
	<path d="M586.2,580.2c16.2-9.8,33.2-17.6,52.5-19.2c6.8-0.5,13.6-1.4,20.4-1.2c2.5,0.1,4.9,2.5,7.3,3.9c-2.6,1.6-5.2,4.7-7.7,4.6
		c-19.5-0.9-38.3,2-56.5,8.9c-3.6,1.4-7.1,3-10.8,4.3c-1.5,0.6-3.2,0.7-4.8,1C586.5,581.8,586.3,581,586.2,580.2z"/>
	<path d="M542.3,685.4c0.5-10.1,17.8-18.6,32-15.7C563.9,674.8,553.5,679.9,542.3,685.4z"/>
	<path d="M576.6,649.7c-7.9,5.3-22.2,6.5-28.3,2.5C552.9,645.7,571.4,643.8,576.6,649.7z"/>
	<path d="M915.7,645.5c9.9,0.8,17.9,1.3,25.8,2.2c1.2,0.1,2.6,1.9,3.1,3.2c0.2,0.7-1.6,3-2.3,2.9c-7.8-1-15.6-2.2-23.4-3.6
		C918.1,650.1,917.6,648.5,915.7,645.5z"/>
	<path d="M952.2,683.9c-11-5.7-20.7-10.7-31-16.1C934.3,665.4,950.2,673,952.2,683.9z"/>
	<path d="M785.5,1051.5c3.9,3.9,3.1,6.7-0.6,8.9c-22.3,13.3-48,14.8-69.8,1.1c-2.1-1.3-2.7-4.9-3.2-8.4
		C737.2,1067.2,761.4,1065.6,785.5,1051.5z"/>
	<path d="M847,1086c-1.6-1.8-4.6-3.6-4.5-5.3c1.1-24.7,8.4-47.2,24.7-66.2c0.3-0.3,0.9-0.3,3.4-1.1c-1.1,5.1-1.2,9.7-3.1,13.3
		c-9.7,18.1-17.3,36.9-18.2,57.8C848.6,1085,847.8,1085.5,847,1086z"/>
	<path d="M631.6,1014.6c2,1.9,4.6,3.4,6,5.6c10.9,17.8,18,37,18.6,58.1c0.1,2.3-2.3,4.7-3.5,7.1c-1.2-2.2-3.3-4.3-3.6-6.6
		c-1.9-17.3-7.4-33.4-15.5-48.8c-2.2-4.3-3.2-9.3-4.7-13.9C629.8,1015.6,630.7,1015.1,631.6,1014.6z"/>
	<path d="M712.8,1111.9c22.2,10.4,44.1,11.9,66.4,1.5c6-2.8,6.1-2.4,8.6,4.6c-12.1,5.9-25,8.3-38.3,9.8c-11.8,1.4-22.6-2.2-33.3-6.2
		C711.3,1119.8,709.7,1117.1,712.8,1111.9z"/>
</g>
</svg>
