<?xml version="1.0" encoding="utf-8"?>
<!-- Generator: Adobe Illustrator 25.0.0, SVG Export Plug-In . SVG Version: 6.00 Build 0)  -->
<svg version="1.1" id="Layer_1" xmlns="http://www.w3.org/2000/svg" xmlns:xlink="http://www.w3.org/1999/xlink" x="0px" y="0px"
	 viewBox="0 0 1500 1500" style="enable-background:new 0 0 1500 1500;" xml:space="preserve">
<path d="M327.4,514.6c-38.5-98.2-35.6-187.9,30.5-270.3c1.4-1.7,2.4-3.7,4-5.2c54.1-47.9,104.6-100.8,163.2-142.4
	C654.2,5,844.3,5.9,969.9,97.2c61.7,44.8,112.4,104.1,165.1,158.3c67.7,69.5,67.4,163.1,36.2,254.2c56.8,39.4,70.4,85.5,46.2,165.6
	c-18.5,61.1-44.8,116.2-116.3,131.6c-5.7,1.2-10.1,12.6-13.4,19.9c-18.7,41.4-36.1,83.4-55.4,124.5c-18.1,38.5-6.8,141.3,21.7,172.5
	c6.9,7.5,17.9,11.7,27.6,16.1c38.4,17.6,77.9,33.1,115.4,52.5c109,56.1,156.2,152.5,160.7,269.2c4,103,16,86.3-84.4,86.4
	c-365,0.6-729.9,0-1094.9,0.8c-30.6,0.1-42.4-9.4-38.2-39.8c6.3-46.2,8.5-93.3,17.9-138.8c15.9-77.1,62.8-133.2,131-170.6
	c32.2-17.7,65.6-34.8,100.4-45.9c58-18.5,79.3-60.7,83.4-115.4c3.2-42.2,4.5-84.6-25.7-120.7c-9.5-11.3-15-26.6-19.9-40.9
	c-13.5-39.6-26.1-75.5-76-87.9c-20.5-5.1-41.3-33.7-50-56.3c-15.3-39.8-25.3-82.7-30-125.1C266.9,566,282.1,529.8,327.4,514.6z
	 M399.9,556c14-39.4,29.3-76.6,40.4-115c15.3-52.9,35.8-106.4,2.2-160.7c-2.8-4.6,3.7-14.9,5.8-22.5c7.1,2.8,19.4,4.1,20.6,8.5
	c8.4,30.8,25.5,64.6,19.4,93.2c-16.5,78-42.4,154.1-66,230.6c-6.8,22.2-21.3,22.8-36,5.4c-8.4-9.9-14.7-22.6-24.8-30
	c-10.4-7.5-26.9-16.7-36.1-13.2c-10.1,3.9-19.8,21-21.3,33.3c-6.9,55.9,4.2,109.5,39,154c12.4,15.8,36.4,28.2,56.6,30.7
	c22.2,2.8,29.9,11.2,34.5,30.2c19.4,80.7,60.8,148.2,123.3,203c78.4,68.7,166.5,95.4,269,64.9c124.6-37,194.3-125.5,229-245.5
	c8.8-30.3,15.1-57.4,55.5-51.8c4.6,0.6,10.1-3.5,14.8-6.1c50.7-28.2,87.5-143.3,62.9-196c-9.9-21.3-24.4-27.9-43.9-13.6
	c-14.9,10.9-28.1,24.1-41.7,36.5c-13.5,12.3-29.3,17-37.2-2.3c-39.8-96.6-81.9-193.5-47.5-301.7c3.1-9.8,12.4-17.7,18.8-26.5
	c4,10.8,13.9,23.3,11.3,32c-28.5,94.4,2.4,178.9,44.8,265.6c20.7-23.3,44.6-46.7,51.9-74.4c9.9-38.1,13.4-80.3,8.3-119.3
	c-6.8-51.6-30.1-100.3-80.3-123.8c-26.9-12.6-43.4-29.7-56.7-53.8c-4.7-8.4-11.5-15.9-18.2-23.1C878.3,35.3,641.3,27.6,509.5,148.9
	c-39.5,36.4-67.1,86-119.8,107.7c-4.7,1.9-8.1,7.3-11.6,11.4C309.3,349.1,326.7,501.8,399.9,556z M1050.7,1166.1
	c-71.4,81.6-156.1,142.1-261.6,169.6c-20.2,5.2-43.2,6.6-63.6,3c-116.3-20.9-207.6-84.6-284-171.8
	c-237.7,64.2-277.1,201.1-264.7,349.9c384.2,0,768.4,0,1152.6,0C1327.6,1312.1,1255.2,1228.5,1050.7,1166.1z M473.3,1154.4
	c43,49.1,98.2,96.9,167.2,124.6c35.7,14.3,75.9,32.4,111.9,28.4c107.3-11.7,192.2-70,261.6-151c4.8-5.6,8.6-16.3,6.7-22.9
	c-11.4-40.5-24.6-80.6-36.9-119.9c-65.1,59.5-143.6,97.3-237.1,99.3c-97,2-170.3-48.8-234.2-106.8
	C500.2,1053.2,487.8,1099.7,473.3,1154.4z"/>
</svg>
