<?xml version="1.0" encoding="utf-8"?>
<!-- Generator: Adobe Illustrator 25.0.0, SVG Export Plug-In . SVG Version: 6.00 Build 0)  -->
<svg version="1.1" id="Layer_1" xmlns="http://www.w3.org/2000/svg" xmlns:xlink="http://www.w3.org/1999/xlink" x="0px" y="0px"
	 viewBox="0 0 1500 1500" style="enable-background:new 0 0 1500 1500;" xml:space="preserve">
<g>
	<path d="M511.4,813.9c-25.8,3.1-39.9-3.4-51-26.6c-10.7-22.5-19.7-45.9-28.3-69.3c-7.4-20-14.8-40.2-19-61c-2.8-13.8-1-29,1-43.3
		c1.6-11.6,9.9-20.1,20.5-25.1c5.1-2.4,6.6-5.3,6.3-10.6c-1-22.6-1.6-45.3-2.5-67.9c-1-24.8,3.2-48.8,10.2-72.5
		c2.6-8.8,4.6-17.9,6.9-26.8c6.1-23.6,20.4-42.4,36.3-59.9c5.5-6.1,14.1-9.3,21.1-14.1c4-2.7,8.2-5.4,11.4-8.9
		c41.1-46,90.1-80.1,149.9-96.8c31.4-8.8,63.8-9.4,96.3-6.7c30,2.5,59,9.5,87.1,19.7c32.1,11.7,58.2,33.2,84,54.7
		c11.2,9.3,21.2,20.1,31.9,30.1c3.4,3.2,6.6,7,10.6,8.8c18.3,7.7,28.9,23,40,38.3c13.9,19.1,18.2,41.5,24.7,63.4
		c9.6,32.6,10.8,65.5,7.5,99c-1.4,14.8-0.7,29.7-0.5,44.6c0,1.7,2.2,4.2,3.9,4.8c15.7,5.7,21.5,18.1,24.3,33.5
		c5,27.6-3.4,53-12.5,78.2c-7.7,21.2-15.6,42.4-24.1,63.3c-4.4,10.8-9.1,21.6-15.3,31.4c-10.8,16.9-26.6,24.3-46.6,19.5
		c-5.9,21.8-10.5,43.7-17.9,64.6c-5.4,15.2-14.6,28.9-21.8,43.5c-1.1,2.3-1.5,6.1-0.3,8.1c11.7,19,23.7,37.9,35.8,56.6
		c2,3.1,4.6,6.5,7.7,8.3c46.8,26.9,95.7,49.7,145.7,69.9c33.1,13.4,66,27.2,96.1,47c38.5,25.2,66.5,58.4,85.3,101
		c27.5,62.3,43.1,127.7,56.3,193.8c7.2,36.2,12.7,72.7,19,109c0.5,2.9,0.8,5.8,0.9,8.7c0.6,11-5.9,17.4-17.6,17.4
		c-60.8,0-121.6,0-182.3,0c-357.1,0-714.3,0-1071.4,0c-11.5,0-16.9-6-15.4-17.4c12.3-89.1,28.3-177.5,57.5-262.8
		c12.4-36.2,26.7-72,51.4-102.4c27.4-33.7,62.5-56.9,101.7-74.3c42.6-18.9,85.8-36.5,128.3-55.7c21.2-9.6,41.4-21.4,61.9-32.6
		c3.2-1.7,5.7-5.2,7.7-8.4c9.5-15.6,17-32.7,28.5-46.6c9.5-11.4,9-18.9,1.5-30.4c-14.7-22.7-20.8-49-26.9-75.1
		C515.3,828.6,513.2,821.2,511.4,813.9z M857.4,956.2c3.3-1,6.1-1.6,8.7-2.6c43.9-16.7,73.4-47.5,85.7-92.6
		c8.2-29.9,12.9-60.7,19.4-91.1c1.9-8.9,2.9-18.9,15.7-18.9c2.3,0,5.5-0.7,6.6,0.5c1.4,1.4,1.8,4.7,1.3,6.9
		c-1.5,7.3-3.9,14.5-5.3,21.9c-2.1,10.8,4.3,16.1,14.6,11.8c3.7-1.5,7.5-4.1,9.7-7.3c4.2-6.2,7.8-12.9,10.5-19.8
		c9.7-24.8,19.2-49.8,28.3-74.8c8.1-22.4,15.4-45,9.5-69.5c-3.4-14.2-9.4-17.5-23.1-12c-8.8,3.5-12.9,11-16.6,18.6
		c-7.4,15.3-14,31-21.3,46.3c-1.5,3.2-4.9,5.5-7.4,8.3c-2.6-2.7-6-5-7.8-8.2c-7.3-13-10.2-27.4-10.5-42c-0.3-16,0.8-32.1,1.3-48.2
		c0.8-24.1,1.4-48.2,2.5-72.3c0.5-10.6,2.1-21.2,3-31.9c1.8-21.7,4.5-43.4,4.7-65.1c0.3-27.3-12.3-50.3-29.3-70.6
		c-26.8-32.1-59.8-56-97.7-73.9c-48.5-22.9-99.1-30.6-152-23.9c-23.3,2.9-45.1,11.2-66.4,21.1c-37,17.1-71.1,38.3-97.9,69.8
		c-10.6,12.4-21,24.9-26.9,40.5c-8.1,21.6-8.2,43.8-6.4,66.3c2.3,29.1,4.5,58.2,6.5,87.3c0.5,7,0.1,14.2,0.5,21.2
		c1.2,25.3,3.4,50.5,3.6,75.8c0.1,16-3.3,31.9-11.5,46.2c-5.5,9.7-9.7,9.8-15.1-0.2c-4.7-8.7-8.1-18.2-12.7-27
		c-5.8-10.9-11.8-21.8-18.5-32.1c-4.1-6.3-10.8-9.1-18.5-7.4c-7.3,1.7-8.1,8.4-9.6,14.1c-5.6,20.2-2.8,40.3,3.9,59.5
		c8.9,25.4,19,50.4,29.2,75.3c4.1,10.1,9.1,19.9,14.7,29.2c3.9,6.4,10.7,9.2,18.4,7.9c3.9-0.6,7.4-1.9,5.9-7.7
		c-2.1-7.9-3.1-16.2-5.2-24.1c-2.1-8.2-0.1-11,8.3-10.5c8,0.4,11.9,5.1,14.2,16.6c4.8,24,9.1,48.2,14.8,72
		c6.9,28.9,15.2,57.2,36.4,79.9c17.1,18.2,37.2,30.8,61.2,38.4c0.4-3.8,0.7-7.1,1-10.3c0.7-0.3,1.4-0.5,2.2-0.8
		c1.8,2.5,4.1,4.8,5.5,7.5c9.4,18,23.6,30.4,42.9,36.2c36.8,11.1,74.1,12.6,111.5,2.9c22.9-5.9,39.9-19.4,49.8-41.4
		c1.1-2.4,3.8-4.1,5.8-6.2c0.6,2.6,1.3,5.3,1.9,7.9C857.5,953.9,857.4,954.4,857.4,956.2z M742.7,1519.3c148,0,295.1,0,442.6,0
		c0.9-15.6,1.6-30.8,2.7-46.1c1.7-24.4,3.3-48.9,5.6-73.3c4-41.4,11.9-82.1,22.4-122.3c8.8-33.6,19.5-66.7,36.7-97.2
		c2.9-5.1,8.5-11,7.4-15.3c-1.2-5.3-8.1-9.2-12.6-13.7c-0.7-0.7-1.5-1.2-2.3-1.9c-28.9-25.4-62.8-42.3-97.8-57.4
		c-32.3-13.9-64.9-27.2-97.1-41.4c-16.5-7.3-32.4-15.9-49.6-24.4c2.3,6.7,4.1,12.4,6.1,18c19.6,55.8,29.2,113.6,32.2,172.5
		c1,19.2-11.7,27.7-29.5,20.4c-6.3-2.6-12.4-5.5-18.7-8.3c-36.3-15.9-72.9-30.7-111.7-39.5c-9-2-18.1-4.2-26.5,2.2
		c-3.7,2.8-8,4.8-11.4,7.8c-23.9,21.1-47.9,42.3-71.5,63.7c-19.5,17.8-27.7,40.2-27.5,66.6c0.4,52.7,0.1,105.5,0.1,158.2
		C742.7,1498.1,742.7,1508.4,742.7,1519.3z M494.5,1028.3c-41.9,23.6-85.7,40.2-128.8,58.6c-26.3,11.2-52,24.1-77.1,37.8
		c-19.5,10.6-36.1,25.4-51.3,41.1c5.1,9.1,10.3,17.3,14.6,25.9c16,31.9,25.8,65.8,34.3,100.3c9.9,40.4,16.8,81.3,20.9,122.6
		c2.7,26.6,3.3,53.4,4.9,80.1c0.5,8.2,1.2,16.3,1.8,24.4c136.3,0,272.1,0,407.5,0c0-33.8,0-67,0-100.1c0-25.9,0.3-51.8-0.3-77.6
		c-0.6-25.2,3.2-49.3,16.2-73.4c-28.2-23.7-56.4-47.6-84.8-71.4c-13.1-11-27.6-13.7-44.3-8.4c-40.3,12.8-79.8,27.6-117.7,46.4
		c-19.9,9.9-35.7-0.8-33.6-21.1c2-18.8,3.6-37.6,5.8-56.4c4.4-38,12.8-75.1,25.5-111.2C490.4,1040.1,492.4,1034.2,494.5,1028.3z
		 M578.9,951.1c0,4.7-0.4,8.2,0.1,11.5c2.1,16.1,5,32.2,6.7,48.3c3.2,31.5,10.2,62,25.6,89.7c16.8,30.2,34.7,59.8,61.1,83.1
		c25.8,22.7,51.1,45.9,76.6,68.9c0.3,0.3,0.9,0.2,0.5,0.1c14.5-13.7,28.4-27.4,42.9-40.3c24.2-21.5,49.5-41.7,67.3-69.6
		c18.7-29.4,37.8-58.6,44.5-93.5c4.7-24.5,7.8-49.4,11.3-74.1c1.2-8.2,1.4-16.6,2.2-26.4c-14,8.2-25.9,16.5-38.8,22.4
		c-13.5,6.2-25.9,13-37.3,22.9c-24.3,21.2-54.9,25.3-85.5,25.6c-20,0.2-40.4-2.4-60.1-6.1c-21.2-4-41.2-11.9-54.6-30.8
		c-1.1-1.6-3.6-2.3-5.5-3.2c-12.7-6-25.5-11.8-38.1-17.9C591.8,958.7,586,955.1,578.9,951.1z M294.2,1519.3c0-3.3,0.1-5.7,0-8.1
		c-0.9-25-0.8-50.2-3.1-75.1c-2.8-31.2-6.7-62.3-11.5-93.2c-6.8-44.2-17.6-87.6-35.4-128.8c-4.9-11.4-11.5-22.2-17.5-33.7
		c-36.1,35.1-106.2,285.8-95.6,338.9C185.3,1519.3,239.3,1519.3,294.2,1519.3z M1369.1,1519.3c-2.6-21.2-3.9-41.7-7.8-61.7
		c-7.8-40-16-79.9-25.9-119.5c-10-40-22.2-79.5-39.1-117.2c-6.2-13.8-13.9-27-20.9-40.5c-1,0.1-2,0.2-3.1,0.3
		c-5.1,9.5-11,18.7-15.3,28.6c-28.2,64.1-40.3,132.1-47.1,201.2c-2.4,24-4.1,48-5.5,72c-0.7,12.1-0.1,24.2-0.1,36.7
		C1259.3,1519.3,1313.3,1519.3,1369.1,1519.3z M1019.5,1217.7c-3.4-91.8-24.6-176-75.7-251.8c-5.8,73.7-28.9,140.6-75.9,198.9
		C921.1,1176,970.2,1194.6,1019.5,1217.7z M553.7,962.9c-50.9,77.2-72.2,162.6-76.2,254.9c50.3-18.8,96.4-44.3,150-53.8
		C579.8,1104.9,558.9,1036.8,553.7,962.9z M489.2,388c-0.2,0.3-1,1.1-1.5,2.1c-16.1,29.9-25.4,62-27.5,95.7
		c-1.2,19.1,0.8,38.3,1.1,57.5c0.2,12.9-0.1,25.9,0.2,38.8c0.1,2.4,1.5,5.9,3.3,7c13.5,7.9,21.9,19.7,27.5,33.9
		c1.9,4.7,4.4,9.2,6.7,13.8c0.7-0.1,1.3-0.3,2-0.4c0-4,0.3-8.1-0.1-12c-4-41.5-4.5-83.1-4.3-124.8c0-3.2-0.2-6.3-0.5-9.5
		c-2.3-23.4-4.9-46.8-6.8-70.2C488.5,409.4,489.2,398.7,489.2,388z M995,634.3c0.8,0.2,1.7,0.3,2.5,0.5c2.6-5.4,5.3-10.8,7.6-16.3
		c5.2-12.3,13.4-22.1,24.6-29.1c4.7-2.9,6-6.3,6-11.4c-0.1-16.1-0.2-32.2,0.2-48.3c0.3-12.4,2.7-24.8,1.8-37.1
		c-2.2-34-11-66.4-25.6-97.3c-1.3-2.8-3.1-5.4-5.6-9.8c0,3.7-0.2,5.2,0,6.6c3.2,18.6,2.8,37.2,0.4,55.9c-2.6,20.5-4.9,41-6.3,61.5
		c-1.3,19.9-1,39.9-1.9,59.8C997.8,591.2,996.2,612.7,995,634.3z"/>
	<path d="M610.2,479.4c2.3-1.6,4.3-3.2,6.4-4.5c30.8-18,63.5-21.5,97.8-12.7c21,5.4,41.9,4,62.8-0.8c36.2-8.3,70.9-4,103.5,14.2
		c3.1,1.7,9.7,2.7,7.1,8.2c-2.9,6.1-7.8,1.4-11.1-0.4c-32.1-16.8-65.8-20.6-101-13c-22.9,5-45.9,3.9-68.6-1.1
		c-28.9-6.3-55.9-0.8-82.1,11.6C618.4,483.9,616.3,483.6,610.2,479.4z"/>
	<path d="M801,736.1c6.2,1,8,3.6,6.9,9.2c-2.8,14.4-10.1,25-23.8,30.7c-29,12-57.2,11.4-83.9-6.4c-9.7-6.5-14.8-16-14.4-27.8
		c0.1-1.9,2.1-3.8,3.2-5.7c1.8,1.2,4.9,2.1,5.3,3.7c4.5,18.9,19.3,23.1,35.5,25.9c14.8,2.5,29.3,3.1,43.9-1.5
		c11.4-3.5,19.8-9.9,23.9-21.4C798.4,740.6,799.7,738.5,801,736.1z"/>
	<path d="M830.4,857c-7,0.6-13.9,1.6-20.9,1.8c-12.6,0.4-25.3-0.6-37.8,0.6c-17,1.5-33.7,2-50.8,0.3c-14.6-1.5-29.6,0.7-44.5,1.1
		c-3.7,0.1-7.3-0.4-11-0.6c-0.2-1-0.3-2-0.5-3c5.2-1.8,10.2-4,15.5-5.2c17.3-3.9,34.6-3.1,52.2-1.1c12.4,1.4,25.3,0,37.8-1.5
		c19.1-2.3,37.8-2.8,56.2,3.6c1.3,0.5,2.6,1,3.8,1.6C830.4,855.3,830.4,856.2,830.4,857z"/>
	<path d="M883.3,890.3c-1.4-3-4.2-6.1-4.1-9c1.7-34.9-14.1-62.7-35-88.6c-2.7-3.4-5.6-6.8-7.8-10.6c-0.9-1.7-0.1-4.4-0.1-6.6
		c2.5,0.3,6.8-0.3,7.4,0.9c10.9,22.2,30.9,39.3,36.7,64.1c3.5,15.2,4.4,31,6.4,46.6c0.1,0.8-0.7,1.7-1.2,2.5
		C884.9,889.8,884.1,890.1,883.3,890.3z"/>
	<path d="M654.4,774.1c5.2,2.8,6.1,5.7,2.4,10.4c-8.1,10.6-15.7,21.6-23.7,32.4c-11.1,15-15,32.3-16.5,50.5
		c-0.7,9-2.1,17.9-3.1,26.8c-0.9,0-1.8,0.1-2.7,0.1c-0.5-1.8-1.3-3.5-1.4-5.3c-2.4-33.5,4.8-64,27.7-89.9
		C643.6,791.8,648.5,782.9,654.4,774.1z"/>
	<path d="M603,531.8c2.1-1.7,4-4.3,6.4-4.9c18.9-4.4,37.6-9.8,56.8-12c14.7-1.7,29.9,0.8,44.8,1.4c0.5,0,1.1,0,1.4,0.3
		c2.2,1.5,4.4,3.1,6.6,4.6c-2.5,0.8-5,2.4-7.5,2.3c-11.7-0.3-23.5-2.4-34.9-1.3c-20.5,2.1-40.7,6.1-61.1,9.3
		c-3.8,0.6-7.5,1.5-11.2,2.2C603.9,533.1,603.4,532.4,603,531.8z"/>
	<path d="M895.9,533.3c-8.4-1.4-17-2.1-25.1-4.4c-24.5-6.7-49.4-8.1-74.6-6.7c-3.6,0.2-7.2,1.4-10.8,1.5c-2,0.1-4-1.2-6-1.9
		c1.7-1.8,3.2-5,5.1-5.2c13.8-1.5,27.9-4.6,41.3-2.9c22.2,2.9,44.1,9.1,66,14c1.7,0.4,3.3,1.4,4.9,2.1
		C896.5,531.1,896.2,532.2,895.9,533.3z"/>
	<path d="M665.7,570c-2.5,1.6-5.1,4.7-7.5,4.6c-23.9-1.1-45,8.3-66.6,16.3c-1.7,0.6-3.4,1-5.4,0.5c23.9-15,48.8-26.9,78.1-24
		C664.8,568.2,665.2,569.1,665.7,570z"/>
	<path d="M904.7,592.3c-21.5-10.2-43.1-20.1-68.2-17.4c0.6-4.9,2.1-7.4,6.9-7c18.3,1.4,36,5.2,52.2,14.4c3.7,2.1,6.8,5.5,10.2,8.3
		C905.5,591.1,905.1,591.7,904.7,592.3z"/>
	<path d="M576.4,681.3c-8.2,5.1-15.2,9.7-22.5,13.9c-1.5,0.9-3.9,0.2-5.8,0.2c0.2-1.6-0.2-4.2,0.6-4.6c7.8-4,15.8-7.7,23.9-11.3
		C573.2,679.2,574.6,680.4,576.4,681.3z"/>
	<path d="M541.1,660.4c11.8-2.4,22.1-4.4,34.3-6.9C569.4,662.7,547.1,666.9,541.1,660.4z"/>
	<path d="M954.7,692.1c-1.6-0.2-2.7-0.1-3.5-0.5c-9.2-4.5-18.3-9-27.8-13.7C937,676.1,953.5,683.2,954.7,692.1z"/>
	<path d="M920.6,654.7c9.4,2.6,18.4-0.1,25.3,6.7C939.5,665.3,926.9,662.4,920.6,654.7z"/>
	<path d="M780.2,1321.1c-0.2,3.5,0.4,7.9-0.9,11.6c-1.1,3.3-3.8,7.3-6.7,8.2c-1.9,0.6-6.7-3.1-7.9-5.9c-4.3-10.2-4.2-20.8,1.7-30.5
		c1.3-2.1,5.6-4.9,6.5-4.3c2.7,1.8,5.3,4.8,6.3,7.9C780.5,1312,780,1316.4,780.2,1321.1z"/>
	<path d="M712.8,1062.2c24.5,14,48.8,12.5,72.9-0.8c3.8,3.2,3.1,5.9-0.6,8.7c-16,12.5-51.9,13.7-68.7,1.8c-2.5-1.7-3.8-5.1-5.7-7.6
		C711.4,1063.7,712.1,1062.9,712.8,1062.2z"/>
	<path d="M712.7,1122.1c21.4,8.4,43,8.6,64.8,2.2c2.7-0.8,6.1,0.5,9.2,0.8c0.1,0.9,0.3,1.8,0.4,2.7c-1.8,1.3-3.3,3.2-5.3,3.8
		c-21.5,6.3-43,9-64.6,0.2C712.3,1129.8,711.1,1127.1,712.7,1122.1z"/>
	<path d="M651.2,1090.4c-1.7-4.1-3.6-8-5.1-12.2c-3-8.2-5.1-16.8-8.9-24.5c-4.5-9.2-10.6-17.7-15.7-26.7c-1.1-1.9-0.8-4.7-1.2-7
		c1.9,0.5,4.5,0.3,5.5,1.5c4.7,5.4,10.1,10.6,13.3,16.9c8.1,16,13.7,33,14.3,51.1C652.8,1089.8,652,1090.1,651.2,1090.4z"/>
	<path d="M845.1,1088.8c-3.3-10.6,1.4-20.5,5.1-30.1c5.7-14.9,10.3-30.9,25.2-39.6c0.8,0.4,1.6,0.8,2.4,1.2
		c-0.6,2.4-0.6,5.4-2.1,7.1c-14.6,17.4-21.1,38.4-27.5,59.5c-0.2,0.7-0.5,1.3-0.7,2C846.7,1088.9,845.9,1088.9,845.1,1088.8z"/>
</g>
</svg>
