<?xml version="1.0" encoding="utf-8"?>
<!-- Generator: Adobe Illustrator 25.0.0, SVG Export Plug-In . SVG Version: 6.00 Build 0)  -->
<svg version="1.1" id="Layer_1" xmlns="http://www.w3.org/2000/svg" xmlns:xlink="http://www.w3.org/1999/xlink" x="0px" y="0px"
	 viewBox="0 0 1500 1500" style="enable-background:new 0 0 1500 1500;" xml:space="preserve">
<style type="text/css">
	.st0{fill:none;stroke:#000000;stroke-width:18.5667;stroke-linecap:round;stroke-linejoin:round;stroke-miterlimit:10;}
	.st1{fill:none;stroke:#000000;stroke-width:18.4911;stroke-linecap:round;stroke-linejoin:round;stroke-miterlimit:10;}
	.st2{fill:none;stroke:#000000;stroke-width:18.656;stroke-linecap:round;stroke-linejoin:round;stroke-miterlimit:10;}
	.st3{fill:none;stroke:#000000;stroke-width:18.3826;stroke-linecap:round;stroke-linejoin:round;stroke-miterlimit:10;}
	.st4{fill:none;stroke:#000000;stroke-width:18.5756;stroke-linecap:round;stroke-linejoin:round;stroke-miterlimit:10;}
	.st5{fill:none;stroke:#000000;stroke-width:18.5795;stroke-linecap:round;stroke-linejoin:round;stroke-miterlimit:10;}
	.st6{fill:none;stroke:#000000;stroke-width:18.5194;stroke-linecap:round;stroke-linejoin:round;stroke-miterlimit:10;}
	.st7{fill:none;stroke:#000000;stroke-width:18.7186;stroke-linecap:round;stroke-linejoin:round;stroke-miterlimit:10;}
	.st8{fill:none;stroke:#000000;stroke-width:18.5641;stroke-linecap:round;stroke-linejoin:round;stroke-miterlimit:10;}
</style>
<g>
	<path class="st1" d="M608.4,430.4c112.6,91,248.7,118,386.1,141.6c97.3,16.7,127.6,79.6,61.5,151.8
		c-34.1,37.3-46.5,77.1-60.8,118.6c-41.7,121.2-118,178.9-245.3,179.9c-119.8,1-233.4-65.4-252.4-181
		c-14.1-85.8-126.1-128.6-92-216.8c33.5-86.5,153-102.5,189.9-194.2"/>
	<path class="st1" d="M415.4,584.9c-130.8-158.1,56.7-382.6,257.4-424.8c90.9-19.1,174.3,8.2,259.1,40.8
		c49-60,18.2-106.9-28.2-142.7C827-1,733.8-15.4,648.5,21.9c-66.6,29.2-134.7,79.9-104.4,176.9"/>
	<path class="st1" d="M904.4,1009.6c68.5,98.8,188,105.5,284.3,152c146.3,70.8,242.7,169.9,256.2,337"/>
	<path class="st1" d="M595.6,996.7c-69.6,107.1-193.4,118.3-295.9,167.6C159,1231.9,56.1,1328.3,55,1498.6"/>
	<path class="st1" d="M492.6,1112.5c54.7,76,97,166.1,205.9,180.2c140.3,18.1,223.8-35,283.1-180.2"/>
	<path class="st1" d="M955.9,211.7c25.7,25.7,50.6,52.5,77.4,77c89.1,81.7,121.6,173,51.3,283.3"/>
</g>
</svg>
