<?xml version="1.0" encoding="utf-8"?>
<!-- Generator: Adobe Illustrator 25.0.0, SVG Export Plug-In . SVG Version: 6.00 Build 0)  -->
<svg version="1.1" id="Layer_1" xmlns="http://www.w3.org/2000/svg" xmlns:xlink="http://www.w3.org/1999/xlink" x="0px" y="0px"
	 viewBox="0 0 1500 1500" style="enable-background:new 0 0 1500 1500;" xml:space="preserve">
<style type="text/css">
	.st0{fill:none;stroke:#000000;stroke-width:18.5667;stroke-linecap:round;stroke-linejoin:round;stroke-miterlimit:10;}
	.st1{fill:none;stroke:#000000;stroke-width:2;stroke-linecap:round;stroke-linejoin:round;stroke-miterlimit:10;}
	.st2{fill:none;stroke:#000000;stroke-width:18.3826;stroke-linecap:round;stroke-linejoin:round;stroke-miterlimit:10;}
	.st3{fill:none;stroke:#000000;stroke-width:18.5795;stroke-linecap:round;stroke-linejoin:round;stroke-miterlimit:10;}
	.st4{fill:none;stroke:#000000;stroke-width:18.7186;stroke-linecap:round;stroke-linejoin:round;stroke-miterlimit:10;}
</style>
<g>
	<path class="st3" d="M1008.6,467.9c-140.6-54.7-246.7-25-323.3,90.5c-36.3,54.7-125.8,58-166.6-1c-31.8-46-44.2-106.1-105-128.3
		c-50.9,114.4-49,112.9,24.5,207.9c17.8,23,17.3,59.7,27.5,89.4c37.1,108.4,146.6,190.1,258.4,194c135.5,4.7,229.2-58.3,286-180.3
		c23.4-50.2,44.1-101.4,86.1-145.7c48-50.7,45.3-118.4-22.9-165.3"/>
	<path class="st3" d="M387.9,1049.8c163.8,226.7,348,278.5,557.4,170.7c72.5-37.3,108-92.7,140.9-157.8"/>
	<path class="st3" d="M931,868.8c39.3,109.5,122.5,158,232.5,182.3c305.6,67.7,312.7,191.9,336.5,412.5"/>
	<path class="st3" d="M543.1,881.7c-21.6,96.9-93.1,131.4-180.6,156.6c-154.6,44.6-317.9,80.3-352.2,282.6
		C2,1369.4,6.2,1416.4,0,1463.6"/>
	<path class="st3" d="M491.4,998.1c151.7,236.2,362.7,236.2,504.3,0"/>
	<path class="st3" d="M1112.1,403.3c17.7-56,14-111,1.2-168.4c-18-80.5-42.2-120.6-140.4-151.6c-145-45.7-271.9-69-417.5-18.4
		C399.6,119,374.2,139.7,376,299.8c0.4,34.2-15.4,71.9,12,103.5"/>
	<path class="st3" d="M788.8,493.8c12.4,50.1,14.1,106.6,90.5,104.3c63.9-1.9,103.1-24.5,118.2-90.9c5.5-24.2,32.6-43.5,49.8-65.1"
		/>
	<path class="st3" d="M517.2,92.9C458,188,485.6,304.8,439.7,403.3"/>
	<path class="st3" d="M969.8,105.9c75.5,85.3,26.6,208.6,90.5,297.4"/>
	<path class="st3" d="M698.3,480.9c-61.2-56.9-126.2-55.9-194-12.9"/>
</g>
</svg>
