<?xml version="1.0" encoding="utf-8"?>
<!-- Generator: Adobe Illustrator 25.0.0, SVG Export Plug-In . SVG Version: 6.00 Build 0)  -->
<svg version="1.1" id="Layer_1" xmlns="http://www.w3.org/2000/svg" xmlns:xlink="http://www.w3.org/1999/xlink" x="0px" y="0px"
	 viewBox="0 0 1500 1500" style="enable-background:new 0 0 1500 1500;" xml:space="preserve">
<g>
	<path d="M436.7,752.3c-3-38.6-5.9-76.6-9.1-117.2c-6.5,0.7-14.4,1.1-22.2,2.3c-32.2,5.1-42.1-6.1-32.7-37.8
		c23.4-77.9,70-139.4,133.7-188.6c71.6-55.3,152.2-90.2,242.4-96.7c66-4.8,133.2,0.7,180.3,54.1c21.7,24.6,40.7,40.8,74.1,45.9
		c37,5.7,60.4,34.5,75.2,67.8c39.5,88.4,31.6,176.6-3.3,264.3c-0.6,1.5-0.7,3.1-1.1,4.8c52.1,24.5,50.7,77.9,37.5,126
		c-14,50.8-37.3,94.9-94.5,109.5c-4.6,1.1-8.1,8.8-11.2,13.9c-21.9,37-41.8,75.4-65.9,111c-22.6,33.3-6.3,105.5,30.8,121.1
		c25.3,10.6,51.1,19.9,76.5,30.4c89.9,36.9,127.4,109.7,136.5,201.3c1.6,16.7,0.4,33.5,1.6,50.2c1.5,20.8-5.2,29.3-28.3,29.1
		c-157.4-1.1-314.9-0.7-472.3-0.7c-113.1,0-226.1-0.4-339.2,0.7c-24.6,0.2-33-8.9-31.4-32.6c5-76.7,12.2-153.4,77-206.5
		c25.9-21.2,57.7-35.7,87.7-51.5c19-10,39.6-16.9,59.6-25.3c19.2-8.1,26.3-23.1,27.5-43.5c2.1-37.2,0.2-72.1-27.2-102.1
		c-10.9-11.9-16.6-28.7-23.9-43.6c-13.8-28.3-22.2-54.3-60.8-67.9c-50.3-17.7-61.9-72-69.2-122c-1-6.6-0.2-13.4-0.2-20.1
		C385,781.5,395.9,766.1,436.7,752.3z M731.3,675.3c-48.7,15.3-96.4,33.8-145.8,44.8c-71,15.8-57.6,25-69.4,79
		c-0.7,3.2,0.7,7.1-0.7,9.9c-2.4,5.5-4.8,12.1-9.4,14.9c-2.3,1.4-9.7-3.9-13.8-7.2c-12.1-10-22.4-22.6-35.7-30.5
		c-24-14.1-42.8-4.1-46.3,23.6c-5,41.2,3.5,80,26.9,114.3c11.7,17.1,26.4,34,50.5,31.9c17.7-1.6,24.3,5.7,29.8,21.9
		c20.2,60.1,49.5,115,99.2,156.5c47.4,39.6,100.7,62.9,163.7,49.1c100.8-22,158.8-92,197.6-181.6c9.4-21.5,11.9-47.3,45.3-44.2
		c6.2,0.6,14.4-5.1,19.7-10c40.4-37.3,55.7-84.7,48.8-138c-4.3-33.4-22.3-39.3-51.1-21.5c-13.5,8.4-27.2,16.3-40.9,24.5
		c-5-16.2-8.4-33.3-15.3-48.7c-22.2-48.8-45.6-97.1-69.8-148.1c-6.6,7.5-11.4,12.9-16.2,18.3c-42.6,48-94.4,81.6-156.4,98.6
		c-7.3,2.1-16-0.8-24-1.4c0.6-7.7,0.1-15.8,2-23.1C723.4,696.1,728.2,684,731.3,675.3z M1020.6,775.8c9.4-10.9,22.9-21.4,29.4-35.2
		c30.4-64.7,37.2-133.1,22.7-202.6c-14.8-70.8-45.5-95.7-118.6-105.8c-8.5-1.1-15.9-11.8-23.1-18.8c-18.2-17.6-33-43.2-54.6-51.8
		c-34.8-13.6-74.3-23.4-111.3-22c-132.3,5.2-237.4,66.8-317.4,170.5c-21.7,28.1-35,62.6-53.2,96.2c28.3,3,49.5,5.3,67.4,7.2
		c-2,32.7-7.5,61.7-4.3,89.7c3,26.6,1.3,59.6,37.2,73.3c3.7-41.8,22.6-69.5,64.3-76.2c63.1-10.3,122.9-28.6,176-65.9
		c5.1-3.6,15.8-5.4,19.9-2.5c4.3,3.1,5.8,13.1,5.2,19.8c-1.6,17.1-5,34-7.9,52.3C823.3,681,871.9,631,920,571.7
		C954.7,642.4,986.7,707.1,1020.6,775.8z M339.2,1517.5c276.2,0,549,0,823.3,0c-1.1-17.8-1.9-34.3-3.4-50.8
		c-4.8-53.5-19.3-102.9-60-141.5c-38.3-36.3-88-49.3-135.4-67c-4.3-1.6-13.2,1.7-16.4,5.7c-47.3,59.2-112,90.9-181.2,115.4
		c-10.1,3.6-23.5,3.9-33.6,0.6c-69.1-22.8-131.9-55.9-178.1-114.7c-3.3-4.2-11.7-9.3-14.9-7.8c-42.9,19.8-89.2,35.3-126.9,62.4
		C347,1367,341.4,1441.4,339.2,1517.5z M575.1,1251.2c40,50.7,101.6,83.4,169.8,106c2.9,1,6.7,0.2,9.8-0.9
		c61-21.4,119-48.1,163.4-97.3c5.3-5.9,10.5-16.8,8.7-23.5c-7.3-27.9-17.3-55.1-25.9-81.3c-90.3,70.1-191.4,88.4-305.1-1.1
		C589.5,1182.4,583.1,1213.2,575.1,1251.2z"/>
</g>
</svg>
