<?xml version="1.0" encoding="utf-8"?>
<!-- Generator: Adobe Illustrator 25.0.0, SVG Export Plug-In . SVG Version: 6.00 Build 0)  -->
<svg version="1.1" id="Layer_1" xmlns="http://www.w3.org/2000/svg" xmlns:xlink="http://www.w3.org/1999/xlink" x="0px" y="0px"
	 viewBox="0 0 1500 1500" style="enable-background:new 0 0 1500 1500;" xml:space="preserve">
<path d="M370.9,1220.5c-39.6,4.4-45.8-14.5-48.3-40.5c-11.6-117-29-233.5-36-350.7c-9.5-157.8-11-316.2,42.9-468.6
	c64-181.2,257.4-307.4,449.2-293.7c11.9,0.8,23.6,3.8,35.3,6.1C850,80,1047.8,169,1070.6,187.1c72.5,57.4,106.3,137.2,123.5,223.6
	c33.7,169.2,33.2,340.2,15.4,511.4c-8.9,85.5-18,171-27.9,256.4c-2.3,19.8-0.9,44.4-39.5,42.6c66.3,49.6,109.9,108.3,126.9,183
	c9.1,40,12.6,81.3,17.8,122.1c3.5,27-9.5,36.1-36.3,36.2c-256.8,0.9-513.6,2.8-770.3,4.1c-75.4,0.4-150.8,0.3-226.2,0
	c-34.7-0.1-43.3-8.4-41.4-42.8C219.2,1403.1,257.5,1298.1,370.9,1220.5z M358.3,1188.2c23.4,0,45.2,2.1,66.5-0.4
	c58.2-7,103.5-34.5,123.5-91.8c9.5-27.2,16.5-57.8-9.5-82.1c-53.2-49.7-86.7-110.5-105.8-180.5c-3.6-13.4-16.3-28.1-28.8-34.6
	c-55.2-29.1-82.8-78.6-74.4-139.7c6.9-50.2,38.1-87.7,72.8-94.4c61.4-11.9,123.7-22.2,183.1-41C700.5,487.2,799,425.6,865.5,321
	c5.8-9.2,16.1-15.5,24.3-23.1c5.7,9.8,13,18.9,16.9,29.4c30.7,81.6,73.3,155.7,138.6,214.4c13.2,11.9,34.1,15.1,50.8,23.4
	c17,8.4,38.5,14.1,49,27.9c50.3,66.5,35.1,174.9-47.9,211.4c-14.1,6.2-26.8,23.8-32.7,39c-23.2,60.5-50.2,118.2-98.6,163
	c-19.3,17.8-22.3,38.6-17.1,62.6c17.9,82,109.3,136.4,198.6,116.8c3.2-28.6,7.1-57.6,9.6-86.8c10.7-122.6,24.9-245.1,30-368
	c3.2-77-4.6-154.9-12.7-231.8c-8.2-77-28.6-151.5-69.2-218.8c-35.4-58.6-83.5-99.3-153.7-110.5c-14.4-2.3-28-11.2-41.5-17.7
	c-22.5-10.9-43.8-24.6-67-33.2c-129-47.8-310.5,10.5-408,130.2C348,356,322.5,483.6,317.2,615.5
	C309.6,805.6,329.6,994.4,358.3,1188.2z M883,359.2c-123.2,150-284.6,216.4-468.6,239.5c-12.8,1.6-28.5,12-35.5,23
	c-35.8,56.4-15.2,121.7,46.6,148.6c20.8,9.1,31.9,20.7,37.4,43.7c13.8,57.8,39,110.9,80,154.9c93.1,99.8,235.9,146.5,364.3,44
	c59.9-47.8,101.1-107.4,124.1-180.1c7.7-24.2,16.1-47.6,44.1-56.2c66.3-20.4,83.5-104.1,44.1-163c-5-7.5-17.7-15.8-25.6-14.7
	c-35,5-58.6-12.8-80.1-35.5C958,504.3,914.2,437.2,883,359.2z M1255,1532.4c-5.5-114.6-30.5-216.4-131.7-281.9
	c-29.1-18.8-62.4-30.8-92.6-48.2c-24.3-14-37.9-8.2-54.8,13.9c-80,104.3-203.7,142.3-322.6,102.2c-65-21.9-109.3-68.8-146.5-122.7
	c-204.1,60.6-262.6,199.7-257.4,336.7C583.4,1532.4,917.3,1532.4,1255,1532.4z M599.9,1061.3c-17.4,34.1-32,67.6-51.1,98.3
	c-9.2,14.8-9.4,22.9,0.1,36.8C651,1345,874.5,1331.5,961.7,1176c-20-41.4-38.6-79.8-56.9-117.6
	C785.3,1128.3,699.3,1116.2,599.9,1061.3z"/>
</svg>
