<?xml version="1.0" encoding="utf-8"?>
<!-- Generator: Adobe Illustrator 25.0.0, SVG Export Plug-In . SVG Version: 6.00 Build 0)  -->
<svg version="1.1" id="Layer_1" xmlns="http://www.w3.org/2000/svg" xmlns:xlink="http://www.w3.org/1999/xlink" x="0px" y="0px"
	 viewBox="0 0 1500 1500" style="enable-background:new 0 0 1500 1500;" xml:space="preserve">
<g>
	<path d="M368.2,579.1c-3.6-47.1-7.2-93.4-11.1-142.9c-7.9,0.8-17.5,1.3-27,2.8c-39.2,6.2-51.3-7.4-39.8-46.1
		C318.8,298,375.6,223,453.2,163C540.5,95.6,638.7,53.1,748.7,45.2c80.4-5.8,162.4,0.9,219.8,65.9c26.5,30,49.6,49.7,90.3,55.9
		c45.1,6.9,73.6,42.1,91.6,82.6c48.1,107.7,38.5,215.2-4,322.1c-0.7,1.8-0.9,3.8-1.3,5.8c63.5,29.9,61.8,95,45.7,153.6
		c-17.1,61.9-45.5,115.7-115.2,133.5c-5.6,1.4-9.9,10.7-13.6,17c-26.7,45.1-50.9,91.9-80.3,135.3c-27.5,40.6-7.7,128.6,37.6,147.6
		c30.8,12.9,62.3,24.3,93.2,37c109.6,45,155.3,133.7,166.4,245.4c2,20.3,0.5,40.8,1.9,61.2c1.8,25.4-6.3,35.7-34.5,35.5
		c-191.9-1.3-383.8-0.8-575.7-0.8c-137.8,0-275.6-0.5-413.4,0.8c-30,0.3-40.2-10.9-38.3-39.7c6.1-93.5,14.9-187,93.9-251.7
		c31.6-25.9,70.3-43.5,106.9-62.8c23.2-12.2,48.3-20.6,72.6-30.8c23.4-9.9,32.1-28.1,33.5-53c2.6-45.4,0.2-87.9-33.2-124.4
		c-13.3-14.5-20.2-35-29.1-53.2c-16.8-34.5-27.1-66.2-74.1-82.8c-61.3-21.6-75.4-87.8-84.4-148.7c-1.2-8-0.3-16.3-0.3-24.5
		C305.1,614.7,318.4,595.9,368.2,579.1z M727.2,485.3c-59.3,18.6-117.5,41.2-177.7,54.6c-86.5,19.3-70.2,30.5-84.6,96.3
		c-0.9,3.9,0.8,8.6-0.8,12.1c-2.9,6.7-5.9,14.8-11.4,18.2c-2.8,1.7-11.8-4.7-16.8-8.8c-14.7-12.2-27.3-27.6-43.5-37.2
		c-29.2-17.2-52.2-5-56.4,28.8c-6.1,50.2,4.3,97.5,32.8,139.3c14.2,20.9,32.2,41.5,61.5,38.9c21.6-1.9,29.6,7,36.3,26.7
		c24.6,73.2,60.3,140.2,120.9,190.8c57.8,48.3,122.7,76.7,199.5,59.9c122.8-26.8,193.5-112.1,240.9-221.3
		c11.4-26.2,14.5-57.6,55.2-53.9c7.6,0.7,17.5-6.2,24-12.2c49.2-45.5,67.9-103.2,59.5-168.2c-5.3-40.7-27.2-47.9-62.3-26.2
		c-16.5,10.2-33.2,19.9-49.8,29.9c-6.1-19.8-10.2-40.6-18.7-59.4c-27-59.5-55.6-118.3-85.1-180.5c-8,9.1-13.9,15.7-19.7,22.3
		c-51.9,58.5-115.1,99.4-190.6,120.2c-8.9,2.5-19.5-1-29.3-1.7c0.7-9.4,0.1-19.2,2.4-28.2C717.6,510.7,723.5,495.9,727.2,485.3z
		 M1079.8,607.8c11.4-13.3,27.9-26.1,35.8-42.9c37-78.8,45.4-162.2,27.7-246.9c-18-86.3-55.5-116.7-144.6-129
		c-10.3-1.4-19.4-14.4-28.2-22.9c-22.2-21.5-40.2-52.7-66.6-63.1c-42.4-16.6-90.5-28.5-135.6-26.8C607,82.5,478.9,157.6,381.5,284
		c-26.4,34.2-42.6,76.3-64.9,117.3c34.5,3.7,60.3,6.4,82.1,8.8c-2.4,39.9-9.2,75.2-5.2,109.3c3.7,32.4,1.6,72.6,45.3,89.3
		c4.5-50.9,27.6-84.7,78.4-92.9c76.9-12.5,149.8-34.9,214.5-80.3c6.2-4.4,19.3-6.6,24.3-3c5.3,3.8,7.1,16,6.3,24.1
		c-1.9,20.8-6.1,41.5-9.6,63.8c86.7-28.2,145.9-89.1,204.5-161.4C999.5,445.2,1038.5,524.1,1079.8,607.8z M249.3,1511.8
		c336.7,0,669.1,0,1003.5,0c-1.4-21.7-2.3-41.8-4.1-61.9c-5.9-65.2-23.5-125.4-73.1-172.5c-46.7-44.3-107.3-60.1-165-81.7
		c-5.2-2-16.1,2.1-20,6.9c-57.6,72.2-136.5,110.8-220.8,140.6c-12.3,4.4-28.6,4.7-41,0.7c-84.2-27.8-160.8-68.1-217.1-139.8
		c-4-5.1-14.3-11.3-18.2-9.5c-52.3,24.1-108.7,43-154.7,76.1C258.9,1328.3,252,1419,249.3,1511.8z M536.9,1187.2
		c48.7,61.8,123.8,101.6,206.9,129.2c3.5,1.2,8.2,0.2,11.9-1.1c74.4-26.1,145.1-58.6,199.1-118.6c6.5-7.2,12.8-20.5,10.6-28.7
		c-8.9-34-21.1-67.1-31.6-99.1c-110.1,85.5-233.3,107.8-371.9-1.4C554.4,1103.4,546.6,1140.9,536.9,1187.2z"/>
</g>
</svg>
