<?xml version="1.0" encoding="utf-8"?>
<!-- Generator: Adobe Illustrator 25.0.0, SVG Export Plug-In . SVG Version: 6.00 Build 0)  -->
<svg version="1.1" id="Layer_1" xmlns="http://www.w3.org/2000/svg" xmlns:xlink="http://www.w3.org/1999/xlink" x="0px" y="0px"
	 viewBox="0 0 1500 1500" style="enable-background:new 0 0 1500 1500;" xml:space="preserve">
<path d="M444.9,1260.5c-31.9,3.5-36.9-11.7-38.9-32.6c-9.3-94.1-23.3-187.9-29-282.2c-7.6-127-8.9-254.4,34.5-377
	c51.5-145.8,207.1-247.3,361.4-236.3c9.6,0.6,19,3.1,28.4,4.9c29,5.6,188.1,77.2,206.5,91.7c58.3,46.2,85.5,110.4,99.4,179.9
	c27.1,136.1,26.7,273.7,12.4,411.5c-7.2,68.8-14.5,137.6-22.4,206.3c-1.9,15.9-0.7,35.7-31.8,34.3c53.3,39.9,88.4,87.1,102.1,147.2
	c7.3,32.2,10.1,65.4,14.3,98.2c2.8,21.7-7.6,29-29.2,29.1c-206.6,0.7-413.3,2.3-619.8,3.3c-60.7,0.3-121.3,0.2-182,0
	c-27.9-0.1-34.8-6.8-33.3-34.4C322.9,1407.4,353.7,1322.9,444.9,1260.5z M434.8,1234.5c18.8,0,36.4,1.7,53.5-0.3
	c46.8-5.6,83.3-27.8,99.4-73.9c7.6-21.9,13.3-46.5-7.6-66.1c-42.8-40-69.8-88.9-85.1-145.2c-2.9-10.8-13.1-22.6-23.2-27.8
	c-44.4-23.4-66.6-63.2-59.9-112.4c5.6-40.4,30.7-70.6,58.6-76c49.4-9.6,99.5-17.9,147.3-33c92.4-29.4,171.6-78.9,225.1-163.1
	c4.7-7.4,13-12.5,19.6-18.6c4.6,7.9,10.5,15.2,13.6,23.7c24.7,65.7,59,125.3,111.5,172.5c10.6,9.6,27.4,12.1,40.9,18.8
	c13.7,6.8,31,11.3,39.4,22.4c40.5,53.5,28.2,140.7-38.5,170.1c-11.3,5-21.6,19.2-26.3,31.4c-18.7,48.7-40.4,95.1-79.3,131.2
	c-15.5,14.3-17.9,31.1-13.8,50.4c14.4,66,87.9,109.8,159.8,94c2.6-23,5.7-46.3,7.7-69.8c8.6-98.6,20-197.2,24.1-296.1
	c2.6-62-3.7-124.6-10.2-186.5c-6.6-62-23-121.9-55.7-176.1c-28.5-47.2-67.2-79.9-123.7-88.9c-11.6-1.9-22.5-9-33.4-14.2
	c-18.1-8.8-35.2-19.8-53.9-26.7c-103.8-38.5-249.8,8.4-328.3,104.8c-69.9,85.9-90.4,188.6-94.7,294.7
	C395.6,926.7,411.7,1078.6,434.8,1234.5z M857,567.5c-99.1,120.7-229,174.1-377,192.7c-10.3,1.3-22.9,9.7-28.6,18.5
	c-28.8,45.4-12.2,97.9,37.5,119.6c16.7,7.3,25.7,16.7,30.1,35.2c11.1,46.5,31.4,89.2,64.4,124.6c74.9,80.3,189.8,117.9,293.1,35.4
	c48.2-38.5,81.3-86.4,99.9-144.9c6.2-19.5,13-38.3,35.5-45.2c53.3-16.4,67.2-83.8,35.5-131.2c-4-6-14.2-12.7-20.6-11.8
	c-28.2,4-47.2-10.3-64.5-28.6C917.3,684.2,882.1,630.2,857,567.5z M1156.3,1511.5c-4.4-92.2-24.5-174.1-106-226.8
	c-23.4-15.1-50.2-24.8-74.5-38.8c-19.6-11.3-30.5-6.6-44.1,11.2c-64.4,83.9-163.9,114.5-259.6,82.2c-52.3-17.6-87.9-55.4-117.9-98.7
	c-164.2,48.8-211.3,160.7-207.1,270.9C615.9,1511.5,884.6,1511.5,1156.3,1511.5z M629.2,1132.4c-14,27.4-25.7,54.4-41.1,79.1
	c-7.4,11.9-7.6,18.4,0.1,29.6c82.2,119.6,262,108.7,332.1-16.4c-16.1-33.3-31.1-64.2-45.8-94.6
	C778.4,1186.3,709.2,1176.6,629.2,1132.4z"/>
</svg>
