<?xml version="1.0" encoding="utf-8"?>
<!-- Generator: Adobe Illustrator 25.0.0, SVG Export Plug-In . SVG Version: 6.00 Build 0)  -->
<svg version="1.1" id="Layer_1" xmlns="http://www.w3.org/2000/svg" xmlns:xlink="http://www.w3.org/1999/xlink" x="0px" y="0px"
	 viewBox="0 0 1500 1500" style="enable-background:new 0 0 1500 1500;" xml:space="preserve">
<g>
	<path d="M476.4,1149.7c-4.9,15.1-9.9,30.2-14.8,45.4c-5.9,18.1-7,19.3-25.4,13.6c-23.8-7.4-47.1-16.1-71.6-24.6
		c-2.1,7.9-4.7,17.5-7.2,27.3c-6.4,24.9-12.5,49.9-19.2,74.7c-3.7,13.6-13.4,19.4-25.7,16.3c-12.1-3-18.4-12.9-15.4-26.3
		c8.3-36.9,17.1-73.7,26-110.5c1.1-4.7,1.4-8.1-4-10.4c-3.7-1.6-7-4.4-10.2-7c-9.8-8-11.3-14.6-6.7-26.2
		c16.2-40.1,33.6-79.6,56.5-116.6c35.1-56.8,84.7-96.1,145.5-121.8c22.1-9.3,45.3-15.8,68-23.6c2.2-0.7,4.4-1.3,6.5-1.9
		c-12.5-9.5-25-18.2-36.7-28.1c-33.3-28.1-58.3-62.6-75.1-102.9c-1.8-4.3-3.6-5.5-8.9-5.5c-17.8,0-32.9-7.5-45.7-19.7
		c-21.5-20.4-33-45.9-38.9-74.4c-4.5-21.8-4.2-43.6,2.9-64.9c6.5-19.5,18.2-34.3,38.9-40.1c2.1-0.6,4.3-0.9,6.4-1.1
		c2.2-0.2,4.3,0,7,0c0.2-2.2,0.4-4.1,0.4-5.9c0-20-1.3-40,0.3-59.9c5.2-61.3,23.3-118.1,63-166.5c44.8-54.5,103.8-84.5,171.8-98.8
		c35.1-7.4,70.6-8.9,106.1-7c32.3,1.7,64.1,7.2,93.4,17.9c11.3-15.9,21.2-31.8,33-46.2c20.9-25.2,46.8-43.5,79.9-48.9
		c42.6-6.9,82.1,0.8,115.4,29.7c8.7,7.6,14.8,18.5,20.9,28.6c4.3,7.3,0.4,12.2-8.7,12.6c-10.7,0.5-21.4,0.8-32.1,1.6
		c-5.3,0.4-10.5,1.8-16.6,2.9c7.8,6.6,15.3,12.3,21.9,18.7c21.3,20.7,34.6,45.4,33.8,75.7c-0.3,10.6-3.7,21.5-7.4,31.6
		c-3.5,9.6-10.7,9.9-17,1.8c-27.9-35.6-64.1-58.3-108.1-68.6c-12.8-3-25.7-4.8-39.9-1.1c4.6,3.3,8.6,6.2,12.5,9.1
		c41,31.2,66.6,73,82.8,121.1c14.6,43.4,19.5,88.2,17.5,133.9c-0.2,5.5-1.1,11-1.6,16.4c32.9,5.3,51.5,22.9,56.8,57.8
		c7.3,47.9-5.4,90.2-40.7,124.5c-12.5,12.2-27.9,18.4-45.4,19c-3.8,0.1-6.1,0.9-7.7,4.8c-22.5,54.7-59.9,96.9-109.1,129.1
		c-0.8,0.5-1.5,1.1-2.4,1.9c16.9,5.3,33.7,9.9,49.9,15.7c51.4,18.6,98.7,44.2,136.8,84.2c30.6,32.1,51.8,70.5,70.1,110.4
		c7.9,17.2,14.8,34.9,21.9,52.4c6,14.8,3.7,21.6-9.7,30.9c-4.1,2.8-10.3,4.9-11.7,8.7c-1.4,4,1.8,9.7,3,14.7c8,34,16.1,68,24,102.1
		c2.7,11.6-3.5,22.5-14.1,25.3c-12.1,3.3-23.1-2.3-26.3-14.4c-7.6-28.6-14.6-57.3-21.9-86c-1.6-6.3-3.4-12.6-4.9-18.2
		c-21.3,7.8-42.5,15.5-63.7,23.1c-5,1.8-10.3,2.8-15.5,4c-9.2,2-12.6,0.3-15.5-8.4c-5.6-16.5-11-33.1-16.5-49.7
		c-0.4-1.1-1.1-2.1-2.5-3c1.6,12.9,3.3,25.7,4.8,38.6c3.2,26.3,6.4,52.6,9.7,78.9c1.3,10.4,2.6,20.8,4,31.1
		c1.7,12.5-0.6,16.9-12.8,19.1c-25.8,4.8-51.6,9.8-77.6,12.9c-36.3,4.3-72.7,8-109.1,9.7c-37.3,1.8-74.6,1.3-112,1.3
		c-19,0-38.1-0.8-57-2.2c-32.8-2.4-65.6-4.8-98.2-8.7c-28.4-3.4-56.7-8.5-85-13.3c-11.5-1.9-14.2-6.9-12.7-18.6
		c4.3-33.5,8.3-67.1,12.5-100.7c1.6-13,3.5-26,5.2-39.1c0.4-2.8,0.4-5.7,0.6-8.5C477.2,1149.9,476.8,1149.8,476.4,1149.7z
		 M859.7,337.8c-1,1.6-2.4,3.8-3.7,6.1c-9.2,16-21.1,29.8-35,41.9c-35.7,31.3-77.8,50.2-123.1,62.4c-31.7,8.6-63.9,14.8-96.9,16.2
		c-22.4,0.9-44.8,1.4-67.2,0.8c-25.3-0.7-17.9-6.3-28.9,16.3c-11.6,23.9-14.2,50.3-18.6,76.1c-1.4,8.4-2.3,16.9-4.7,25
		c-1.2,3.9-4.7,8.8-8.2,9.9c-2.6,0.8-7.1-3.5-10.3-6.1c-2-1.6-2.7-4.6-4.5-6.6c-4.1-4.5-8-9.2-12.7-12.9c-7-5.4-15-5-21.2,1.1
		c-3.7,3.6-7.2,8.4-8.5,13.2c-7.8,31.2,0.3,59.2,19.8,84c10.1,12.9,23.4,17,39.8,11.9c14.2-4.5,16-2.7,20.8,11.7
		c15.7,47.5,42.8,87.4,82.1,118.3c63.1,49.5,134.8,65.7,213.1,51c67.5-12.7,120.3-49.4,160.4-104.7c14.7-20.2,24.5-43,32.2-66.7
		c3.8-11.6,6.2-12.6,18.2-10c6.8,1.4,14,2.8,20.7,1.9c12.5-1.7,20.3-10.9,26.7-21c14.5-22.9,20.2-47.9,14.4-74.6
		c-2-9.2-7.3-17.3-17.9-19.1c-10.7-1.8-17.3,4.7-23,12.4c-2.7,3.7-4.7,8.1-7.8,11.4c-2.5,2.5-6.4,5.3-9.4,5c-2.6-0.2-5.1-4.4-7-7.3
		c-1.2-1.7-1.4-4.1-1.7-6.3c-2.9-18.2-6.1-36.4-8.7-54.7c-3.6-26.3-13.3-49-33.1-67.9c-21.5-20.5-41.8-42.4-60.7-65.3
		C881.6,374.8,871.4,355.7,859.7,337.8z M601.5,871.5c-2.2,11.1-0.9,21.2,2.7,30.8c11.9,31.6,35.5,51.5,65.7,64.5
		c35.7,15.4,72.8,16.8,110.3,9.7c34.4-6.5,64.2-22.1,86-50.6c12.4-16.3,18.7-34.3,15.1-55.4C788.3,917,695.4,917.1,601.5,871.5z"/>
</g>
</svg>
