<?xml version="1.0" encoding="utf-8"?>
<!-- Generator: Adobe Illustrator 25.0.0, SVG Export Plug-In . SVG Version: 6.00 Build 0)  -->
<svg version="1.1" id="Layer_1" xmlns="http://www.w3.org/2000/svg" xmlns:xlink="http://www.w3.org/1999/xlink" x="0px" y="0px"
	 viewBox="0 0 1500 1500" style="enable-background:new 0 0 1500 1500;" xml:space="preserve">
<g>
	<path d="M477.7,1171.7c-2.6,7.2-5.2,14.4-7.8,21.6c-4.5,12.6-9.1,25.1-13.5,37.8c-2,5.8-5.1,7.6-11.6,5.9
		c-26.2-6.8-51.4-16.3-75.6-28.3c-1.3-0.6-2.6-1.1-4.8-2c-2.4,11.6-4.8,22.7-7.1,33.8c-5,24-9.6,48.1-14.9,72.1
		c-4.2,19.1-23.5,25.3-38.2,13c-6.2-5.2-6.5-11.6-5.1-18.5c7.8-38.3,15.6-76.7,23.7-115c1-4.7-0.3-6.9-3.8-9.6
		c-24.3-18-24.7-19.9-14.8-48.4c17.1-49,39.9-95,72.3-135.9c41.9-52.7,95.3-88.7,159.3-108.8c16.8-5.3,34.1-9.2,51.5-13.8
		c-6.8-4.9-13.9-9.7-20.8-14.9c-43.4-32.9-74.3-75.4-95.2-125.3c-2.3-5.4-4.8-7.7-10.9-8c-26-1.5-45.5-15.2-60.4-35.4
		c-27.5-37.4-37.5-79.5-27.9-125c4.9-23.4,17.4-42.4,42-50.1c5-1.6,10.5-1.7,16.6-2.6c-0.4-4.7-1.1-9.5-1.3-14.3
		c-2.5-61.1,1.5-121.4,26.1-178.4c27.7-64.2,75.3-109.2,137.3-139.9c39.8-19.7,82.1-29.7,126.3-32.7c46-3.1,91.6-1.2,136.4,10.6
		c45.9,12.1,84.4,35.9,114.6,72.8c3.2,4,5.5,3.2,9,0.6c11.3-8.4,22.7-16.8,34.4-24.7c5.6-3.8,12.1-8.1,18.7-2.5
		c6.4,5.4,3,12,0.6,18.2c-5.8,15.2-11.7,30.4-17.2,45.7c-0.7,2-0.5,5.6,0.8,6.8c27.7,25.3,41.3,57.7,48.8,93.5
		c8.2,39.1,7,78.5,4.6,118c-0.5,8.7-1.4,17.4-2.1,26.7c5.1,0.5,10,0.5,14.6,1.5c16.3,3.7,27.6,14,35.6,28.1
		c12.9,22.8,15.3,47.4,11.5,72.9c-5,34-17.8,64-43.4,87.9c-14.2,13.2-30.9,20.8-50.2,23c-2.4,0.3-5.7,2.5-6.6,4.7
		c-23.4,57.7-61,103.8-112.3,138.9c-2.1,1.5-4.2,3-6.9,5.1c43.9,6.6,83.8,21.5,121.5,42.7c48.6,27.4,87.1,65.4,116.9,112.4
		c24.1,37.8,41.6,78.6,54.4,121.5c1.8,5.9,0.4,10.1-3.5,13.8c-6.2,5.9-12.5,11.7-19.1,17c-3,2.4-4.1,4.2-3.2,8.4
		c8.6,38.9,16.8,77.9,25.1,116.9c1.7,7.9-1.5,14.4-9,19c-7.7,4.8-18.6,5-24.5-1.2c-4.3-4.5-8.1-10.6-9.5-16.6
		c-7.4-32.4-14-65-21-97.6c-0.4-2.1-1.2-4.2-1.5-5.4c-21,7.9-41.6,15.8-62.3,23.3c-7.5,2.7-15.4,4.3-23.1,6.5
		c-6.7,1.9-10.9,0.2-13.3-7c-5.3-15.9-11.2-31.6-17-47.3c-1.4-3.8-2.9-7.6-4.7-12.1c5,39.6,9.9,78.3,14.7,117.1
		c1.8,14.3,3.1,28.6,4.7,42.8c0.6,5.1-1.2,7.6-6.4,8.5c-18.4,3.1-36.7,7.2-55.3,9.6c-31.6,4-63.4,8.3-95.2,10
		c-50.2,2.7-100.4,4.8-150.7,4.5c-43.4-0.3-86.8-3-130-6.9c-42.1-3.8-84-10.4-125.9-16.1c-10.7-1.5-11.9-3.2-10.7-13.9
		c3.1-28.3,6.5-56.6,9.7-84.9c2.5-21.5,5-43,7.5-64.6c0.2-1.6,0-3.3,0-4.9C478.5,1171.9,478.1,1171.8,477.7,1171.7z M938.6,351.4
		c-6.5,6.2-12.4,12.3-18.9,17.8c-42.3,35.9-91.3,58.1-145.7,68.2c-13.6,2.5-27.5,3.8-41.3,4.7c-11.3,0.7-14.6-4.8-10-15.2
		c2.4-5.5,5.5-10.8,8.2-16.2c4.4-8.7,8.9-17.4,13.3-26.2c-0.6-0.6-1.2-1.3-1.8-1.9c-10.7,6.1-21.7,11.5-31.9,18.3
		c-41.7,27.7-86.6,48.2-134.8,61.6c-4.4,1.2-9.1,1.8-13.7,1.7c-6.2-0.1-10.8-3.3-11.7-9.8c-0.7-5.5-0.8-11.1-1.2-16.7
		c-0.6-7.4-1.2-14.8-2-23.6c-4.7,2.4-7.8,3.8-10.6,5.6c-13.2,8.4-22.1,20.4-28.3,34.5c-9.4,21.7-11.9,45-14.8,68.2
		c-2.6,20.5-4.7,41.1-7.4,61.6c-0.3,2.2-2.2,5.1-4.2,6c-1.5,0.7-4.6-0.8-6.3-2.2c-2.6-2.1-4.5-5.2-7-7.5c-6.2-5.8-12.2-12-19-17
		c-8.6-6.2-18-5.2-24.9,2.8c-3.9,4.4-7.1,10-8.8,15.6c-7.1,23.1-0.9,44.9,8.7,65.7c13.7,30.1,31.8,39.6,64.4,35.3
		c4.9-0.6,8,0.9,9.5,5.7c1.9,6,3.6,12.1,5.9,18c37.2,93.1,102.3,153,203.1,169.8c44.5,7.5,88.6,4.4,130.9-11.6
		c81.8-30.9,135.8-88.7,161.9-172.2c3.3-10.5,3.8-11.2,14.3-8.5c20.4,5.3,36.6-1.4,49-17.5c5.9-7.6,11-16.1,14.7-25
		c8.3-19.9,12-40.7,4.4-61.8c-7.9-21.9-23.7-26-41-10.7c-6.2,5.5-11.3,12.2-17.3,17.8c-2,1.9-5.7,3.5-8.2,3c-1.8-0.4-3.7-4.3-4-6.9
		c-2.7-19.8-5.2-39.6-7.4-59.4c-4-36.2-12.1-71.4-25.2-105.3C970.3,393.4,957.1,370.8,938.6,351.4z M607.9,889c0,3.1-0.1,5.7,0,8.3
		c0.1,1.7,0.4,3.4,0.7,5c8.6,39.9,33.2,66.6,70,82c38.8,16.2,79.2,16.2,119.7,6.6c32.5-7.7,59-25,77.7-52.9
		c9.9-14.7,15.6-31,14.9-49.5C796.5,933.2,702.6,932.8,607.9,889z"/>
</g>
</svg>
