<?xml version="1.0" encoding="utf-8"?>
<!-- Generator: Adobe Illustrator 25.0.0, SVG Export Plug-In . SVG Version: 6.00 Build 0)  -->
<svg version="1.1" id="Layer_1" xmlns="http://www.w3.org/2000/svg" xmlns:xlink="http://www.w3.org/1999/xlink" x="0px" y="0px"
	 viewBox="0 0 1500 1500" style="enable-background:new 0 0 1500 1500;" xml:space="preserve">
<g>
	<path d="M420.7,1233.5c-5.9,20.6-12.8,41-17.6,61.9c-5.2,22.7-16.5,28.6-37.9,18.1c-21.5-10.5-43.8-19.6-66.6-29.7
		c-2,11.6-3.9,22.7-5.7,33.9c-2.1,13.4-3.8,26.9-6.1,40.3c-2,11.7-11.7,18.9-23.7,18.1c-13.3-0.9-22.5-7.7-22.2-18.5
		c0.2-10.1,2.5-20.2,4.2-30.2c3.5-19.6,7.3-39,10.7-58.6c0.3-1.7-1.7-4.8-3.4-5.8c-8-4.4-16.4-8.2-24.5-12.4
		c-10.6-5.5-14.2-13.8-10.1-24.9c20.5-56.1,40.5-112.5,62.3-168.1c16.9-43.2,47.2-75,89.9-94.1c62.6-27.9,125.3-55.6,188.2-83
		c10.7-4.7,15.4-11.4,14.8-22.9c-0.6-10,0.2-20-0.3-30c-0.1-3-1.6-6.6-3.6-8.8c-33.4-35.5-59.8-75.2-75.1-121.8
		c-0.6-1.9-2.5-4.4-4.2-4.7c-25.1-4.3-42.4-20-56.8-39.3C412,625,401.3,593,401.6,558c0.2-19.2,4.5-38,17.1-53.1
		c6.1-7.2,14.4-12.8,22.4-18.1c3.1-2,4.5-3.3,4.5-7c0.3-32.2-0.4-64.5,1.3-96.6c3-56.7,19.8-108.7,58-152.2
		c44.9-51.2,101.8-81.3,168.1-94.9c42.5-8.7,85.3-7.9,128-2.6c26.5,3.3,52.3,9.9,76.7,21.2c23.3,10.7,42.6,26,57.3,47.2
		c1.6,2.3,4.5,4.6,7.2,5.1c47.3,9.4,74.4,41.2,91.7,83.4c11.1,27.1,16.7,55.8,17.8,85c1.3,33.4,1.1,66.8,1.6,100.3
		c0,2.9,0,5.8,0,8.6c29.2,10.8,40.8,34,43.8,62.1c5.2,49.6-11.4,91.7-47.5,126c-10.5,10-22.9,17.1-37.6,19.6
		c-2.1,0.3-4.8,2.5-5.5,4.4c-15.4,46.6-41.7,86.4-75,121.9c-2.3,2.5-3.8,6.6-4,10.1c-0.5,10,0.3,20-0.3,30
		c-0.8,11.3,4.4,17.4,14.3,21.7c46.5,19.9,93.1,39.9,139.3,60.5c24.1,10.8,48.5,21.4,71.1,34.9c38.5,22.9,60.9,59,75.7,100.4
		c17.6,49.2,35.8,98.2,53.7,147.2c5.2,14.1,2.3,21.6-11.2,28.5c-8.6,4.4-17.2,8.8-26,13.4c4,23.7,8.2,47.2,12,70.8
		c1.2,7.2,2.2,14.5,2.3,21.7c0.1,3.6-1.2,8-3.4,10.7c-7,8.4-16.9,9.1-26.8,7.1c-9.1-1.8-13.7-7.9-15.3-18
		c-3.9-24.3-7.9-48.6-11.9-73.5c-25.3,11.1-49.8,22-74.5,32.8c-10.4,4.5-19.5,2.1-24.9-6.5c-1.4-2.2-2.2-4.8-2.9-7.4
		c-6.5-23-13-45.9-20.5-68.8c0.5,7.5,0.9,15.1,1.5,22.6c1.8,23.3,3.7,46.6,5.5,69.9c0.7,9,1.5,18,1.7,27
		c0.2,12.2-7.5,20.1-19.7,20.6c-1.7,0.1-3.4,0-5.1,0c-208.3,0-416.5,0-624.8,0c-18.5,0-25.6-8.7-24-27.2c2.3-26.2,3.8-52.5,5.7-78.7
		c0.8-11.4,1.9-22.8,2.8-34.2C421.4,1233.8,421,1233.7,420.7,1233.5z M903.4,306.6c-45.7,35.2-97.1,55.4-150.3,71.8
		c-53,16.3-106.8,28.3-162.1,32.3c-0.6-0.8-1.1-1.5-1.7-2.3c5.8-9.8,11.6-19.7,18.2-30.8c-20.8,5-39.5,10.6-56.5,20.8
		c-14.4,8.6-25.1,20.6-28.6,37.1c-3.2,15.4-5.4,31.2-6.5,46.9c-1.4,19.9-1.2,40-1.7,60c-0.2,7.7-4.5,13-11.7,14.6
		c-7,1.5-12.5-1.1-16.1-8.2c-2.1-4.1-3.6-8.5-5.6-12.6c-3-6.2-8-9.6-14.9-10.2c-11.6-0.9-19.4,7.1-20.5,21.4
		c-2.3,28.8,4.2,55.4,20.6,79.4c10.1,14.8,22.3,25.2,42,23.9c12-0.8,19.2,6.3,22.4,17.8c2.5,8.8,4.9,17.7,8.2,26.3
		c27.3,72.3,78,123.3,146.3,157.3c40.5,20.1,82.1,20.6,123.8,2.3c35.3-15.5,65.4-38.1,92.2-65.4c33.8-34.5,58.2-74.5,69.1-122
		c1.6-7.1,6-12.4,12.9-14.7c5-1.7,10.5-3,15.7-2.8c14.1,0.8,23.2-6.9,31.4-16.8c13.9-16.7,21.3-36.3,24.6-57.4
		c2-12.7,2.8-25.7-2.6-38.1c-2.5-5.8-5.9-10.7-13-11.2c-8.2-0.7-15,1.8-19,9.3c-2.1,3.8-3.5,8-5.4,11.9c-4.1,8.4-9.6,11.5-17.3,9.7
		c-7.6-1.8-10.7-7.2-11.4-16.4c-1.7-25-3-50-6-74.9c-2.2-18.1-7.1-36.1-21-49.3C932.2,390.8,916,360,908,324.6
		C906.7,318.8,905.1,313.2,903.4,306.6z M579.3,915c8.8,11.6,15.9,23,25.1,32.6c32.3,33.6,73.6,47.6,118.9,51.4
		c27.8,2.4,55.5,1.4,82.9-4.3c38.2-8,71.4-25.1,97.2-54.7c6.5-7.5,11.7-16.2,17.7-24.8c-27.2-8.9-35.1-29.7-38.1-55
		c-89.2,67.8-177.5,65.8-266.2,0.4C613.7,885.6,605.2,905.4,579.3,915z"/>
</g>
</svg>
