<?xml version="1.0" encoding="utf-8"?>
<!-- Generator: Adobe Illustrator 25.0.0, SVG Export Plug-In . SVG Version: 6.00 Build 0)  -->
<svg version="1.1" id="Layer_1" xmlns="http://www.w3.org/2000/svg" xmlns:xlink="http://www.w3.org/1999/xlink" x="0px" y="0px"
	 viewBox="0 0 1500 1500" style="enable-background:new 0 0 1500 1500;" xml:space="preserve">
<g>
	<path d="M425.8,1231.7c-5.7,17.3-11.4,34.6-17.2,51.9c-1,3-2.2,5.9-3.7,8.7c-6.2,11.4-16.2,15.3-28.1,10.4
		c-19.2-8-38.2-16.4-57.4-24.7c-1.7-0.7-3.5-1.4-5.5-2.2c-4.6,26.9-9.2,53.3-13.7,79.8c-2.4,14-13.8,22.2-28,19.9
		c-12.1-1.9-20-14.9-17.8-28.2c4.7-28.4,9.1-56.9,13.7-85.4c0.3-1.9,0.9-3.7,1.5-6.4c-11.5-5.3-22.8-10.6-34.2-15.9
		c-8.1-3.7-15-8.4-14.3-18.8c0.2-2.1,0.7-4.3,1.5-6.3c23.4-56.5,46.5-113.2,70.4-169.5c14.3-33.6,31.4-53.8,63.2-78.4
		c-3.9-15.7-9.5-30.9-11-46.5c-2.2-22.7-2.8-45.8-1.5-68.5c2.7-47.6,18.4-93,26.4-139.7c5.2-30.3,9.1-60.9,13.6-91.3
		c5.3-35.5,11.1-70.9,15.8-106.5c6-45.4,15.4-90.1,28.2-134c15-51.3,36.3-99.7,69.7-142.1c40-50.7,92.4-82.1,154.1-98.9
		c28.2-7.7,57.1-11.7,86.2-12.8c23.6-0.9,47.2,0,69.8,8.3c6.1,2.2,12.2,5.1,17.3,9c4,3,7.6,4.3,12.5,4.2
		c41.6-0.9,77.2,14.7,108.8,40.3c46.9,38,76.4,88,98.1,143.3c17.2,43.8,28.2,89.4,36.6,135.6c8.1,44.5,15.8,89.2,23.3,133.8
		c6.7,39.6,12.5,79.4,19.4,119c4.9,27.6,11.1,55,16.6,82.5c7.4,37.4,11.6,75.1,7.7,113.2c-1.5,15.3-6.6,30.1-10.1,45.2
		c-0.4,1.6-1,3.2-1.5,4.9c40.4,22.3,62.5,58.9,79.2,99.6c20.3,49.2,40.3,98.5,60.5,147.7c4.9,12.1,2,19.9-9.7,25.6
		c-11.8,5.7-23.7,11.2-35.8,16.9c4.7,27.6,9.4,55,13.9,82.5c1,6.4,2.5,13.2,1.4,19.4c-2.2,12.3-12.3,18.9-25.1,18.2
		c-10.5-0.6-19-9.6-21-21.8c-4.3-25.8-8.8-51.5-13.3-77.9c-17.7,7.6-34.9,15.1-52.1,22.5c-4,1.7-8,3.6-12,5.1
		c-12.5,4.5-23.2,0.4-27.8-12.2c-7-19-12.8-38.5-19.2-57.7c-0.5-1.5-1.2-3-2.5-4.3c1.6,24.7,3.3,49.3,4.9,74
		c1.2,17.7,2.6,35.5,3.4,53.2c0.5,11.3-6.1,17.6-17.5,17.6c-209.2,0-418.5,0-627.7,0c-11.5,0-17.5-5.7-16.9-17
		c1.6-29.4,3.7-58.8,5.5-88.3c0.8-12.3,1.3-24.7,2-37.1C426.2,1231.8,426,1231.7,425.8,1231.7z M816.6,270.4c-1.2,2.4-1.8,3.7-2.4,5
		c-16.1,33.8-38.4,63.1-69.1,84.4c-33,22.9-67.4,44.1-101.9,64.7c-34.1,20.4-69.2,39.2-103.8,58.7c-10.3,5.8-18.3,14-22.2,25.1
		c-4.1,11.3-7.1,23-10.2,34.6c-1.5,5.7-3.5,10.8-9.9,12.1c-6.6,1.4-10.4-2.6-13.1-8c-1.3-2.6-2.1-5.7-3.9-7.8
		c-3.3-3.8-6.6-8.3-10.9-10.1c-11.7-5-23.9,3.6-26.7,17.9c-2.9,14.6-1.6,29.1,1.5,43.4c4.7,21.6,14.1,40.8,30.5,56
		c9,8.4,19.3,13.1,31.9,7.8c10.1-4.3,16.3-1.1,19.5,9.8C550.3,748.7,603.3,810,681,850.4c36.5,19,75,23.3,114,8.3
		c61.5-23.7,108.9-64.9,143.9-120.4c14.7-23.2,25.8-48.2,32.9-74.9c2.8-10.4,9.2-14,17.7-10c12,5.6,22.6,3,31.5-5.5
		c28.8-27.1,39.1-61,35-99.7c-1.1-10-8.4-18.1-16.2-19.5c-10.1-1.8-17.2,2.2-22.9,12.9c-1.4,2.6-2.2,6.1-4.3,7.4
		c-4.1,2.6-8.9,5.5-13.4,5.4c-5.3-0.2-8.1-4.9-9-10.7c-1.5-9.8-3.3-19.6-5.8-29.2c-11.7-45.7-32.4-86.1-65.8-120.3
		C881.3,356.2,841.7,319.9,816.6,270.4z M937.5,927.5c-33.4-10.2-46.2-36.6-54.9-67.6c-89.6,67.9-178.8,67.7-267.8,0.3
		c-8.1,28.7-19,53.6-47.7,65.4c12.4,22,26.4,41.8,47,55.8c33.9,23.1,71.5,35.8,112.3,39.9c54.8,5.5,105.6-5.8,152.7-34.1
		C903.3,972.6,922.2,952.7,937.5,927.5z"/>
</g>
</svg>
