<?xml version="1.0" encoding="utf-8"?>
<!-- Generator: Adobe Illustrator 25.0.0, SVG Export Plug-In . SVG Version: 6.00 Build 0)  -->
<svg version="1.1" id="Layer_1" xmlns="http://www.w3.org/2000/svg" xmlns:xlink="http://www.w3.org/1999/xlink" x="0px" y="0px"
	 viewBox="0 0 1500 1500" style="enable-background:new 0 0 1500 1500;" xml:space="preserve">
<g>
	<path d="M395.9,1236.5c-4,13-7.9,26.1-11.9,39.1c-4.5,14.6-8.9,29.2-13.4,43.7c-2.8,9-8.8,12.2-17.9,9.5
		c-27.1-8.1-54.3-16.2-81.4-24.3c-1.1-0.3-2.3-0.6-4.3-1c-2.1,14.1-4.2,27.9-6.2,41.7c-1.1,7.7-1.8,15.4-3.1,23.1
		c-1.5,9.4-11.1,17.9-20.8,18.9c-10,1.1-19.8-3.8-21.7-13.1c-1.5-7.3-0.5-15.4,0.6-23c2.8-19.4,6.4-38.8,9.2-58.2
		c0.2-1.7-1.9-4.5-3.7-5.6c-8.3-4.9-17.1-9.1-25.4-14.2c-11.1-6.8-12.4-10.5-9-23c7.1-26.2,14-52.4,21.3-78.5
		c9-32.4,18-64.9,27.7-97.1c17.5-58.4,56.1-97.4,111.9-120.6c63.6-26.4,126.7-53.8,190.4-79.9c21.5-8.8,29.4-24.8,29.8-46.1
		c0.4-16.3,0.3-32.7,0.2-49.1c0-1.9-1.2-4.1-2.5-5.7c-25.4-31.2-45.8-65.1-57.5-103.8c-1.3-4.3-3.3-6.4-8-7.8
		c-27.2-8.2-44-27.7-54.7-53c-10.6-24.9-16.1-51-14.7-78.1c1.2-22.2,7.9-42.2,27.7-55c5.9-3.8,13.1-5.8,19.9-8.7
		c-6.5-29.8-9.2-61.2-11.6-92.7c-2.6-33.2,0.7-65.5,11.3-97.1c10.6-31.7,29.8-57.8,54-80.3c37.6-34.9,80.1-61.3,130.2-74.5
		c34.1-9,68.8-12.2,104-11.1c42.6,1.3,84.1,7.9,122.5,27.5c18.3,9.3,33.5,22,40.2,42.1c2.4,7.1,5.8,10.2,12.8,12
		c30.5,7.9,50.8,28.6,65.9,55c14.7,25.8,22.4,53.8,25.3,83.4c2.8,27.7,0,55-3,82.4c-2,18.1-4.7,36.1-7.1,54.6
		c14.3,2.2,26.2,9.6,34.6,22.1c8,12,11.5,25.5,12,39.9c1.1,38-7.2,73.3-29.9,104.4c-9.8,13.3-23,22.4-38.7,27.5
		c-5.1,1.6-7.7,4.1-9.5,9.3c-12,36.4-30.9,69-55.1,98.7c-2.8,3.4-4.5,8.6-4.5,13c0,18.5,0.5,37,1.4,55.5
		c0.7,15.9,9.2,26.7,23.7,32.9c24.3,10.3,48.6,20.7,73,30.9c42.2,17.8,84.6,35.2,126.7,53.3c56.6,24.3,94.1,65.8,110.7,125.5
		c15.9,57.4,31.6,114.8,47.3,172.2c2.6,9.5,1,13.1-7.3,18.3c-5.2,3.2-10.4,6.3-15.7,9.2c-5.3,2.9-10.8,5.5-16.6,8.4
		c3.5,22.2,7.1,44.2,10.5,66.2c1.4,8.8,3.8,17.9-3.8,25.4c-6.1,6.1-13.3,7.7-21.4,5.2c-8.9-2.7-15-8.4-16.4-17.6
		c-3.3-20.9-6.1-41.8-9.1-62.7c-0.1-0.7-0.5-1.3-1.1-3.1c-10,3-20.1,6-30.1,9c-18.5,5.6-37,11.3-55.6,16.9
		c-9.4,2.8-15.6-0.4-18.4-9.8c-8.3-27.8-16.5-55.6-24.6-82.9c0,8.3-0.3,17.3,0,26.1c1.2,33.6,2.8,67.3,3.9,100.9
		c0.5,15.7-6.4,22.5-21.9,22.5c-224.6,0-449.2,0-673.8,0c-15,0-22-7.8-21.4-23.1c1.7-40.5,3.4-80.9,5.1-121.4c0.1-1.4,0-2.9,0-4.4
		C396.6,1236.7,396.2,1236.6,395.9,1236.5z M887.5,286.2c-15.4,11.4-33.1,17.7-51.3,22.9c-43.8,12.4-88.9,14.9-133.9,19.1
		c-34.1,3.2-68.3,5.9-102.2,10.8c-16.3,2.3-32.2,8.4-47.7,14.3c-10.4,3.9-16.4,13-17.7,24.1c-1.9,16.7-3.9,33.4-4.3,50.1
		c-0.7,30.5-0.3,61-0.1,91.5c0.1,7-2.2,12.2-8.9,14c-6.8,1.8-12.5-0.7-16.1-7c-1.9-3.4-3.2-7.1-5-10.5c-5.7-10.8-18.4-12-25.6-2.1
		c-2.2,3-4,6.8-4.5,10.5c-5,31.7,2,60.9,20.3,87.1c6.5,9.3,15.9,16.3,27.4,15.7c13.8-0.7,17.3,5.2,21.3,16.8
		c6.5,18.9,12.7,38.3,22,55.9c25.2,48,62,86.4,106.9,116c52.3,34.5,107.3,34.8,160.5,1.9c41.1-25.4,73.4-60.8,100-101.1
		c15.5-23.5,26.1-49.1,33.7-76.1c3-10.5,6.4-13.2,17-13c11.7,0.3,21.1-4.7,28-13.3c20.9-25.9,26.3-56.2,23.4-88.4
		c-0.3-3.7-2.1-7.5-4.1-10.8c-6.1-10.5-19.2-10.7-25.5-0.3c-2.3,3.7-3.6,8-5.8,11.7c-3.8,6.5-10.3,9.2-16.8,7
		c-6.6-2.3-9-7.2-8.9-14.2c0.2-25.9,0.2-51.7,0.1-77.6c-0.1-26.4-6.9-50.9-22.1-72.7c-7.8-11.2-16.4-21.7-24.5-32.7
		C911.3,319.4,899.6,303,887.5,286.2z M564.7,899.5c16.7,29.9,39.6,51.6,68,67.4c31.9,17.7,66.4,26.3,102.9,28.1
		c47.2,2.3,91.8-6.4,133.2-29.7c27.8-15.6,50.8-36.5,67.4-65.3c-38-15.4-43.9-47.7-42.9-85.1c-40.9,40.5-86.3,63.8-143,64.4
		c-57.2,0.6-102.1-24.3-143.2-63.7C607.9,852.4,601.1,883.5,564.7,899.5z"/>
</g>
</svg>
