<?xml version="1.0" encoding="utf-8"?>
<!-- Generator: Adobe Illustrator 25.0.0, SVG Export Plug-In . SVG Version: 6.00 Build 0)  -->
<svg version="1.1" id="Layer_1" xmlns="http://www.w3.org/2000/svg" xmlns:xlink="http://www.w3.org/1999/xlink" x="0px" y="0px"
	 viewBox="0 0 1500 1500" style="enable-background:new 0 0 1500 1500;" xml:space="preserve">
<g>
	<path d="M419.6,1223.1c-0.8,2-1.9,3.9-2.5,6c-5.2,18.1-10,36.3-15.5,54.4c-3.9,12.9-8.7,15.5-21.7,12.3
		c-28-6.7-55.9-13.7-83.8-20.5c-0.4-0.1-0.9-0.1-2.3-0.2c-1.2,7.2-2.6,14.4-3.6,21.8c-2.6,19.5-5,39-7.6,58.5
		c-1.9,13.7-14.1,22-29,20.2c-12.6-1.5-19.6-11-17.8-25.2c3.6-28.4,7.4-56.8,11.5-85.1c0.6-3.9-0.5-5.8-3.9-7.4
		c-7.7-3.6-15.4-7-22.8-11.2c-9.2-5.2-11.4-11.1-8.5-21.4c14.5-51.9,29.8-103.6,43.4-155.7c6.8-26.1,15.8-50.7,31.7-72.7
		c19.6-27.1,45.9-45.5,76.5-57.6c10.2-4,11.9-10.4,13-19.8c3.1-26.4-4.7-51-12-75.6c-13.5-44.9-11-89.7,1-134.3
		c11.8-43.8,24.8-87.4,35.7-131.4c10.8-43.9,19.7-88.3,29.4-132.5c11.5-52.3,24.4-104.1,47.7-152.7c39.9-83.1,104.1-137,193.6-159
		c51.9-12.8,103.6-10.6,153.1,12.4c2.5,1.2,5.6,1.6,8.4,1.4c46.5-2.8,83.7,16,116.1,47.8c44.3,43.5,73.6,96,91.3,154.6
		c14.5,47.8,26,96.6,36.8,145.4c13.3,60.2,27.6,120.1,46.2,178.9c8.9,28.2,15.8,56.9,18.6,86.5c3,31.4-1.7,62-10.9,92
		c-5.8,18.8-11.2,37.7-9.5,57.8c0.5,6.1,0.2,12.4,1.9,18.1c0.9,3.2,4.7,6.7,8,8c23.3,9.2,44.5,21.7,62.8,38.9
		c23.3,21.8,38.6,47.9,46.7,79.1c11.7,45.4,25.2,90.3,37.9,135.4c3.1,11.2,6.2,22.3,9.1,33.6c3.2,12.5,0.1,19.4-11.4,25.1
		c-6.3,3.1-12.8,5.7-19.2,8.7c-4.1,1.9-5.6,4.4-4.7,9.8c3.7,22,6.4,44.2,9.5,66.3c0.7,4.8,0.6,9.8,1.8,14.4
		c2.6,10.1,0.7,18.7-8.3,24.3c-9.4,5.8-19.6,4.9-29-0.3c-9.7-5.4-9.9-15.6-11.2-24.8c-3.2-21.6-6-43.3-9.1-64.9
		c-0.8-5.8-4-7.2-10-5.7c-25.7,6.6-51.6,12.8-77.4,18.9c-12.8,3-17.1,0.5-21-11.9c-5.8-18.2-11.5-36.4-17.2-54.6
		c-0.6-1.7-1.3-3.4-3.6-4.9c0.9,13.2,1.6,26.3,2.6,39.5c1.7,22.1,3.6,44.2,5.3,66.3c0.6,7.3,1.3,14.6,1.4,21.9
		c0.2,14.6-7.3,22.1-21.9,22.1c-210.2,0-420.4,0-630.6,0c-13.7,0-21.5-7.4-21.1-21.3c0.5-17.5,2-35,3.2-52.5
		c1.2-17.3,2.6-34.5,3.9-51.7c0.6-8.2,1.1-16.5,1.7-24.7C421.2,1223.5,420.4,1223.3,419.6,1223.1z M809.5,257
		c-8.2,18.1-20.2,32.6-34.9,44.3c-22.8,18.2-45.8,36.2-69.9,52.6c-33.1,22.5-68,42.5-100.9,65.2c-38.9,26.8-67.8,61.2-73.6,110.5
		c-0.7,6.1-7.2,10.1-14.6,10.9c-7.3,0.8-10.8-3-12.9-9.2c-0.9-2.7-1.6-5.6-2.8-8.2c-4.3-9.4-12.5-13.3-24.9-12
		c-8.9,1-10.7,7.9-12.2,15c-0.3,1.7-1.1,3.3-1.2,4.9c-2.9,33.5,5.4,64,25.5,91c10.8,14.5,21.5,17.5,38.6,11.3c5-1.8,8.9-0.4,11,4.2
		c2.2,4.8,3.9,9.9,5.4,15c23.6,80.1,71.3,140.5,146.1,178.5c34.1,17.3,69.9,22.8,106,7.3c79.5-34,131.2-93.9,159.5-174.8
		c2.9-8.2,5.1-16.6,8-24.8c1.8-5,5.4-7.5,10.9-5.4c16.8,6.4,27,3.4,38-10.6c12.4-15.7,20.2-33.7,24.9-52.9
		c3.9-15.7,5.2-31.6,0.1-47.5c-2.6-8.3-6.6-10.9-15.2-10.2c-12.9,1-20.6,6.8-24.6,18.8c-3.1,9.1-8.1,11.3-17.5,8.6
		c-8.4-2.4-10.3-8.9-11.3-16c-3-20.9-5.2-41.9-9.1-62.6c-5.5-28.9-15.1-56.6-36.1-78.2c-15.2-15.7-31.9-30.1-48.7-44.2
		C846.2,315.9,820.5,292.7,809.5,257z M880.4,835.7c-87.4,68.9-174.1,68.8-261.3,1.3c-4,50.9-32,79.5-79,92.5c1.6,3,2.8,6.6,5.1,9.1
		c10.2,10.7,19.5,22.8,31.3,31.4c45.3,32.8,98,44.5,152.6,47.8c23.4,1.4,47.2-0.6,70.7-2.7c35.1-3.2,68.3-13.4,99.7-29.5
		c25.5-13.1,45.3-32.4,61.6-56.5C912.1,918.1,883.5,889.4,880.4,835.7z"/>
</g>
</svg>
