<?xml version="1.0" encoding="utf-8"?>
<!-- Generator: Adobe Illustrator 25.0.0, SVG Export Plug-In . SVG Version: 6.00 Build 0)  -->
<svg version="1.1" id="Layer_1" xmlns="http://www.w3.org/2000/svg" xmlns:xlink="http://www.w3.org/1999/xlink" x="0px" y="0px"
	 viewBox="0 0 1500 1500" style="enable-background:new 0 0 1500 1500;" xml:space="preserve">
<g>
	<path d="M411.4,1232.5c-3.8,15.2-7.7,30.5-11.5,45.7c-2.9,11.5-5.6,23.1-8.6,34.7c-2.9,11.2-8.6,16-20,14.4
		c-17.3-2.4-34.4-6-51.5-9.6c-12.5-2.7-24.9-6.3-38.2-9.8c-3.6,16.3-7.1,32.2-10.5,48c-0.4,1.7-1,3.3-1.1,4.9
		c-1.9,16.4-14.1,21.7-30.2,17.9c-11.2-2.7-17-11.1-15.1-22.1c3.5-20.1,7-40.2,10.7-60.2c0.7-4,0.1-6.1-4.1-7.6
		c-6.8-2.5-13.5-5.5-19.9-8.9c-10.3-5.4-11.4-8.3-8.4-19.4c4.5-16.6,9-33.3,13.8-49.8c12.6-44.1,25-88.3,38.2-132.3
		c9-30,22.8-57.5,47-78.6c19.5-17,41.8-29.7,65.9-38.5c45-16.3,90.4-31.4,135.6-47.3c19.9-7,40.7-12.3,57.5-26.1
		c2.7-2.2,5.1-4.8,7.9-7.5c-17-2.5-33.3-3.9-49-7.5c-46.2-10.7-87.1-31.3-117.1-69.4c-20.1-25.5-30.5-55-33.8-87.2
		c-5-49,3.3-96.7,13.5-144.2c15-69.8,33-139,55.4-206.8c17.1-51.8,40.7-100.1,77.9-140.7c45.2-49.3,102.2-77.8,166-94.1
		c31.4-8,63.3-10.7,95.7-7.4c34.7,3.5,67,14.1,96.6,32.6c3.6,2.2,7.9,3.7,12.1,4.3c28.8,4.2,52.9,17.7,74.1,36.9
		c36.3,32.8,59.4,74.5,78,118.8c30,71.2,50.3,145.6,68.7,220.4c7.9,32.1,15,64.5,20,97.1c6.1,39.3,8.4,79.1-2.9,118.2
		c-15.1,52.7-51.3,85.9-100.2,107.1c-29.8,12.9-61.2,18.7-93.4,21c-0.9,0.9-1.8,1.9-2.7,2.8c2.2,0.9,4.8,1.3,6.5,2.8
		c16,13.7,35.8,19.4,55,26.1c50,17.6,100.1,34.6,149.7,53.2c29.3,11,55.4,27.8,74.8,53.2c17.6,23,28.2,49.3,36,76.9
		c15.7,55.4,31.4,110.8,47,166.2c3.2,11.4,1.9,14.4-8.7,19.8c-6.5,3.3-13.2,6.2-19.9,8.9c-3.5,1.4-4.7,3.1-3.9,7.1
		c3.8,19.8,7.4,39.7,10.9,59.5c2.1,12.1-2.9,19.9-14,22.6c-16.1,3.8-26.2-0.2-29.4-13.1c-4.4-17.7-8-35.5-11.9-53.3
		c-0.3-1.1-0.7-2.2-1-3.5c-17.9,4.5-35.4,9.2-53.1,13.2c-11.6,2.6-23.4,4.3-35.2,5.7c-14,1.7-20-2.8-23.5-16.7
		c-5.4-21.4-10.8-42.8-16.2-64.3c-0.2-0.8-0.9-1.6-2.5-2.1c0.6,12,1.1,23.9,1.7,35.9c1.3,26.1,2.9,52.1,4,78.2
		c0.6,13.8-5.9,20.1-19.8,20.1c-80.1,0-160.2,0-240.2,0c-135.3,0-270.5,0-405.8,0c-3.2,0-6.4,0.2-9.5-0.2c-8.8-1-14.8-8.8-14.2-19.1
		c2.2-40.4,4.7-80.8,7.1-121.2c0.1-1.7,0.5-3.3,0.8-5C412.2,1232.9,411.8,1232.7,411.4,1232.5z M830.5,284.1
		c-9.8,11-18.5,22.2-28.6,32.1c-33.1,32.1-72.5,54.9-113.7,74.9c-33.9,16.5-68.2,32.4-99.1,54.5c-23.5,16.8-40.6,38.3-49.2,66.2
		c-2.7,8.6-4.8,17.4-8.5,25.5c-1.8,3.8-6.6,7.9-10.5,8.5c-2.8,0.4-7.1-4.3-9.6-7.5c-4.1-5.4-6.9-11.8-11-17.2
		c-8.5-11.2-21.2-11.2-30.5-0.6c-6.9,8-9.7,17.5-9.9,27.6c-0.6,29,12.1,53.3,28.2,76c13.3,18.7,16.8,19.3,37.3,10.3
		c6.8-3,11.9-0.8,14.4,6.2c0.7,1.8,1.1,3.7,1.6,5.6c19.8,72.2,60.7,129.7,122,172.3c53.9,37.4,109.8,39.2,165.8,4.8
		c41.4-25.4,72.7-60.8,97.3-102.4c14.3-24.2,24.8-50,31.5-77.4c2.6-10.8,8.4-12.9,17.7-7.6c12.8,7.3,21.3,6,30.8-5.7
		c14.8-18.2,25.5-38.6,31.2-61.3c3.8-15.5,3.6-31.1-4.9-45.3c-8.1-13.5-21.7-14.8-32-2.9c-3.9,4.5-6.6,10.1-9.6,15.4
		c-2.9,5-5.7,10.4-12.2,10c-6.8-0.4-9.4-6.2-11.6-11.8c-0.4-1.1-0.7-2.3-1-3.5c-4.8-16.6-9.5-33.2-14.3-49.7
		c-6.3-21.4-10.9-43.5-26.4-61.1c-9.3-10.6-18.4-21.5-27.5-32.3c-20.2-23.8-39.8-48.1-54-76.1C839.6,302.3,835.1,293.2,830.5,284.1z
		 M624.4,839.2c-1.4,54.6-27.3,90.4-80.3,105.1c1.1,1.7,1.4,2.6,2,3.2c6.4,6,12.6,12.3,19.3,17.9c40.1,33.4,88.2,46.4,138.5,52.7
		c32.3,4,64.7,3.5,97-1.3c37.2-5.5,72.7-15.8,105-35.4c16.7-10.1,31.9-22.2,46-37.2c-51.5-15.6-74.9-51.9-77.2-104.2
		C790.8,904,708.3,901.4,624.4,839.2z"/>
</g>
</svg>
