<?xml version="1.0" encoding="utf-8"?>
<!-- Generator: Adobe Illustrator 25.0.0, SVG Export Plug-In . SVG Version: 6.00 Build 0)  -->
<svg version="1.1" id="Layer_1" xmlns="http://www.w3.org/2000/svg" xmlns:xlink="http://www.w3.org/1999/xlink" x="0px" y="0px"
	 viewBox="0 0 1500 1500" style="enable-background:new 0 0 1500 1500;" xml:space="preserve">
<g>
	<path d="M373.8,1229.2c-4,16.3-8,32.6-12,48.9c-2.5,10.1-4.7,20.3-7.4,30.3c-5,19-14.2,24.7-33.4,19.2c-23-6.6-45.7-14.3-68.5-21.5
		c-2.1-0.7-4.1-1.4-7-2.4c-1.8,11.5-3.6,22.6-5.3,33.8c-1.6,10.8-2.9,21.7-4.6,32.4c-1.4,8.8-8.5,15.1-17.4,15.9
		c-21.4,1.9-29.6-7-26.6-28.3c3.2-22.8,5.9-45.8,8.8-69.2c-10.3-3.7-20.8-7.3-31.2-11.1c-12.3-4.5-16.3-12.3-12.3-24.5
		c23.1-70.9,45.8-141.8,69.5-212.5c15.1-45,46.7-75.1,90.2-92.4C391.4,918,466.7,889,541.9,860c16.5-6.4,25.3-17.2,25.4-35
		c0-14.9,0.1-29.8,0-44.7c0-2.2-0.9-4.8-2.3-6.5c-23.6-28.6-39-61.3-47.8-97.1c-1.5-6-3.9-9.5-10.1-11.4
		c-27.4-8.8-42.9-29.9-54.3-54.7c-13.5-29.4-19.2-60.5-17.7-92.9c1.2-25.7,17.3-42.5,47.1-49.1c-1.2-10.5-2.3-21.1-3.7-31.6
		c-4.9-39.3-6.8-78.8-5-118.3c1.5-32.8,8.5-64.5,28-92.1c12.8-18,28.3-33.3,49.2-40.9c8.3-3,13.2-7.3,18.1-14.1
		c15.7-22.2,38.4-34.5,63.6-42.6c28.3-9.1,57.4-13.9,87-16.4c59.9-5.1,117.9,2.1,173.3,26.1c66,28.7,105.9,79.3,122.5,148.7
		c9.9,41.4,10.3,83.4,7.5,125.6c-1.2,18.4-2.8,36.8-4.2,55.6c3.7,0.8,7.6,1.3,11.2,2.3c18.6,5.2,34,24.5,35.3,43.9
		c2.4,36-4.4,70.1-20.7,102.3c-11.9,23.5-28,42.6-54.9,49.8c-2.1,0.6-4.2,3.8-4.8,6.2c-8.9,34.2-22.8,66.1-45.1,93.6
		c-6.4,7.9-8.5,15.6-8,25.2c0.5,10.7,0.1,21.5,0.4,32.2c0.4,16.4,7.5,28.3,23.3,34.4c35,13.6,69.9,27.3,104.9,40.9
		c38.4,14.9,76.6,30,115.1,44.6c52.5,19.9,87.2,55.9,103.8,110c20.3,65.9,42,131.3,63,197c4.7,14.7,1.4,21.5-13.4,26.9
		c-9.5,3.5-19.1,6.9-29.4,10.5c1.2,9.5,2.4,19.1,3.7,28.6c2.2,15.9,4.7,31.7,6.6,47.6c1.4,11.7-6.3,20.5-17.9,21.1
		c-20.2,1.2-26.1-5-28.9-28.3c-2.1-17.8-5.2-35.5-7.9-53.7c-18.2,6.1-36,12.2-53.9,17.9c-9.2,2.9-18.6,5.3-28.1,7.2
		c-13,2.6-22.1-2.8-25.6-15.5c-5.3-19.6-9.9-39.4-14.7-59.2c-2.1-8.3-4.2-16.7-7.3-24.8c0,2.4,0,4.7,0,7.1c0,43.9,0,87.9,0,131.8
		c0,12.7-4.5,17.4-16.9,17.4c-239,0-478,0-717,0c-11.5,0-16.2-4.7-16.2-16.6c0-44.2,0-88.4,0-132.6c0-2.4,0-4.8,0-7.2
		C374.6,1229.3,374.2,1229.3,373.8,1229.2z M839.3,318.8c2.7,5.5,5.1,9.7,6.8,14.2c4,10.3,0.6,15.7-10.6,16.8
		c-1.9,0.2-3.9,0.1-5.9,0.1c-35.6-0.6-70.9-3.7-105.6-11.8c-40-9.3-79.1-21.3-114.2-43.6c-4.3-2.8-7.8-2.1-10.9,1.4
		c-1.8,2.2-3.3,4.8-4.4,7.4c-8,17.9-14.9,36.2-29.7,50.4c-11.4,10.9-18.7,25.1-22,40.4c-3.3,15.1-5.9,30.6-6.4,46.1
		c-0.9,27.1-0.1,54.2,0,81.3c0,8.7-2.7,13.4-8.9,14.7c-7.6,1.6-11.9-2.2-14.8-8.7c-1.5-3.3-3-6.6-4.9-9.7
		c-5.3-8.2-16.7-12.9-24.7-10.5c-7.6,2.4-11.1,9.3-11.5,20.7c-0.9,27.6,9,52.1,20.2,76.6c8.1,17.8,21.6,26.6,40.6,28.5
		c2.9,0.3,7,3.1,8,5.8c3.6,9.2,6.3,18.8,9,28.3c10.8,38.6,27.6,73.6,58,100.8c16.6,14.8,33.6,29.1,50,44c44,40,118.5,50,169.9,9.6
		c19.5-15.4,38-32,57.2-47.8c21.5-17.8,39.3-38.9,50.1-64.6c9.1-21.8,16.1-44.5,23.4-67c1.9-6,4.3-8.8,10.8-9.4
		c15.7-1.5,29-7.6,36.8-22.5c13.6-26.3,24.5-53.3,23.2-83.8c-0.3-7.3-1.8-13.7-8.2-17.6c-6.8-4.1-14.4-2.8-19.7,2.1
		c-6.3,5.7-11.3,13.1-16.4,20c-3.5,4.6-7.2,8.3-13.4,6.4c-5.8-1.8-8.6-6-8.5-12.1c0.2-8.3,0.3-16.6,0.7-24.9c1.5-29,3.4-58-2.1-86.7
		c-3.2-16.9-8.5-33.3-20.4-46.7C913.7,336.8,877.5,327.3,839.3,318.8z M553.7,895.9c2.6,5.7,4.7,11.2,7.6,16.1
		c36,61.7,92.9,88.4,161.2,95.8c25.2,2.7,50.1,1.4,74.9-2.9c44.7-7.7,84.8-24.5,115.9-58.7c13.4-14.8,25.4-30.6,32.1-51
		c-41.9-8.3-53.1-38.4-53.4-75.8c-13.8,10.8-26.6,21.4-40,31.1c-24.7,17.9-51.4,31.7-82.4,34.1c-47,3.5-90.3-6.7-127.8-36.6
		c-11.7-9.3-23.2-18.8-35.3-28.5C607.2,857.6,594.4,886,553.7,895.9z"/>
</g>
</svg>
