<?xml version="1.0" encoding="utf-8"?>
<!-- Generator: Adobe Illustrator 25.0.0, SVG Export Plug-In . SVG Version: 6.00 Build 0)  -->
<svg version="1.1" id="Layer_1" xmlns="http://www.w3.org/2000/svg" xmlns:xlink="http://www.w3.org/1999/xlink" x="0px" y="0px"
	 viewBox="0 0 1500 1500" style="enable-background:new 0 0 1500 1500;" xml:space="preserve">
<g>
	<path d="M477.8,1181.5c-5.2,15.3-9.9,29.5-15,43.5c-8.9,24.4-12.2,26.3-36.9,19.5c-22.4-6.2-44.6-13.1-67.3-19.9
		c-2.7,14.5-5.6,30-8.4,45.5c-3.6,20.4-6.9,40.8-10.6,61.1c-2.6,14.1-14.1,22.1-26.9,19.2c-12-2.7-18.5-14.4-16.1-27.8
		c7-38.5,13.9-77.1,20.6-115.6c0.3-1.7-1-4.5-2.5-5.7c-3.3-2.8-7.3-4.8-10.8-7.5c-12.6-9.7-15.1-17-8.7-31.6
		c17.7-40.3,34.8-80.8,54.1-120.2c9.9-20.1,22.9-39.1,36.6-57c22.1-28.9,52.4-47.7,84.6-63.5c35-17.2,71.6-30.1,108.9-41
		c0.6-0.2,1.2-0.5,2.1-0.8c-11.9-9.2-24-17.7-35.1-27.3c-34.6-30.2-63.1-64.9-78.8-108.9c-0.8-2.2-3.4-4.5-5.6-5.1
		c-51.1-14.5-79-49.7-89.9-100.1c-3.9-17.9-5.8-36.1-1.6-54.3c5.3-22.9,17.8-40.4,39.2-50.7c5-2.4,6.2-4.6,5.6-10.4
		c-5.6-57.8-6.4-115.5,10.3-171.8C453.5,257.2,516,196,606.7,162.7c54.9-20.2,111.9-26.8,170.3-22.3c43.6,3.3,85.6,12.2,124.8,32.3
		c26.8,13.8,50.4,31.5,67.1,57.2c1.3,2,3.8,3.7,6.1,4.5c63.2,21.4,95.9,67.3,106.1,131.5c5.8,36.3,7,72.8,4.2,109.4
		c-1.3,16.5-3.1,33-4.7,49.9c19.5,5.7,34.6,17.4,42.1,35.7c5.1,12.6,8.5,26.7,8.9,40.2c1.4,47.5-15,87.8-52.7,118.1
		c-11.1,8.9-23.6,15.4-37.8,18.1c-4.2,0.8-7.1,2.4-8.9,7.1c-21.7,55.9-58.9,99.3-108.6,132.3c-1,0.7-2,1.3-3.7,2.5
		c13.8,4.5,27.1,8.4,40.1,13c39.9,14.2,79.2,29.7,114.3,54.1c33.7,23.4,58.2,54.8,75.4,91.5c19.7,42,38.1,84.6,56.7,127.1
		c5,11.4,2.8,18.4-6.5,26.6c-1.5,1.3-2.9,3-4.6,3.6c-13.5,4.8-12.3,14.3-10,25.8c6.9,34.3,12.9,68.8,19.1,103.3
		c2.4,13.3-5.1,23.5-18.4,26c-11.4,2.1-22.1-6-24.4-18.8c-6-33-11.8-66-17.7-99.1c-0.4-2.4-1.1-4.7-1.8-7.6
		c-13.5,4.1-26.8,8.4-40.2,12.2c-13.1,3.7-26.2,7.1-39.4,10.4c-10.6,2.7-17.1,0.1-21.1-10.2c-6.4-16.2-11.7-32.9-17.4-49.4
		c-0.6-1.8-1.2-3.6-2.9-5.3c0.6,5,1.3,10,1.9,15c3.8,31.7,7.6,63.3,11.3,95c1.5,12.8,3.2,25.6,4.3,38.5c1.3,15.2-3.7,21.4-18.7,22.7
		c-40.5,3.7-81,8.3-121.6,10.2c-61.6,2.9-123.4,5.5-185.1,5.1c-50.2-0.3-100.4-4.6-150.5-7.8c-27.5-1.8-54.8-4.9-82.2-7.5
		c-16.7-1.6-22.1-9.3-19.9-26c3.1-22.9,5.2-46,8-69c2.9-24.6,6.1-49.3,9.2-73.9C477.8,1184,477.8,1183.3,477.8,1181.5z M926.2,365.4
		c-10.1,14.8-23.2,25.2-37.8,33.9c-27.1,16.2-56.2,27.4-86.6,35.8c-38.5,10.7-77.6,18.5-117.4,21.9c-27.2,2.3-54.5,3.2-81.8,4.4
		c-9.7,0.4-14.6-6.5-10.7-15.4c4.1-9.3,9.1-18.2,13.9-27.2c1.9-3.6,4.2-7.1,7-11.9c-7,1.9-12.3,3.5-17.7,4.8
		c-52.1,12.8-84.8,44.9-97.8,97.2c-7,28.1-8.1,56.8-9.5,85.5c-0.3,5.6-0.9,11.3-6.9,13.3c-6.1,2-9.2-3-12.2-7.1
		c-5.7-7.6-10.8-15.7-17.2-22.7c-10.2-11.1-22.6-10.1-31.6,2.1c-2.5,3.4-4.8,7.6-5.5,11.8c-6,35.3,4.5,65.4,30.2,90
		c11.6,11.2,25.5,14.3,41.1,7.9c8.5-3.5,11.1-2,13.7,6.9c2.9,9.8,4.9,19.8,8.4,29.4c18,49.5,50.9,87,94.4,115.7
		c62.2,41,129.5,58.9,203.4,41.5c61.7-14.6,113-46.6,152.7-96.2c21.1-26.4,35.7-56,42.1-89.4c1.8-9.2,6-11.6,14-7.5
		c16.8,8.5,30.1,2.3,42.4-8.9c15.1-13.8,23.8-31.4,28.1-51c3.5-15.7,5.1-31.9-2.2-47.3c-7.6-16-20.3-18.3-32.2-5.2
		c-6.7,7.3-11.7,16.2-18.1,23.8c-2.4,2.9-7.9,6.7-9.7,5.7c-3.4-1.8-6.8-6.5-7.4-10.4c-2.2-14.2-3.3-28.5-4.7-42.8
		c-3-30.8-7.7-61.2-17.6-90.7C980.3,424.5,958.2,392.3,926.2,365.4z M895.3,895.8c-97.3,48.9-193.9,49.9-292.2-2
		c0.4,8.9-0.2,16.5,1.4,23.6c5.4,24,20.6,41.7,39.6,56.1c25,19,53.8,28.5,84.9,31.8c39.9,4.2,77.6-3,112.4-23
		c22.6-13,41-30.5,51.6-55C897.3,917.1,898.1,906.4,895.3,895.8z"/>
</g>
</svg>
