<?xml version="1.0" encoding="utf-8"?>
<!-- Generator: Adobe Illustrator 25.0.0, SVG Export Plug-In . SVG Version: 6.00 Build 0)  -->
<svg version="1.1" id="Layer_1" xmlns="http://www.w3.org/2000/svg" xmlns:xlink="http://www.w3.org/1999/xlink" x="0px" y="0px"
	 viewBox="0 0 1500 1500" style="enable-background:new 0 0 1500 1500;" xml:space="preserve">
<g>
	<path d="M465.8,1191.6c-5.7,17.2-10.6,32.9-16.2,48.3c-7.6,21-16.9,25.6-38.1,18.2c-19.4-6.8-38.5-14.7-57.7-22
		c-1.3-0.5-2.7-0.8-5-1.6c-2.6,14-5.1,27.5-7.5,41c-4.5,26-8.8,52.1-13.5,78.1c-2.2,12.1-15.3,20.8-26.6,18.5
		c-15.6-3.3-22.9-13.3-20.3-28.2c7.3-41.8,14.7-83.6,22.1-125.3c0.8-4.5-0.1-7.5-4.6-10c-7-3.8-13.7-8.4-20.2-13.1
		c-9-6.5-11.7-15.2-7.2-24.2c24.3-48.3,48-96.9,73.4-144.7c21.1-39.7,51.7-70.7,93-89.7c20.9-9.6,42.4-17.8,64-25.9
		c20.2-7.5,40.7-14.1,61.2-20.6c5.6-1.8,8.3-5.5,8.4-10.4c0.1-2.5-2.8-5.7-5.2-7.5c-32.9-24-61.5-51.9-81.4-87.7
		c-7.3-13.1-12.3-27.4-18.8-41c-1.3-2.8-4.5-6.1-7.3-6.6c-31.3-5.8-52.7-24.9-68.7-51c-17.7-28.8-25.9-60.3-23-93.9
		c2.4-28.1,13.5-51.6,42.1-62.9c1.9-0.7,3.4-5,3.4-7.6c0.1-31.7-0.8-63.5-0.1-95.2c1.2-60.8,16.5-117.6,52.1-167.8
		c42.7-60.2,100.4-97.6,172.1-114.2c43.4-10,87.3-12.5,131.4-9.8c44.8,2.8,88.3,12.1,128.7,33.2c27,14.2,48.1,33.6,59.4,62.6
		c1,2.7,5.1,5.5,8,5.9c50.6,6.1,83.5,35,103.7,80.2c12.9,28.9,20.1,59.4,21.1,90.8c1.1,37.3,0.4,74.6,0.1,111.9
		c0,6,1.2,9.1,7.3,11.8c21.4,9.4,33.5,27.1,36.5,49.4c6.9,52.1-7.6,97.6-46.3,134.3c-12.2,11.6-26.8,19-43.7,21.7
		c-3.9,0.6-6.9,1.9-8.6,6.4c-19.4,53.2-54.4,94.3-99.8,127.3c-2.7,2-6,5.6-6,8.5c0,5.8,2.6,10.5,9.4,12.8
		c33.4,11.4,66.6,23.7,100,35.2c58.3,20,98.5,59.9,126,113.8c22,43,43.4,86.3,65,129.4c4.7,9.5,3,17.5-5.5,23.7
		c-7.4,5.4-15.6,10-23.1,15.4c-1.9,1.3-4,4.6-3.6,6.5c7.3,42.3,15,84.5,22.6,126.7c2.8,15.6-4.7,26.3-20.6,29.6
		c-11.4,2.4-23.9-6.4-26.4-19.6c-5.1-26.9-9.6-54-14.3-81c-1.8-10.5-4.1-21-5.3-31.5c-0.8-6.8-2.9-7.2-8.8-4.8
		c-18.8,7.8-37.8,14.9-56.7,22.3c-2.5,1-5.1,1.6-7.7,2.2c-13.7,2.9-21.5-0.4-26.7-13.5c-6.1-15.2-10.9-31-16.2-46.6
		c-0.8-2.3-1.3-4.6-2.7-6.8c1,13.1,1.9,26.2,3.1,39.3c1.7,18.2,3.4,36.3,5.4,54.5c2.1,19.6,4,39.2,6.8,58.7
		c2.1,14.9-5.1,24.3-20,24.3c-185.5,0-371.1-0.1-556.6,0.2c-12,0-22.9-8.5-20.9-23.1c4.3-32,7.2-64.3,10.3-96.5
		C463,1231.2,464.2,1212,465.8,1191.6z M553.7,412.3c-0.9-0.2-1.8-0.4-2.8-0.5c-2.3,1.4-4.6,2.6-6.7,4.2
		c-33.4,24-51.6,57.2-56.1,97.4c-2.7,24.2-2.4,48.7-3.1,73c-0.2,6.2-1.3,11.2-7.7,13.3c-6.6,2.2-12.5,0.9-17-4.8
		c-3.3-4.2-6.3-8.7-9.7-12.8c-7.3-8.8-20.7-12.7-30.4-8.9c-10.6,4.2-11.3,14.1-11.4,23.2c-0.2,27.9,7.5,53.7,23.8,76.5
		c11.8,16.5,28.9,23.9,45.2,19.9c13.9-3.4,16.7-1.6,20.3,12.7c8.1,32.3,23.2,61.1,44.4,86.7c32.1,38.6,72.6,65.7,118.3,85.7
		c36.9,16.1,75.4,22.2,115.3,16.9c30.3-4.1,58.7-14.9,85.4-29.4c68.2-36.9,120.7-87.3,140.5-165.5c1.9-7.4,7.4-10.6,14.5-8
		c17.4,6.3,32.3,1,43.6-11.7c22.3-24.9,32.2-55.1,30.8-88.5c-0.6-14.1-8.3-21.3-19.5-20.2c-8.8,0.9-16.3,4.7-21.9,11.8
		c-3.3,4.2-6.5,8.6-10,12.6c-4.3,5.1-10.5,6.2-15.9,3.7c-3.6-1.6-7.2-5.9-8.3-9.8c-1.7-6-1.2-12.5-1.9-18.8
		c-2.6-25.9-7.2-51.3-16.8-75.7c-7.5-19-21.8-33.2-34.1-48.9c-22.3-28.5-41.9-58.4-51.9-93.7c-0.4-1.2-1.3-2.3-1.2-2.1
		c-19.3,13.1-37.5,27-57.1,38.5c-60.4,35.4-125.2,60.1-193.2,76.4c-4.2,1-10.4,1.1-13.3-1.3c-4.7-3.8-1.3-9.4,1.2-13.9
		c6.1-11,12.3-22.1,18.4-33.1c3.4-6.3,6.7-12.7,10-19.1c-0.5-0.7-1-1.3-1.5-2c-2.6,1.1-5.5,1.7-7.8,3.3
		c-32.4,22.4-64.7,44.9-97.2,67.1c-2.7,1.9-7.6,3.1-10.3,1.9c-2.6-1.2-4.8-5.8-5.1-9.1c-0.7-8-0.2-16.1-0.2-24.1
		C553.7,427.8,553.7,420.1,553.7,412.3z M895.3,897.5c-97,57.6-193.9,60.7-290.7,1.5c-5.1,8.6-5.4,24.3-1.7,38.2
		c7.5,28.2,27.1,45.5,52.3,57.2c38.5,17.9,79.1,24.6,121.4,19.4c29.7-3.7,57.9-11.7,83.3-28.1c18-11.6,31.4-26.9,37.1-47.8
		C900.7,924.7,901.7,911.3,895.3,897.5z"/>
</g>
</svg>
