<?xml version="1.0" encoding="utf-8"?>
<!-- Generator: Adobe Illustrator 25.0.0, SVG Export Plug-In . SVG Version: 6.00 Build 0)  -->
<svg version="1.1" id="Layer_1" xmlns="http://www.w3.org/2000/svg" xmlns:xlink="http://www.w3.org/1999/xlink" x="0px" y="0px"
	 viewBox="0 0 1500 1500" style="enable-background:new 0 0 1500 1500;" xml:space="preserve">
<g>
	<path d="M470.7,1189.5c-4.3,12.2-8.6,24.5-13.1,36.7c-6.4,17.4-14.4,21.4-32.1,14.9c-20.9-7.7-41.4-16.3-62.1-24.5
		c-1.5-0.6-3-1.3-5.1-2.1c-2.8,16.2-5.6,31.9-8.2,47.6c-3.5,21-6.7,42.1-10.5,63.1c-2.3,12.9-13.8,20.3-26.5,18.1
		c-11.1-2-19-13.9-17-26c6.6-39.9,13.4-79.8,19.8-119.7c0.3-1.9-1.3-5-3-6.2c-5-3.4-10.5-6-15.8-9c-12-6.9-15-13.9-9.4-26.6
		c13.2-29.9,26.8-59.6,40.8-89.1c9.7-20.3,19.3-40.7,30.6-60.2c17.8-30.8,45.1-52.1,75.4-69.5c21-12.1,42.9-22.6,64.3-33.8
		c1.6-0.8,3.3-1.7,4.6-3.8c-6.4,0.5-12.9,1.3-19.3,1.5c-52.2,1.9-102.3-8.3-150.6-27.6c-3.3-1.3-6.7-2.9-9.6-5
		c-7.7-5.6-9.1-13.6-3-20.8c24.5-29.2,37-63.7,43.4-100.3c5.9-33.7,9.6-67.8,13-101.8c1.1-10.9-1.5-22.2-2.8-33.3
		c-2.8-24.8-1.4-48.5,11.8-71.1c5.3-9.1,5.6-21.3,7.5-32.2c10.4-58.1,18.4-116.7,39.6-172.3c15.7-41.2,37.9-78.3,70.4-108.5
		c45.9-42.8,99.2-71.7,161.5-83c35.6-6.5,71.5-9.3,107.6-5.6c26.5,2.8,53.5,5.8,76.4,20.7c13.8,9,28.2,14.4,44,18.6
		c46.9,12.4,80.9,42.5,107.2,82.5c30,45.7,49.3,95.9,62.7,148.4c9.2,36.1,16.5,72.6,24.9,108.9c0.7,3.2,2.8,6.9,5.4,8.7
		c20.7,14.3,28.3,35.1,29.8,58.9c1.5,23.5-4.1,45.5-12.7,67.3c-3.4,8.7-2.9,19.8-1.5,29.4c4.6,32.4,9.5,64.8,16.1,96.8
		c4.5,21.8,12.4,42.8,26.7,60.6c3.8,4.7,8.4,8.9,12.5,13.3c7.6,8.3,7.2,17.9-3,22.3c-15.4,6.7-31.5,12.2-47.8,16.3
		c-30.9,7.7-62.6,8.4-94.3,7.7c-8.7-0.2-17.4,0-27.6,0c17.2,8.3,33.1,15.6,48.7,23.7c30.6,15.9,60,33.7,82.6,60.3
		c10.1,12,19.8,24.9,26.7,38.9c21.1,42.5,40.8,85.7,60.8,128.8c2.1,4.5,3.4,9.6,4,14.5c0.7,6.3-2.2,11.4-7.8,14.6
		c-6.3,3.6-12.6,7.4-19.1,10.6c-3.9,1.9-4.5,4.4-3.9,8.1c6.2,36.5,12.4,73.1,18.4,109.7c0.9,5.7,2,11.7,1,17.2
		c-2.1,11.9-10,17.8-21.4,17.8c-10.6,0-19.4-7.2-21.4-18.2c-4.2-23.1-8-46.3-11.9-69.5c-2.3-13.3-4.5-26.6-6.8-40
		c-20.6,8.2-40.2,16.3-60.1,23.7c-24.5,9.2-31.1,5.9-40.5-18.7c-3.9-10.4-7.8-20.7-12.8-31c0.5,7,0.9,13.9,1.6,20.9
		c2.8,28.6,5.7,57.1,8.5,85.7c1,10.2,1.9,20.4,2.5,30.6c0.6,8.9-5.9,16.2-16.1,17.6c-26.2,3.7-52.4,7.5-78.6,10.4
		c-26.8,3-53.8,5.5-80.7,7.1c-29.7,1.7-59.5,2.9-89.2,3c-36.8,0.2-73.7-0.1-110.5-1.6c-32.1-1.3-64.2-3.9-96.2-7.1
		c-30.9-3.1-61.7-7.6-92.4-11.7c-13.3-1.8-18.5-8.6-17.4-21.9c3.1-34.9,6-69.8,9.1-104.7c0.8-9.5,2-19,3-28.5
		C471.5,1189.6,471.1,1189.6,470.7,1189.5z M846.7,291.8c-14.4,27.4-33.5,49.5-56.8,68.1c-33.7,26.9-70.8,48.1-110.3,64.6
		c-45.3,18.9-91.4,36-137.6,52.8c-17,6.2-27.2,17.1-33.9,33.3c-9,21.9-11.4,45-14.4,68c-1,7.7-5.3,12.8-12.7,14.1
		c-7,1.2-12.4-1.6-16-7.6c-2.5-4.2-4.6-8.6-7.1-12.7c-6.3-10.4-20.4-16.6-30.6-13.7c-7.9,2.2-14,12.4-14.1,25
		c-0.1,9.2,0,18.6,1.6,27.6c3.5,20.7,11.8,39.6,26.7,54.8c11,11.2,24,17.6,40.2,12.1c12.4-4.2,14-3.4,18,9.3
		c22.3,71.2,67.7,123.5,132.8,158.2c54.2,29,112.1,40.3,172.4,21.8C898,839,961.6,778.5,994.5,686.2c3.9-10.9,8.7-13.7,19.2-9.2
		c13.2,5.6,25.3,3.2,35.3-5.7c29.1-25.6,40-58.3,34.6-96.2c-1.1-7.3-4.4-15.8-13.7-16.9c-13.9-1.7-25.4,3-33,15.3
		c-2.7,4.3-5.2,8.8-8.2,12.9c-4.1,5.6-9.9,8-16.7,6.5c-6.4-1.5-10.6-5.6-11.6-12.5c-0.8-5.8-1.6-11.6-2.8-17.2
		c-4.5-21.5-7.6-43.5-14.2-64.3c-11.8-37.1-32.9-69.5-56.5-100.3C899.9,363.6,868.7,331.7,846.7,291.8z M599,918
		c0.3,1.9,0.5,3.8,1,5.6c7.6,27,25.8,45.6,49.1,59c44.1,25.2,91.8,32.6,141.3,21.7c34.8-7.7,66.4-23,90-51.4
		c8.6-10.3,15-21.7,17.7-35.5c-16.7-2.2-27.7-10.1-28.8-28.6c-82.6,38-164.5,38-246.5-0.1C623.5,906,612.9,913.2,599,918z"/>
</g>
</svg>
